<svg width="20" height="20" viewBox="0 0 20 20" fill="none" xmlns="http://www.w3.org/2000/svg">
<path d="M14.9065 9.08058C16.069 8.91725 16.964 7.92058 16.9665 6.71308C16.9665 5.52308 16.099 4.53642 14.9615 4.34975" stroke="#737680" stroke-width="1.5" stroke-linecap="round" stroke-linejoin="round"/>
<path d="M16.4404 11.8753C17.5663 12.0436 18.3521 12.4378 18.3521 13.2503C18.3521 13.8094 17.9821 14.1728 17.3838 14.4011" stroke="#737680" stroke-width="1.5" stroke-linecap="round" stroke-linejoin="round"/>
<path fill-rule="evenodd" clip-rule="evenodd" d="M9.90553 12.2198C7.2272 12.2198 4.9397 12.6257 4.9397 14.2465C4.9397 15.8665 7.21303 16.284 9.90553 16.284C12.5839 16.284 14.8705 15.8823 14.8705 14.2607C14.8705 12.639 12.598 12.2198 9.90553 12.2198Z" stroke="#737680" stroke-width="1.5" stroke-linecap="round" stroke-linejoin="round"/>
<path fill-rule="evenodd" clip-rule="evenodd" d="M9.90567 9.90658C11.6632 9.90658 13.0882 8.48242 13.0882 6.72408C13.0882 4.96658 11.6632 3.54158 9.90567 3.54158C8.14817 3.54158 6.72317 4.96658 6.72317 6.72408C6.7165 8.47575 8.13067 9.90075 9.88233 9.90658H9.90567Z" stroke="#737680" stroke-width="1.5" stroke-linecap="round" stroke-linejoin="round"/>
<path d="M4.90399 9.08058C3.74066 8.91725 2.84649 7.92058 2.84399 6.71308C2.84399 5.52308 3.71149 4.53642 4.84899 4.34975" stroke="#737680" stroke-width="1.5" stroke-linecap="round" stroke-linejoin="round"/>
<path d="M3.36992 11.8753C2.24409 12.0436 1.45825 12.4378 1.45825 13.2503C1.45825 13.8094 1.82825 14.1728 2.42659 14.4011" stroke="#737680" stroke-width="1.5" stroke-linecap="round" stroke-linejoin="round"/>
</svg>
