<svg width="20" height="20" viewBox="0 0 20 20" fill="none" xmlns="http://www.w3.org/2000/svg">
<path d="M1.25 16.8726H18.75" stroke="#737680" stroke-width="1.5" stroke-linecap="round" stroke-linejoin="round"/>
<path d="M11.25 16.8726V3.12256C11.25 2.9568 11.1842 2.79783 11.0669 2.68062C10.9497 2.56341 10.7908 2.49756 10.625 2.49756H3.125C2.95924 2.49756 2.80027 2.56341 2.68306 2.68062C2.56585 2.79783 2.5 2.9568 2.5 3.12256V16.8726" stroke="#737680" stroke-width="1.5" stroke-linecap="round" stroke-linejoin="round"/>
<path d="M17.5 16.8726V8.12256C17.5 7.9568 17.4342 7.79783 17.3169 7.68062C17.1997 7.56341 17.0408 7.49756 16.875 7.49756H11.25" stroke="#737680" stroke-width="1.5" stroke-linecap="round" stroke-linejoin="round"/>
<path d="M5 5.62256H7.5" stroke="#737680" stroke-width="1.5" stroke-linecap="round" stroke-linejoin="round"/>
<path d="M6.25 10.6226H8.75" stroke="#737680" stroke-width="1.5" stroke-linecap="round" stroke-linejoin="round"/>
<path d="M5 13.7476H7.5" stroke="#737680" stroke-width="1.5" stroke-linecap="round" stroke-linejoin="round"/>
<path d="M13.75 13.7476H15" stroke="#737680" stroke-width="1.5" stroke-linecap="round" stroke-linejoin="round"/>
<path d="M13.75 10.6226H15" stroke="#737680" stroke-width="1.5" stroke-linecap="round" stroke-linejoin="round"/>
</svg>
