<svg width="18" height="16" viewBox="0 0 18 16" fill="none" xmlns="http://www.w3.org/2000/svg">
<path d="M16.5974 7.42302H1.07821C0.477241 7.42302 0 6.92811 0 6.34481C0 5.74384 0.477241 5.2666 1.07821 5.2666H16.5974C17.1983 5.2666 17.6756 5.74384 17.6756 6.34481C17.6756 6.92811 17.1983 7.42302 16.5974 7.42302ZM1.07821 5.67314C0.707023 5.67314 0.406538 5.97363 0.406538 6.34481C0.406538 6.716 0.707023 7.01648 1.07821 7.01648H16.5974C16.9686 7.01648 17.269 6.716 17.269 6.34481C17.269 5.97363 16.9686 5.67314 16.5974 5.67314H1.07821Z" fill="#47566D"/>
<path d="M12.1075 13.5743H5.56753C3.30506 13.5743 1.4668 11.7361 1.4668 9.4736V7.21113C1.4668 7.10508 1.55517 6.99902 1.6789 6.99902C1.78496 6.99902 1.89101 7.0874 1.89101 7.21113V9.4736C1.89101 11.5063 3.53484 13.1501 5.56753 13.1501H12.1252C14.1579 13.1501 15.8017 11.5063 15.8017 9.4736V7.21113C15.8017 7.10508 15.8901 6.99902 16.0138 6.99902C16.1199 6.99902 16.2259 7.0874 16.2259 7.21113V9.4736C16.2082 11.7361 14.37 13.5743 12.1075 13.5743Z" fill="#47566D"/>
<path d="M1.6789 5.67386C1.57285 5.67386 1.4668 5.58548 1.4668 5.46175V0.848428C1.4668 0.388863 1.83798 0 2.31522 0H4.96656C5.42613 0 5.81499 0.371187 5.81499 0.848428V1.96199C5.81499 2.06804 5.72661 2.1741 5.60288 2.1741C5.49683 2.1741 5.39078 2.08572 5.39078 1.96199V0.848428C5.39078 0.618645 5.19634 0.424214 4.96656 0.424214H2.31522C2.08544 0.424214 1.89101 0.618645 1.89101 0.848428V5.47943C1.87334 5.58548 1.78496 5.67386 1.6789 5.67386Z" fill="#47566D"/>
<path d="M7.33492 4.1696H3.83515C3.7291 4.1696 3.62305 4.08122 3.62305 3.95749V3.33885C3.62305 2.45507 4.33007 1.74805 5.21385 1.74805H5.93855C6.82233 1.74805 7.52935 2.45507 7.52935 3.33885V3.95749C7.54703 4.08122 7.44097 4.1696 7.33492 4.1696ZM4.04726 3.76306H7.12281V3.35652C7.12281 2.70253 6.59254 2.17226 5.93855 2.17226H5.21385C4.55985 2.17226 4.02959 2.70253 4.02959 3.35652V3.76306H4.04726Z" fill="#47566D"/>
<path d="M4.73768 15.1995H3.64179C3.53574 15.1995 3.42969 15.1111 3.42969 14.9874V12.884C3.42969 12.7779 3.51807 12.6719 3.64179 12.6719C3.74785 12.6719 3.8539 12.7603 3.8539 12.884V14.7929H4.59628L5.21492 13.3082C5.25027 13.2021 5.374 13.1491 5.48006 13.2021C5.58611 13.2375 5.63914 13.3612 5.58611 13.4673L4.91444 15.0934C4.89676 15.1465 4.80838 15.1995 4.73768 15.1995Z" fill="#47566D"/>
<path d="M14.1403 15.1995H13.0444C12.956 15.1995 12.8853 15.1465 12.85 15.0758L12.1783 13.4496C12.1429 13.3435 12.1783 13.2198 12.2843 13.1845C12.3904 13.1491 12.5141 13.1845 12.5495 13.2905L13.1681 14.7753H13.9282V12.884C13.9282 12.7779 14.0166 12.6719 14.1403 12.6719C14.2463 12.6719 14.3524 12.7603 14.3524 12.884V14.9874C14.3347 15.1111 14.2463 15.1995 14.1403 15.1995Z" fill="#47566D"/>
</svg>
