<svg width="18" height="13" viewBox="0 0 18 13" fill="none" xmlns="http://www.w3.org/2000/svg">
<path d="M2.11147 0.211147V4.43409H1.47803C0.662853 4.43409 0 5.09695 0 5.91213V10.5574C1.05574e-05 10.6679 0.100595 10.7685 0.211147 10.7685H0.633442V12.6689C0.633453 12.7794 0.734037 12.88 0.844589 12.88H2.53377C2.64432 12.88 2.7449 12.7794 2.74492 12.6689V10.7685H14.5692V12.6689C14.5692 12.7794 14.6698 12.88 14.7803 12.88H16.4695C16.58 12.88 16.6806 12.7794 16.6806 12.6689V10.7685H17.1029C17.2135 10.7685 17.3141 10.6679 17.3141 10.5574V5.91213C17.3141 5.09695 16.6512 4.43409 15.8361 4.43409H15.2026V0.211147C15.2026 0.100595 15.102 1.05574e-05 14.9915 0H2.32262C2.17733 0.0267291 2.12896 0.0690621 2.11147 0.211147ZM2.53377 0.422295H14.7803V4.43409H13.5134V2.32262C13.5134 2.21207 13.4128 2.11148 13.3023 2.11147H9.92392C9.81337 2.11148 9.71279 2.21207 9.71278 2.32262V4.43409H7.6013V2.32262C7.60129 2.21207 7.50071 2.11148 7.39016 2.11147H4.0118C3.90125 2.11148 3.80066 2.21207 3.80065 2.32262V4.43409H2.53377V0.422295ZM4.22295 2.53377H7.17901V4.43409H4.22295V2.53377ZM10.1351 2.53377H13.0911V4.43409H10.1351V2.53377ZM1.47803 4.85639H15.8361C16.4246 4.85639 16.8918 5.32359 16.8918 5.91213V7.39016H0.422295V5.91213C0.422295 5.32359 0.889498 4.85639 1.47803 4.85639ZM0.422295 7.81245H16.8918V10.3462H0.422295V7.81245ZM1.05574 10.7685H2.32262V12.4577H1.05574V10.7685ZM14.9915 10.7685H16.2583V12.4577H14.9915V10.7685Z" fill="#47566D"/>
</svg>
