<svg width="102" height="33" viewBox="0 0 102 33" fill="none" xmlns="http://www.w3.org/2000/svg">
<path fill-rule="evenodd" clip-rule="evenodd" d="M6.27153 4.4327C5.00329 4.4327 3.82785 4.8454 2.8844 5.53322V1.8954C2.8844 1.26872 2.35855 0.749023 1.72443 0.749023C1.09031 0.749023 0.564453 1.26872 0.564453 1.8954V10.0729C0.564453 13.191 3.1164 15.713 6.27153 15.713C9.42667 15.713 11.9786 13.191 11.9786 10.0729C11.9786 6.95472 9.42667 4.4327 6.27153 4.4327ZM6.27153 13.4508C4.38464 13.4508 2.85347 11.9376 2.85347 10.0729C2.85347 8.20809 4.38464 6.69488 6.27153 6.69488C8.15843 6.69488 9.6896 8.20809 9.6896 10.0729C9.6896 11.9376 8.15843 13.4508 6.27153 13.4508Z" fill="#556675"/>
<path fill-rule="evenodd" clip-rule="evenodd" d="M94.1204 3.19462C90.2229 3.19462 87.0523 6.32804 87.0523 10.1799C87.0523 14.0317 90.2229 17.1651 94.1204 17.1651C98.0179 17.1651 101.189 14.0317 101.189 10.1799C101.189 6.31276 98.0179 3.19462 94.1204 3.19462ZM97.8014 11.3109H95.2804V13.8024C95.2804 14.4291 94.7545 14.9488 94.1204 14.9488C93.4863 14.9488 92.9604 14.4291 92.9604 13.8024V11.3109H90.4394C89.8053 11.3109 89.2794 10.7913 89.2794 10.1646C89.2794 9.53789 89.8053 9.01819 90.4394 9.01819H92.9604V6.52674C92.9604 5.90006 93.4863 5.38037 94.1204 5.38037C94.7545 5.38037 95.2804 5.90006 95.2804 6.52674V9.01819H97.8014C98.4355 9.01819 98.9614 9.53789 98.9614 10.1646C98.9614 10.7913 98.4355 11.3109 97.8014 11.3109Z" fill="#556675"/>
<path d="M25.9756 7.78017C25.9756 5.64027 27.8316 4.40219 29.4092 4.40219H33.8171C34.4512 4.40219 34.9616 4.89131 34.9616 5.53329C34.9616 6.28224 34.312 6.66437 33.8171 6.66437H29.4246C28.6822 6.66437 28.2801 7.26049 28.2801 7.78017C28.2801 8.31514 28.6668 8.92654 29.4246 8.92654H32.1003C34.1728 8.92654 35.5338 10.6385 35.5338 12.3045C35.5338 14.0317 34.2347 15.7284 32.1003 15.7284H27.7233C26.9964 15.7284 26.5633 15.1322 26.5633 14.582C26.5633 13.9859 27.0273 13.4356 27.7079 13.4356H32.0539C32.8118 13.4356 33.1829 12.7478 33.1829 12.3198C33.1829 11.9071 32.8427 11.2193 32.0539 11.2193H29.4092C28.2182 11.204 25.9756 10.2716 25.9756 7.78017Z" fill="#556675"/>
<path d="M64.7188 7.78017C64.7188 5.64027 66.5748 4.40219 68.1524 4.40219H72.5448C73.1789 4.40219 73.6893 4.89131 73.6893 5.53329C73.6893 6.28224 73.0397 6.66437 72.5448 6.66437H68.1524C67.41 6.66437 67.0079 7.26049 67.0079 7.78017C67.0079 8.31514 67.3945 8.92654 68.1524 8.92654H70.828C72.9005 8.92654 74.2616 10.6385 74.2616 12.3045C74.2616 14.0317 72.9624 15.7284 70.828 15.7284H66.4511C65.7087 15.7284 65.2911 15.1322 65.2911 14.582C65.2911 13.9859 65.7551 13.4356 66.4356 13.4356H70.7816C71.5395 13.4356 71.9107 12.7478 71.9107 12.3198C71.9107 11.9071 71.5704 11.2193 70.7816 11.2193H68.1524C66.946 11.204 64.7188 10.2716 64.7188 7.78017Z" fill="#556675"/>
<path d="M78.1436 4.40219C76.5661 4.40219 74.7101 5.64027 74.7101 7.78017C74.7101 10.2716 76.9373 11.204 78.1436 11.2193H80.7884C81.5772 11.2193 81.9174 11.9071 81.9174 12.3198C81.9174 12.7478 81.5462 13.4356 80.7884 13.4356H76.4423C75.7618 13.4356 75.2978 13.9859 75.2978 14.582C75.2978 15.1322 75.7154 15.7284 76.4578 15.7284H80.8348C82.9691 15.7284 84.2683 14.0317 84.2683 12.3045C84.2683 10.6385 82.9073 8.92654 80.8348 8.92654H78.1436C77.3858 8.92654 76.9991 8.31514 76.9991 7.78017C76.9991 7.26049 77.4012 6.66437 78.1436 6.66437H82.5361C83.031 6.66437 83.6806 6.28224 83.6806 5.53329C83.6806 4.89131 83.1702 4.40219 82.5361 4.40219H78.1436Z" fill="#556675"/>
<path d="M36.8794 5.54857C36.8794 4.92189 37.4053 4.40219 38.0394 4.40219C38.6735 4.40219 39.1994 4.92189 39.1994 5.54857V14.5667C39.1994 15.1934 38.6735 15.7131 38.0394 15.7131C37.4053 15.7131 36.8794 15.1934 36.8794 14.5667V5.54857Z" fill="#556675"/>
<path fill-rule="evenodd" clip-rule="evenodd" d="M37.1424 22.8205C38.0858 22.1326 39.2612 21.7199 40.5295 21.7199C43.6846 21.7199 46.2366 24.242 46.2366 27.3601C46.2366 30.4782 43.6846 33.0003 40.5295 33.0003C37.3744 33.0003 34.8224 30.4782 34.8224 27.3601V19.1826C34.8224 18.556 35.3483 18.0363 35.9824 18.0363C36.6165 18.0363 37.1424 18.556 37.1424 19.1826V22.8205ZM37.1114 27.3601C37.1114 29.2249 38.6426 30.7381 40.5295 30.7381C42.4164 30.7381 43.9321 29.2249 43.9476 27.3601C43.9476 25.4953 42.4164 23.9821 40.5295 23.9821C38.6426 23.9821 37.1114 25.4953 37.1114 27.3601Z" fill="#556675"/>
<path d="M23.532 4.40219C22.8979 4.40219 22.372 4.92189 22.372 5.54857L22.3875 10.1493C22.3411 11.9683 20.8409 13.4203 18.9849 13.4203C17.1289 13.4203 15.6287 11.9683 15.5823 10.1493L15.5978 5.54857C15.5978 4.92189 15.0719 4.40219 14.4378 4.40219C13.8037 4.40219 13.2778 4.92189 13.2778 5.54857V10.1493C13.3242 13.2216 15.8607 15.7131 18.9849 15.7131C22.1091 15.7131 24.6456 13.2369 24.692 10.1493V5.54857C24.692 4.92189 24.1661 4.40219 23.532 4.40219Z" fill="#556675"/>
<path d="M18.7529 22.8358C18.7529 22.2091 19.2787 21.6894 19.9129 21.6894C20.547 21.6894 21.0728 22.2091 21.0728 22.8358V27.4366C21.0264 30.5242 18.4899 33.0003 15.3657 33.0003C13.5098 33.0003 11.8549 32.1291 10.8186 30.7687C9.7824 32.1291 8.1275 33.0003 6.27153 33.0003C3.14733 33.0003 0.610853 30.5242 0.564453 27.4366V22.8358C0.564453 22.2091 1.09031 21.6894 1.72443 21.6894C2.35855 21.6894 2.8844 22.2091 2.8844 22.8358L2.86894 27.4366C2.91534 29.2555 4.41557 30.7076 6.27153 30.7076C8.09656 30.7076 9.58133 29.2861 9.65866 27.513V22.8358C9.65866 22.2091 10.1845 21.6894 10.8186 21.6894C11.4528 21.6894 11.9786 22.2091 11.9786 22.8358V27.513C12.0559 29.2861 13.5407 30.7076 15.3657 30.7076C17.2217 30.7076 18.7219 29.2555 18.7683 27.4366L18.7529 22.8358Z" fill="#556675"/>
<path d="M41.7204 15.7131C42.3545 15.7131 42.8804 15.1934 42.8804 14.5667L42.8649 9.96593C42.9113 8.14701 44.4116 6.69494 46.2675 6.69494C48.1235 6.69494 49.6237 8.14701 49.6701 9.96593L49.6546 14.5667C49.6546 15.1934 50.1805 15.7131 50.8146 15.7131C51.4487 15.7131 51.9746 15.1934 51.9746 14.5667V9.96593C51.9282 6.89364 49.3917 4.40219 46.2675 4.40219C43.1433 4.40219 40.6068 6.87836 40.5604 9.96593V14.5667C40.5604 15.1934 41.0708 15.7131 41.7204 15.7131Z" fill="#556675"/>
<path d="M39.1994 2.00242C39.1994 2.63555 38.68 3.14879 38.0394 3.14879C37.3987 3.14879 36.8794 2.63555 36.8794 2.00242C36.8794 1.36929 37.3987 0.856048 38.0394 0.856048C38.68 0.856048 39.1994 1.36929 39.1994 2.00242Z" fill="#556675"/>
<path fill-rule="evenodd" clip-rule="evenodd" d="M63.7444 11.2192C63.2186 10.8677 62.4917 11.0052 62.1359 11.5249C62.1353 11.5256 62.1319 11.53 62.1261 11.5377C61.9999 11.7038 60.6958 13.4203 58.9963 13.4203C58.4859 13.4203 57.991 13.298 57.5424 13.0993L63.0175 7.70369C63.4661 7.26042 63.4661 6.52674 63.0175 6.08348L63.0002 6.06637C62.661 5.73029 61.3359 4.41742 58.9808 4.41742C55.8257 4.41742 53.2737 6.93944 53.2737 10.0576C53.2737 13.1757 55.8257 15.6977 58.9808 15.6977C62.101 15.6977 63.8902 13.0369 64.0491 12.8006L64.0538 12.7936C64.425 12.2892 64.2858 11.5708 63.7444 11.2192ZM55.5937 10.0729C55.5937 8.22338 57.1094 6.71017 58.9963 6.71017C59.5067 6.71017 60.0016 6.81716 60.4347 7.03115L55.9185 11.4791C55.7174 11.0511 55.5937 10.5773 55.5937 10.0729Z" fill="#556675"/>
<path fill-rule="evenodd" clip-rule="evenodd" d="M31.3734 28.8122C31.7291 28.2925 32.456 28.1549 32.9819 28.5065C33.5232 28.858 33.6624 29.5764 33.2912 30.0808L33.2865 30.0879C33.1275 30.3243 31.3384 32.985 28.2183 32.985C25.0631 32.985 22.5112 30.463 22.5112 27.3448C22.5112 24.2267 25.0631 21.7047 28.2183 21.7047C30.5733 21.7047 31.8985 23.0175 32.2377 23.3536L32.255 23.3707C32.7035 23.814 32.7035 24.5477 32.255 24.9909L26.7799 30.3865C27.2284 30.5852 27.7233 30.7075 28.2337 30.7075C29.9333 30.7075 31.2374 28.991 31.3635 28.8249L31.3703 28.816C31.372 28.8138 31.373 28.8125 31.3734 28.8122ZM28.2337 23.9974C26.3468 23.9974 24.8311 25.5106 24.8311 27.3601C24.8311 27.8645 24.9549 28.3384 25.1559 28.7663L29.6721 24.3184C29.239 24.1044 28.7441 23.9974 28.2337 23.9974Z" fill="#556675"/>
<path d="M54.9132 25.419C54.7585 25.633 54.542 25.8164 54.2791 25.954C54.0161 26.0916 53.7068 26.1527 53.3511 26.1527C53.0417 26.1527 52.7479 26.1069 52.485 25.9999C52.222 25.8929 51.99 25.7553 51.8044 25.5566C51.6188 25.3732 51.4642 25.1439 51.3559 24.8841C51.2477 24.6242 51.2013 24.3338 51.2013 24.0281C51.2013 23.7071 51.2631 23.4167 51.3714 23.1569C51.4797 22.897 51.6343 22.6677 51.8354 22.4843C52.0364 22.3009 52.2684 22.148 52.5314 22.0563C52.7943 21.9493 53.0882 21.9035 53.3975 21.9035C53.5367 21.9035 53.6759 21.9188 53.8151 21.9493C53.9543 21.9799 54.0935 22.0105 54.2327 22.0716C54.3564 22.1175 54.4801 22.1939 54.5884 22.2703C54.6966 22.3468 54.7894 22.4385 54.8668 22.5455L54.4183 22.8817C54.3255 22.7442 54.1708 22.6372 53.9852 22.5455C53.7996 22.4537 53.5985 22.4079 53.3975 22.4079C53.1655 22.4079 52.9489 22.4537 52.7479 22.5302C52.5623 22.6219 52.3922 22.7289 52.253 22.8817C52.1138 23.0346 52.021 23.2027 51.9436 23.4014C51.8663 23.6001 51.8354 23.8141 51.8354 24.0281C51.8354 24.2574 51.8663 24.4714 51.9436 24.6701C52.021 24.8688 52.1138 25.0369 52.253 25.1898C52.3922 25.3426 52.5468 25.4496 52.7324 25.5413C52.918 25.633 53.1345 25.6636 53.3665 25.6636C53.5985 25.6636 53.8151 25.6178 54.0007 25.526C54.1863 25.4343 54.3409 25.2968 54.4647 25.1286L54.9132 25.419Z" fill="#556675"/>
<path fill-rule="evenodd" clip-rule="evenodd" d="M58.0683 25.2661C58.1456 25.0827 58.1766 24.8993 58.1766 24.6853C58.1766 24.4713 58.1302 24.2726 58.0683 24.1044C57.991 23.9363 57.8982 23.7835 57.759 23.6612C57.6198 23.5389 57.4651 23.4472 57.2795 23.3708C57.0939 23.2943 56.8929 23.2638 56.6918 23.2638C56.4753 23.2638 56.2897 23.2943 56.1041 23.3708C55.934 23.4319 55.7638 23.5389 55.6401 23.6612C55.5164 23.7835 55.4081 23.9363 55.3308 24.1044C55.2534 24.2879 55.2225 24.4713 55.2225 24.6853C55.2225 24.8993 55.2534 25.098 55.3308 25.2661C55.4081 25.4495 55.5164 25.6024 55.6401 25.7246C55.7638 25.8469 55.9185 25.9386 56.1041 26.0151C56.2897 26.0915 56.4907 26.122 56.6918 26.122C56.9083 26.122 57.0939 26.0915 57.2795 26.0151C57.4651 25.9539 57.6198 25.8469 57.759 25.7246C57.8827 25.5871 57.991 25.4342 58.0683 25.2661ZM57.5425 24.3184C57.5889 24.4254 57.6043 24.563 57.6043 24.6853C57.6043 24.8075 57.5889 24.9298 57.5425 25.0521C57.5115 25.1744 57.4497 25.2814 57.3723 25.3731C57.295 25.4648 57.1867 25.5412 57.0785 25.5871C56.9702 25.6329 56.8465 25.6635 56.6918 25.6635C56.5526 25.6635 56.4134 25.6329 56.3051 25.5871C56.1814 25.5412 56.0886 25.4648 56.0113 25.3731C55.934 25.2814 55.8876 25.1744 55.8412 25.0521C55.7948 24.9451 55.7793 24.8075 55.7793 24.6853C55.7793 24.563 55.7948 24.4407 55.8412 24.3184C55.8721 24.2114 55.934 24.1044 56.0113 24.0127C56.0886 23.921 56.1969 23.8446 56.3051 23.7987C56.4134 23.7529 56.5371 23.7223 56.6918 23.7223C56.831 23.7223 56.9702 23.7529 57.0785 23.7987C57.2022 23.8446 57.295 23.921 57.3723 24.0127C57.4497 24.1044 57.4961 24.1961 57.5425 24.3184Z" fill="#556675"/>
<path d="M59.7851 23.4014C59.9397 23.2944 60.1253 23.2485 60.3264 23.2485C60.512 23.2485 60.6821 23.2944 60.8213 23.3708C60.9605 23.4473 61.0842 23.6001 61.177 23.7835C61.2698 23.6154 61.3936 23.4778 61.5637 23.3861C61.7338 23.2944 61.904 23.2485 62.105 23.2485C62.2751 23.2485 62.4298 23.2791 62.569 23.3402C62.6927 23.4014 62.801 23.4778 62.8938 23.5848C62.9711 23.6918 63.0485 23.7988 63.0794 23.9364C63.1258 24.0739 63.1413 24.2115 63.1413 24.3644V26.0457H62.5999V24.5478C62.5999 24.4408 62.5845 24.3338 62.569 24.2268C62.5535 24.1351 62.5226 24.0434 62.4762 23.9669C62.4298 23.8905 62.3679 23.8294 62.2906 23.7835C62.2133 23.7377 62.1205 23.7224 61.9968 23.7224C61.873 23.7224 61.7648 23.753 61.672 23.7988C61.5792 23.8447 61.5173 23.9211 61.4554 23.9975C61.3936 24.0739 61.3626 24.1656 61.3317 24.2726C61.3008 24.3796 61.3008 24.4866 61.3008 24.5936V26.061H60.7594V24.4408C60.7594 24.3338 60.744 24.2421 60.7285 24.1504C60.713 24.0587 60.6821 23.9822 60.6357 23.9211C60.5893 23.8599 60.5275 23.8141 60.4501 23.7682C60.3728 23.7377 60.28 23.7071 60.1717 23.7071C59.9707 23.7071 59.8005 23.7835 59.6768 23.9516C59.5376 24.1198 59.4757 24.3338 59.4757 24.5936V26.0304H58.9344V23.6307C58.9344 23.5751 58.9302 23.5196 58.9262 23.4661C58.9255 23.4561 58.9247 23.4462 58.924 23.4364C58.9225 23.4151 58.9211 23.3943 58.9202 23.374C58.9194 23.3572 58.9189 23.3409 58.9189 23.325H59.4293C59.4293 23.3327 59.4296 23.3409 59.43 23.3495C59.4305 23.3584 59.4311 23.3678 59.4319 23.3776C59.4332 23.3934 59.4348 23.4101 59.4364 23.4272C59.4405 23.4693 59.4448 23.5139 59.4448 23.5542V23.7682H59.4603C59.5221 23.6307 59.6459 23.5084 59.7851 23.4014Z" fill="#556675"/>
<path fill-rule="evenodd" clip-rule="evenodd" d="M64.0693 27.4214H64.5951V25.6636H64.6106C64.7189 25.8164 64.8581 25.9387 65.0282 26.0152C65.1983 26.0916 65.3839 26.1374 65.585 26.1374C65.8015 26.1374 65.9871 26.1069 66.1572 26.0304C66.3274 25.954 66.4666 25.847 66.5903 25.7247C66.714 25.5872 66.8068 25.4343 66.8687 25.2662C66.9306 25.0828 66.9615 24.8993 66.9615 24.7007C66.9615 24.5172 66.9306 24.3185 66.8687 24.1504C66.8068 23.967 66.714 23.8141 66.5903 23.6918C66.4666 23.5543 66.3274 23.4626 66.1572 23.3861C65.9871 23.3097 65.8015 23.2791 65.6005 23.2791C65.3685 23.2791 65.1674 23.325 64.9973 23.4167C64.8271 23.5084 64.7034 23.6307 64.6106 23.7683H64.5951V23.3403H64.0693V27.4214ZM66.3428 24.3185C66.3892 24.4408 66.4047 24.5631 66.4047 24.6854C66.4047 24.8076 66.3892 24.9299 66.3428 25.0369C66.3119 25.1592 66.25 25.2662 66.1727 25.3579C66.0954 25.4496 65.9871 25.5107 65.8788 25.5719C65.7551 25.6178 65.6314 25.6483 65.4767 25.6483C65.3375 25.6483 65.1983 25.6178 65.0901 25.5719C64.9818 25.526 64.8735 25.4496 64.7962 25.3579C64.7189 25.2815 64.657 25.1745 64.6106 25.0522C64.5642 24.9452 64.5487 24.8076 64.5487 24.6854C64.5487 24.5631 64.5642 24.4408 64.6106 24.3185C64.657 24.1962 64.7189 24.0893 64.7962 23.9975C64.8735 23.9058 64.9818 23.8294 65.0901 23.7836C65.2138 23.7377 65.3375 23.7071 65.4767 23.7071C65.6314 23.7071 65.7706 23.7377 65.8788 23.7836C66.0026 23.8294 66.0954 23.9058 66.1727 23.9975C66.25 24.0893 66.2964 24.1962 66.3428 24.3185Z" fill="#556675"/>
<path d="M67.7164 23.5422C67.7149 23.5165 67.713 23.4911 67.7112 23.4661C67.7074 23.4167 67.7039 23.3691 67.7039 23.325H68.2143C68.2143 23.3524 68.2174 23.3861 68.2208 23.4232C68.223 23.4465 68.2253 23.4712 68.227 23.4966L68.2276 23.505L68.2281 23.5143C68.2291 23.5325 68.2297 23.551 68.2297 23.5695V23.7835H68.2452C68.3225 23.6307 68.4308 23.4931 68.5854 23.4014C68.7401 23.3097 68.8948 23.2485 69.0804 23.2485C69.1577 23.2485 69.235 23.2638 69.2969 23.2791L69.266 23.7835C69.1886 23.7682 69.1113 23.753 69.0185 23.753C68.8948 23.753 68.771 23.7835 68.6783 23.8294C68.5855 23.8752 68.5081 23.9364 68.4308 24.0281C68.3689 24.1045 68.3225 24.1962 68.2916 24.3032C68.2607 24.4102 68.2452 24.5172 68.2452 24.6395V26.061H67.7039V23.9364C67.7348 23.8447 67.7348 23.753 67.7193 23.6307C67.7193 23.6146 67.719 23.5986 67.7184 23.5826C67.7179 23.5691 67.7172 23.5556 67.7164 23.5422Z" fill="#556675"/>
<path fill-rule="evenodd" clip-rule="evenodd" d="M72.3902 25.2661C72.4675 25.0827 72.4984 24.8993 72.4984 24.6853C72.4984 24.4713 72.4675 24.2726 72.3902 24.1044C72.3128 23.9363 72.22 23.7835 72.0808 23.6612C71.9571 23.5389 71.8025 23.4472 71.6169 23.3708C71.4313 23.2943 71.2302 23.2638 71.0291 23.2638C70.8126 23.2638 70.627 23.2943 70.4414 23.3708C70.2713 23.4319 70.1012 23.5389 69.9774 23.6612C69.8537 23.7835 69.7454 23.9363 69.6681 24.1044C69.5908 24.2879 69.5598 24.4713 69.5598 24.6853C69.5598 24.8993 69.5908 25.098 69.6681 25.2661C69.7454 25.4495 69.8537 25.6024 69.9774 25.7246C70.1012 25.8469 70.2558 25.9386 70.4414 26.0151C70.627 26.0915 70.8281 26.122 71.0291 26.122C71.2457 26.122 71.4313 26.0915 71.6169 26.0151C71.787 25.9539 71.9417 25.8469 72.0808 25.7246C72.2046 25.5871 72.3128 25.4342 72.3902 25.2661ZM71.8643 24.3184C71.9107 24.4254 71.9262 24.563 71.9262 24.6853C71.9262 24.8075 71.9107 24.9298 71.8643 25.0521C71.8334 25.1744 71.7715 25.2814 71.6942 25.3731C71.6169 25.4648 71.5086 25.5412 71.4003 25.5871C71.2921 25.6329 71.1683 25.6635 71.0137 25.6635C70.8745 25.6635 70.7353 25.6329 70.627 25.5871C70.5033 25.5412 70.4105 25.4648 70.3332 25.3731C70.2658 25.2932 70.2219 25.1901 70.181 25.0941L70.1723 25.0737C70.1692 25.0665 70.1661 25.0592 70.163 25.0521C70.1166 24.9451 70.1012 24.8075 70.1012 24.6853C70.1012 24.563 70.1166 24.4407 70.163 24.3184C70.194 24.2114 70.2558 24.1044 70.3332 24.0127C70.4105 23.921 70.5188 23.8446 70.627 23.7987C70.7353 23.7529 70.859 23.7223 71.0137 23.7223C71.1529 23.7223 71.2921 23.7529 71.4003 23.7987C71.5241 23.8446 71.6169 23.921 71.6942 24.0127C71.7715 24.1044 71.8179 24.1961 71.8643 24.3184Z" fill="#556675"/>
<path d="M74.1224 23.4014C74.277 23.2944 74.4626 23.2485 74.6637 23.2485C74.8493 23.2485 75.0194 23.2944 75.1586 23.3708C75.3133 23.4473 75.4216 23.6001 75.5144 23.7835C75.6071 23.6154 75.7309 23.4778 75.901 23.3861C76.0711 23.2944 76.2413 23.2485 76.4423 23.2485C76.6125 23.2485 76.7671 23.2791 76.9063 23.3402C77.0301 23.4014 77.1383 23.4778 77.2311 23.5848C77.3085 23.6918 77.3858 23.7988 77.4167 23.9364C77.4631 24.0739 77.4786 24.2115 77.4786 24.3644V26.0457H76.9373V24.5478C76.9373 24.4408 76.9218 24.3338 76.9063 24.2268C76.8909 24.1351 76.8599 24.0434 76.8135 23.9669C76.7671 23.8905 76.7053 23.8294 76.6279 23.7835C76.5506 23.7377 76.4578 23.7224 76.3341 23.7224C76.2103 23.7224 76.1021 23.753 76.0093 23.7988C75.9165 23.8447 75.8546 23.9211 75.7927 23.9975C75.7309 24.0739 75.7 24.1656 75.669 24.2726C75.6381 24.3796 75.6381 24.4866 75.6381 24.5936V26.061H75.0968V24.4408C75.0968 24.3338 75.0813 24.2421 75.0658 24.1504C75.0504 24.0587 75.0194 23.9822 74.973 23.9211C74.9266 23.8599 74.8648 23.8141 74.7874 23.7682C74.7101 23.7377 74.6173 23.7071 74.509 23.7071C74.308 23.7071 74.1378 23.7835 74.0141 23.9516C73.8749 24.1198 73.8131 24.3338 73.8131 24.5936V26.0304H73.2563V23.6307C73.2563 23.5751 73.2521 23.5196 73.2481 23.4661C73.2444 23.4167 73.2408 23.3691 73.2408 23.325H73.7512C73.7512 23.3538 73.7546 23.3895 73.7583 23.4272L73.7583 23.4274C73.7624 23.4694 73.7667 23.514 73.7667 23.5542V23.7682H73.7821C73.8595 23.6307 73.9677 23.5084 74.1224 23.4014Z" fill="#556675"/>
<path fill-rule="evenodd" clip-rule="evenodd" d="M80.9585 24.67C80.9585 24.4407 80.9276 24.2573 80.8812 24.0739C80.8193 23.9057 80.7265 23.7529 80.6182 23.6306C80.51 23.5083 80.3708 23.4166 80.2006 23.3555C80.046 23.2943 79.8604 23.2638 79.6593 23.2638C79.4583 23.2638 79.2727 23.2943 79.1025 23.3708C78.9324 23.4319 78.7777 23.5389 78.654 23.6612C78.5303 23.7835 78.4375 23.9363 78.3601 24.1197C78.2828 24.3032 78.2519 24.4866 78.2519 24.7006C78.2519 24.9146 78.2828 25.1132 78.3601 25.2814C78.422 25.4495 78.5303 25.6024 78.654 25.7246C78.7932 25.8469 78.9479 25.9539 79.118 26.0151C79.2881 26.0915 79.4892 26.122 79.6903 26.122C79.9377 26.122 80.1542 26.0762 80.3553 25.9845C80.5409 25.8928 80.7265 25.7552 80.8657 25.5565L80.479 25.2508C80.4017 25.3578 80.2934 25.4648 80.1542 25.5412C80.015 25.6177 79.8604 25.6635 79.6748 25.6635C79.5511 25.6635 79.4428 25.6482 79.3345 25.6024C79.2263 25.5718 79.1335 25.5107 79.0561 25.4342C78.9633 25.3578 78.9015 25.2814 78.8551 25.1744C78.8087 25.0674 78.7777 24.9604 78.7777 24.8534H80.9585V24.67ZM80.3398 24.135C80.3862 24.2267 80.4017 24.3337 80.4017 24.4407H78.7777C78.7777 24.3337 78.8087 24.2267 78.8551 24.135C78.9015 24.0433 78.9633 23.9669 79.0407 23.8904C79.118 23.814 79.1953 23.7682 79.3036 23.7223C79.3964 23.6765 79.5201 23.6612 79.6284 23.6612C79.7676 23.6612 79.8759 23.6765 79.9687 23.7223C80.0614 23.7682 80.1388 23.8293 80.2006 23.8904C80.2625 23.9669 80.2934 24.0433 80.3398 24.135Z" fill="#556675"/>
<path d="M83.0465 23.7681H82.3196V25.1744C82.3196 25.3425 82.3505 25.4495 82.4124 25.5259C82.4743 25.6023 82.567 25.6329 82.7062 25.6329C82.7526 25.6329 82.8145 25.6329 82.8609 25.6176C82.9228 25.6023 82.9692 25.5871 83.0156 25.5718L83.031 26.015C82.9692 26.0456 82.8918 26.0609 82.8145 26.0762C82.7372 26.0914 82.6598 26.0914 82.567 26.0914C82.3041 26.0914 82.1031 26.015 81.9793 25.8775C81.8401 25.7399 81.7783 25.5259 81.7783 25.2355V23.7681H81.2524V23.3249H81.7783V22.5453H82.3196V23.3249H83.0465V23.7681Z" fill="#556675"/>
<path d="M84.1446 22.5913C84.2219 22.5302 84.2528 22.4537 84.2528 22.3468C84.2528 22.255 84.2064 22.1786 84.1446 22.0869C84.0672 22.0105 83.9744 21.9799 83.8816 21.9799C83.7888 21.9799 83.696 22.0258 83.6342 22.0869C83.5568 22.1481 83.5259 22.2398 83.5259 22.3315C83.5259 22.4232 83.5723 22.4996 83.6342 22.576C83.696 22.6525 83.7888 22.683 83.8816 22.683C83.9899 22.683 84.0672 22.6525 84.1446 22.5913Z" fill="#556675"/>
<path d="M83.6187 26.0457H84.16V23.3403H83.6187V26.0457Z" fill="#556675"/>
<path fill-rule="evenodd" clip-rule="evenodd" d="M87.2997 25.6177C87.1915 25.7858 87.0523 25.9081 86.8667 25.9998C86.6811 26.0915 86.4955 26.1221 86.3099 26.1221C86.0933 26.1221 85.9077 26.0915 85.7376 26.0151C85.5675 25.9387 85.4283 25.8317 85.3046 25.7094C85.1808 25.5872 85.088 25.4343 85.0262 25.2509C84.9643 25.0827 84.9334 24.884 84.9334 24.6853C84.9334 24.4866 84.9643 24.3032 85.0262 24.1351C85.088 23.9669 85.1808 23.8141 85.3046 23.6765C85.4283 23.5542 85.5675 23.4473 85.7376 23.3708C85.9077 23.2944 86.0933 23.2638 86.2944 23.2638C86.5109 23.2638 86.712 23.3097 86.8821 23.4014C87.0523 23.4931 87.176 23.6154 87.2688 23.7377H87.2843V21.72H87.8256V26.0457H87.2997V25.6177ZM85.4902 24.6853C85.4902 24.8076 85.5056 24.9299 85.552 25.0522C85.583 25.1744 85.6448 25.2815 85.7222 25.3732C85.7995 25.4649 85.8923 25.5413 86.0005 25.5872C86.1088 25.6483 86.248 25.6636 86.3872 25.6636C86.5264 25.6636 86.6501 25.633 86.7739 25.5872C86.8821 25.5413 86.9904 25.4649 87.0677 25.3732C87.1451 25.2815 87.2069 25.1744 87.2533 25.0675C87.2997 24.9452 87.3152 24.8229 87.3152 24.7006C87.3152 24.5783 87.2997 24.4408 87.2533 24.3338C87.2069 24.2115 87.1451 24.1045 87.0677 24.0128C86.9904 23.9211 86.8821 23.8447 86.7739 23.7988C86.6656 23.753 86.5264 23.7224 86.3872 23.7224C86.2325 23.7224 86.1088 23.753 86.0005 23.7988C85.8923 23.8447 85.7995 23.9211 85.7222 24.0128C85.6448 24.1045 85.583 24.2115 85.552 24.3338C85.5056 24.4408 85.4902 24.563 85.4902 24.6853Z" fill="#556675"/>
<path fill-rule="evenodd" clip-rule="evenodd" d="M91.4602 25.2661C91.5375 25.0827 91.5684 24.8993 91.5684 24.6853C91.5684 24.4713 91.522 24.2726 91.4602 24.1044C91.3828 23.9363 91.29 23.7835 91.1508 23.6612C91.0271 23.5389 90.8724 23.4472 90.6868 23.3708C90.5012 23.2943 90.3002 23.2638 90.0991 23.2638C89.8826 23.2638 89.697 23.2943 89.5114 23.3708C89.3413 23.4319 89.1711 23.5389 89.0474 23.6612C88.9237 23.7835 88.8154 23.9363 88.7381 24.1044C88.6607 24.2879 88.6298 24.4713 88.6298 24.6853C88.6298 24.8993 88.6607 25.098 88.7381 25.2661C88.8154 25.4495 88.9237 25.6024 89.0474 25.7246C89.1711 25.8469 89.3258 25.9386 89.5114 26.0151C89.697 26.0915 89.8981 26.122 90.0991 26.122C90.3156 26.122 90.5012 26.0915 90.6868 26.0151C90.857 25.9539 91.0116 25.8469 91.1508 25.7246C91.2746 25.5871 91.3828 25.4342 91.4602 25.2661ZM90.9343 24.3184C90.9807 24.4254 90.9962 24.563 90.9962 24.6853C90.9962 24.8075 90.9807 24.9298 90.9343 25.0521C90.9034 25.1744 90.8415 25.2814 90.7642 25.3731C90.6868 25.4648 90.5786 25.5412 90.4703 25.5871C90.362 25.6329 90.2383 25.6635 90.0836 25.6635C89.9444 25.6635 89.8053 25.6329 89.697 25.5871C89.5733 25.5412 89.4805 25.4648 89.4031 25.3731C89.3258 25.2814 89.2794 25.1744 89.233 25.0521C89.1866 24.9451 89.1711 24.8075 89.1711 24.6853C89.1711 24.563 89.1866 24.4407 89.233 24.3184C89.2639 24.2114 89.3258 24.1044 89.4031 24.0127C89.4805 23.921 89.5887 23.8446 89.697 23.7987C89.8053 23.7529 89.929 23.7223 90.0836 23.7223C90.2228 23.7223 90.362 23.7529 90.4703 23.7987C90.594 23.8446 90.6868 23.921 90.7642 24.0127C90.8415 24.1044 90.8879 24.1961 90.9343 24.3184Z" fill="#556675"/>
<path d="M93.7956 24.0128C93.7337 23.921 93.6409 23.8293 93.5327 23.7682C93.4244 23.7071 93.3007 23.6765 93.1615 23.6765C93.0996 23.6765 93.0378 23.6765 92.9759 23.6918C92.914 23.7071 92.8522 23.7224 92.8058 23.7529C92.7594 23.7835 92.713 23.8141 92.6975 23.8599C92.6666 23.9058 92.6511 23.9516 92.6511 24.0281C92.6511 24.135 92.6975 24.2267 92.8058 24.2879C92.914 24.349 93.0687 24.3949 93.2698 24.4407C93.3935 24.4713 93.5172 24.5019 93.6409 24.5477C93.7492 24.5936 93.8575 24.6395 93.9348 24.7006C94.0121 24.7617 94.0895 24.8381 94.1359 24.9299C94.1823 25.0216 94.1977 25.1133 94.1977 25.2355C94.1977 25.3884 94.1668 25.526 94.1049 25.6483C94.0431 25.7552 93.9657 25.847 93.8575 25.9234C93.7492 25.9998 93.641 26.0457 93.5018 26.0762C93.378 26.1068 93.2388 26.1221 93.0996 26.1221C92.8986 26.1221 92.682 26.0762 92.4964 25.9998C92.2954 25.9234 92.1253 25.8011 92.0015 25.633L92.3882 25.312C92.4655 25.419 92.5583 25.5107 92.6975 25.5871C92.8212 25.6635 92.9759 25.6941 93.1306 25.6941C93.1924 25.6941 93.2698 25.6941 93.3316 25.6788C93.3935 25.6635 93.4554 25.6483 93.5018 25.6177C93.5482 25.5871 93.5946 25.5413 93.6255 25.4954C93.6564 25.4495 93.6719 25.3884 93.6719 25.312C93.6719 25.1897 93.61 25.098 93.4863 25.0369C93.3626 24.9757 93.1924 24.9146 92.945 24.8687C92.8985 24.8534 92.8521 24.842 92.8057 24.8305C92.7593 24.819 92.7129 24.8076 92.6666 24.7923C92.5738 24.7617 92.481 24.7159 92.4036 24.6547C92.3263 24.5936 92.2644 24.5324 92.218 24.4407C92.1716 24.349 92.1407 24.242 92.1407 24.1198C92.1407 23.9822 92.1716 23.8446 92.2335 23.7529C92.2954 23.6459 92.3727 23.5695 92.4655 23.4931C92.5583 23.4319 92.6666 23.3708 92.7903 23.3402C92.914 23.3096 93.0378 23.2944 93.177 23.2944C93.378 23.2944 93.5636 23.3402 93.7492 23.4014C93.9348 23.4778 94.074 23.5848 94.1823 23.7376L93.7956 24.0128Z" fill="#556675"/>
<path d="M53.0263 29.3931C53.15 29.4389 53.2273 29.5153 53.2892 29.6071L53.6913 29.2402C53.5831 29.0874 53.4284 28.9804 53.2428 28.9039C53.0572 28.8428 52.8562 28.797 52.6706 28.797C52.454 28.797 52.2684 28.8428 52.0828 28.9039C51.9127 28.9651 51.7426 29.0721 51.6188 29.1944C51.4797 29.3319 51.3869 29.4848 51.3095 29.6529C51.2322 29.821 51.2013 30.0198 51.2013 30.2337C51.2013 30.463 51.2322 30.6617 51.3095 30.8299C51.3869 30.998 51.4951 31.1508 51.6188 31.2731C51.7426 31.3954 51.8972 31.5024 52.0828 31.5635C52.2684 31.64 52.454 31.6705 52.6706 31.6705C52.8871 31.6705 53.0882 31.64 53.2583 31.5635C53.4284 31.5024 53.5831 31.3954 53.6913 31.2578L53.3201 30.9369C53.2428 31.0286 53.15 31.105 53.0417 31.1508C52.918 31.1967 52.7943 31.2273 52.6551 31.2273C52.5004 31.2273 52.3767 31.1967 52.2684 31.1508C52.1602 31.105 52.0674 31.0286 51.99 30.9369C51.9127 30.8604 51.8663 30.7534 51.8199 30.6312C51.7735 30.5242 51.758 30.3866 51.758 30.2643C51.758 30.142 51.7735 30.0198 51.8199 29.8975C51.8508 29.7905 51.9127 29.6835 51.99 29.5918C52.0674 29.5001 52.1602 29.4236 52.2684 29.3778C52.3922 29.3319 52.5159 29.3014 52.6551 29.3014C52.7943 29.3014 52.918 29.3319 53.0263 29.3931Z" fill="#556675"/>
<path fill-rule="evenodd" clip-rule="evenodd" d="M57.0011 30.2643C57.0011 30.4783 56.9702 30.6617 56.8929 30.8451C56.8155 31.0132 56.7073 31.1661 56.5835 31.3037C56.4443 31.4259 56.2897 31.5329 56.1041 31.5941C55.9185 31.6705 55.7329 31.7011 55.5163 31.7011C55.3153 31.7011 55.1142 31.6705 54.9286 31.5941C54.743 31.5177 54.5884 31.4259 54.4646 31.3037C54.3409 31.1814 54.2326 31.0285 54.1553 30.8451C54.078 30.677 54.047 30.4783 54.047 30.2643C54.047 30.0503 54.078 29.8669 54.1553 29.6835C54.2326 29.5153 54.3409 29.3625 54.4646 29.2402C54.5884 29.1179 54.7585 29.0109 54.9286 28.9498C55.1142 28.8733 55.2998 28.8428 55.5163 28.8428C55.7174 28.8428 55.9185 28.8733 56.1041 28.9498C56.2897 29.0262 56.4443 29.1179 56.5835 29.2402C56.7227 29.3625 56.8155 29.5153 56.8929 29.6835C56.9702 29.8669 57.0011 30.0503 57.0011 30.2643ZM56.4443 30.2643C56.4443 30.142 56.4289 30.0044 56.3825 29.8974C56.3361 29.7752 56.2897 29.6835 56.2123 29.5918C56.135 29.5 56.0422 29.4236 55.9185 29.3778C55.8102 29.3319 55.671 29.3013 55.5318 29.3013C55.3772 29.3013 55.2534 29.3319 55.1452 29.3778C55.0369 29.4236 54.9286 29.5 54.8513 29.5918C54.774 29.6835 54.7121 29.7904 54.6812 29.8974C54.6348 30.0197 54.6193 30.142 54.6193 30.2643C54.6193 30.3866 54.6348 30.5241 54.6812 30.6311C54.7276 30.7534 54.774 30.8604 54.8513 30.9521C54.9286 31.0438 55.0214 31.1202 55.1452 31.1661C55.2534 31.212 55.3926 31.2425 55.5318 31.2425C55.6865 31.2425 55.8102 31.212 55.9185 31.1661C56.0267 31.1202 56.135 31.0438 56.2123 30.9521C56.2897 30.8604 56.3515 30.7534 56.3825 30.6311C56.4134 30.5241 56.4443 30.4018 56.4443 30.2643Z" fill="#556675"/>
<path d="M58.261 29.0214C58.2573 28.9838 58.2539 28.9481 58.2539 28.9192V28.9498H57.759C57.759 28.9939 57.7625 29.0415 57.7663 29.091C57.7703 29.1444 57.7744 29.1999 57.7744 29.2555V31.6552H58.3158V30.2184C58.3158 29.9433 58.3776 29.7293 58.5168 29.5612C58.656 29.393 58.8262 29.3166 59.0427 29.3166C59.1664 29.3166 59.2747 29.3319 59.352 29.3778C59.4293 29.4236 59.4912 29.4847 59.5376 29.5612C59.584 29.6376 59.6149 29.7293 59.6304 29.821C59.6459 29.928 59.6613 30.035 59.6613 30.142V31.6399H60.2027V29.9586C60.2027 29.8057 60.1872 29.6682 60.1408 29.5306C60.1099 29.393 60.0325 29.2708 59.9552 29.179C59.8624 29.0721 59.7541 28.9956 59.6304 28.9345C59.4912 28.8733 59.3365 28.8428 59.1664 28.8428C59.0581 28.8428 58.9653 28.8581 58.8725 28.8886C58.7798 28.9039 58.7024 28.9498 58.6251 28.9956C58.5478 29.0415 58.4859 29.1026 58.424 29.1638C58.3622 29.2249 58.3158 29.2861 58.2848 29.3625H58.2694V29.1485C58.2694 29.1419 58.2692 29.1352 58.269 29.1283C58.2689 29.1224 58.2686 29.1164 58.2683 29.1103C58.2667 29.081 58.2638 29.0506 58.261 29.0214Z" fill="#556675"/>
<path d="M63.9146 29.3625H63.1877V30.7687C63.1877 30.9369 63.2186 31.0439 63.2805 31.1203C63.3424 31.1967 63.4352 31.2273 63.5743 31.2273C63.6207 31.2273 63.6826 31.2273 63.729 31.212C63.7524 31.2062 63.7736 31.2004 63.7934 31.1947C63.826 31.1852 63.8548 31.1757 63.8837 31.1662L63.8991 31.6094C63.8373 31.64 63.7599 31.6553 63.6826 31.6706C63.6053 31.6858 63.5279 31.6858 63.4352 31.6858C63.1722 31.6858 62.9712 31.6094 62.8474 31.4719C62.7082 31.3343 62.6464 31.1203 62.6464 30.8299V29.3625H62.1205V28.9193H62.6464V28.1397H63.1877V28.9193H63.9146V29.3625Z" fill="#556675"/>
<path d="M66.3977 31.5232C66.3995 31.5426 66.4014 31.5615 66.4027 31.5791C66.4035 31.5899 66.4041 31.6002 66.4044 31.6099L66.4046 31.615L66.4047 31.6197L66.4047 31.6247V31.6094H66.8841C66.8841 31.5653 66.8806 31.5177 66.8769 31.4683C66.8728 31.4148 66.8687 31.3593 66.8687 31.3037V28.904H66.3274V30.3408C66.3274 30.6006 66.2655 30.8146 66.1263 30.9827C66.0026 31.1509 65.817 31.2273 65.6004 31.2273C65.4767 31.2273 65.3684 31.212 65.2911 31.1662C65.2138 31.1203 65.1519 31.0592 65.1055 30.9827C65.0591 30.9063 65.0282 30.8299 65.0127 30.7229L65.0127 30.7227C64.9972 30.6157 64.9818 30.5088 64.9818 30.4019V28.904H64.4405V30.5853C64.4405 30.7382 64.4559 30.8757 64.5023 31.0133C64.5487 31.1509 64.6106 31.2579 64.6879 31.3649C64.7807 31.4719 64.889 31.5483 65.0127 31.6094C65.1519 31.6706 65.3066 31.7011 65.4767 31.7011C65.6778 31.7011 65.8479 31.6553 66.018 31.5483C66.1882 31.4566 66.3119 31.319 66.3738 31.1814H66.3892V31.3954C66.3892 31.4357 66.3935 31.4803 66.3976 31.5223L66.3976 31.5225L66.3977 31.5232Z" fill="#556675"/>
<path d="M69.7918 28.9192C69.7918 28.9323 69.7925 28.9467 69.7936 28.9621C69.795 28.9808 69.7969 29.0008 69.7989 29.0214C69.8008 29.0409 69.8027 29.0608 69.8042 29.0806C69.806 29.1038 69.8073 29.1267 69.8073 29.1485V29.3625H69.8227C69.8537 29.2861 69.9001 29.2249 69.9619 29.1638C70.0238 29.1026 70.0857 29.0415 70.163 28.9956C70.2403 28.9498 70.3177 28.9039 70.4105 28.8886C70.5033 28.8581 70.5961 28.8428 70.7043 28.8428C70.8745 28.8428 71.0291 28.8733 71.1683 28.9345C71.292 28.9956 71.4003 29.0721 71.4931 29.179C71.5704 29.2708 71.6478 29.393 71.6787 29.5306C71.7251 29.6682 71.7406 29.8057 71.7406 29.9586V31.6399H71.1992V30.142C71.1992 30.035 71.1838 29.928 71.1683 29.821C71.1528 29.7293 71.1219 29.6376 71.0755 29.5612C71.0291 29.4847 70.9673 29.4236 70.8899 29.3778C70.8126 29.3319 70.7043 29.3166 70.5806 29.3166C70.3641 29.3166 70.1939 29.393 70.0547 29.5612C69.9155 29.7293 69.8537 29.9433 69.8537 30.2184V31.6552H69.3123V29.2555C69.3123 29.1999 69.3082 29.1444 69.3042 29.091C69.3005 29.0415 69.2969 28.9939 69.2969 28.9498H69.7918V28.9192Z" fill="#556675"/>
<path fill-rule="evenodd" clip-rule="evenodd" d="M75.2205 30.249C75.2205 30.035 75.1896 29.8363 75.1277 29.6529C75.0658 29.4847 74.9731 29.3319 74.8648 29.2096C74.7565 29.0873 74.6173 28.9956 74.4472 28.9345C74.2925 28.8733 74.1069 28.8428 73.9059 28.8428C73.7048 28.8428 73.5192 28.8733 73.3491 28.9498C73.179 29.0109 73.0243 29.1179 72.9006 29.2402C72.7768 29.3625 72.684 29.5153 72.6067 29.6987C72.5294 29.8822 72.4984 30.0656 72.4984 30.2796C72.4984 30.4936 72.5294 30.6923 72.6067 30.8604C72.6686 31.0285 72.7768 31.1814 72.9006 31.3037C73.0398 31.4259 73.1944 31.5329 73.3646 31.5941C73.5347 31.6705 73.7357 31.7011 73.9368 31.7011C74.1843 31.7011 74.4008 31.6552 74.6019 31.5635C74.8029 31.4718 74.9885 31.3342 75.1277 31.1355L74.7411 30.8298C74.6637 30.9368 74.5555 31.0438 74.4163 31.1202C74.2771 31.1967 74.1224 31.2425 73.9368 31.2425C73.8131 31.2425 73.7048 31.2272 73.5965 31.1814C73.4883 31.1508 73.3955 31.0897 73.3182 31.0132C73.2254 30.9368 73.1635 30.8604 73.1171 30.7534C73.0707 30.6464 73.0398 30.5394 73.0398 30.4324H75.2205V30.249ZM74.6019 29.7293C74.6483 29.821 74.6637 29.928 74.6637 30.035H73.0398C73.0398 29.928 73.0707 29.821 73.1171 29.7293C73.1635 29.6376 73.2254 29.5459 73.3027 29.4847C73.38 29.4083 73.4574 29.3625 73.5656 29.3166C73.6584 29.2708 73.7822 29.2555 73.8904 29.2555C74.0296 29.2555 74.1379 29.2708 74.2307 29.3166C74.3235 29.3625 74.4008 29.4236 74.4627 29.4847C74.5245 29.5612 74.5709 29.6376 74.6019 29.7293Z" fill="#556675"/>
<path fill-rule="evenodd" clip-rule="evenodd" d="M76.1949 32.0832C76.3186 32.2208 76.4578 32.3278 76.6434 32.4042C76.829 32.4806 77.0146 32.5265 77.2002 32.5265C77.3858 32.5265 77.5404 32.4959 77.6642 32.45C77.7879 32.4042 77.8807 32.3278 77.958 32.236C78.0354 32.1443 78.0818 32.0373 78.1127 31.9151C78.1436 31.7928 78.1591 31.6552 78.1591 31.5177V31.1661H78.1436C78.0508 31.3189 77.9116 31.4412 77.726 31.5177C77.5559 31.5941 77.3703 31.6399 77.1693 31.6399C76.9682 31.6399 76.7671 31.6094 76.597 31.5329C76.4269 31.4565 76.2722 31.3648 76.1639 31.2425C76.0402 31.1202 75.9474 30.9674 75.8855 30.7993C75.8237 30.6311 75.7927 30.4477 75.7927 30.249C75.7927 30.0503 75.8237 29.8669 75.8855 29.6987C75.9474 29.5306 76.0402 29.3778 76.1639 29.2555C76.2877 29.1332 76.4269 29.0262 76.597 28.9498C76.7671 28.8733 76.9527 28.8428 77.1693 28.8428C77.3703 28.8428 77.5559 28.8886 77.726 28.9651C77.9116 29.0415 78.0508 29.179 78.1591 29.3472H78.1746V28.9192H78.7004V31.4871C78.7004 31.6858 78.6695 31.8692 78.6231 32.0526C78.5767 32.236 78.4839 32.3889 78.3756 32.5265C78.2519 32.664 78.0972 32.771 77.9116 32.8627C77.726 32.9392 77.4786 32.985 77.2002 32.985C76.9682 32.985 76.7207 32.9392 76.4733 32.8627C76.2258 32.771 76.0247 32.6487 75.8546 32.4959L76.1949 32.0832ZM76.3495 30.249C76.3495 30.3713 76.365 30.4936 76.4114 30.6158C76.4578 30.7381 76.5042 30.8298 76.597 30.9215C76.6743 31.0132 76.7671 31.0744 76.8909 31.1355C76.9991 31.1814 77.1383 31.212 77.2775 31.212C77.4167 31.212 77.5404 31.1814 77.6642 31.1355C77.7879 31.0897 77.8807 31.0132 77.958 30.9368C78.0354 30.8451 78.0972 30.7534 78.1436 30.6311C78.19 30.5089 78.2055 30.3866 78.2055 30.249C78.2055 30.1267 78.19 30.0044 78.1436 29.8822C78.0972 29.7752 78.0354 29.6682 77.958 29.5765C77.8807 29.4847 77.7724 29.4236 77.6642 29.3625C77.5559 29.3166 77.4167 29.2861 77.2775 29.2861C77.1383 29.2861 76.9991 29.3166 76.8909 29.3625C76.7826 29.4083 76.6898 29.4847 76.597 29.5612C76.5197 29.6529 76.4578 29.7446 76.4114 29.8669C76.3805 29.9892 76.3495 30.1114 76.3495 30.249Z" fill="#556675"/>
<path fill-rule="evenodd" clip-rule="evenodd" d="M82.3041 30.8451C82.3815 30.6617 82.4124 30.4783 82.4124 30.2643C82.4124 30.0503 82.3815 29.8669 82.3041 29.6835C82.2268 29.5153 82.134 29.3625 81.9948 29.2402C81.8711 29.1179 81.7164 29.0262 81.5308 28.9498C81.3452 28.8733 81.1441 28.8428 80.9431 28.8428C80.7265 28.8428 80.541 28.8733 80.3554 28.9498C80.1852 29.0109 80.0151 29.1179 79.8914 29.2402C79.7676 29.3625 79.6594 29.5153 79.582 29.6835C79.5047 29.8669 79.4738 30.0503 79.4738 30.2643C79.4738 30.4783 79.5047 30.677 79.582 30.8451C79.6594 31.0285 79.7676 31.1814 79.8914 31.3037C80.0151 31.4259 80.1698 31.5177 80.3554 31.5941C80.541 31.6705 80.742 31.7011 80.9431 31.7011C81.1596 31.7011 81.3452 31.6705 81.5308 31.5941C81.7009 31.5329 81.8556 31.4259 81.9948 31.3037C82.1185 31.1661 82.2268 31.0132 82.3041 30.8451ZM81.7937 29.8974C81.8401 30.0044 81.8556 30.142 81.8556 30.2643C81.8556 30.4018 81.8247 30.5241 81.7937 30.6311C81.7628 30.7534 81.7009 30.8604 81.6236 30.9521C81.5463 31.0438 81.438 31.1202 81.3297 31.1661C81.2215 31.212 81.0977 31.2425 80.9431 31.2425C80.8039 31.2425 80.6647 31.212 80.5564 31.1661C80.4327 31.1202 80.3399 31.0438 80.2626 30.9521C80.1852 30.8604 80.1388 30.7534 80.0924 30.6311C80.046 30.5241 80.0306 30.3866 80.0306 30.2643C80.0306 30.142 80.046 30.0197 80.0924 29.8974C80.1234 29.7904 80.1852 29.6835 80.2626 29.5918C80.3399 29.5 80.4482 29.4236 80.5564 29.3778C80.6647 29.3319 80.7884 29.3013 80.9431 29.3013C81.0823 29.3013 81.2215 29.3319 81.3297 29.3778C81.4535 29.4236 81.5463 29.5 81.6236 29.5918C81.7009 29.6835 81.7473 29.7752 81.7937 29.8974Z" fill="#556675"/>
<path d="M85.088 29.6071C85.0262 29.5153 84.9488 29.4389 84.8251 29.3931C84.7168 29.3319 84.5931 29.3014 84.4539 29.3014C84.3147 29.3014 84.191 29.3319 84.0673 29.3778C83.959 29.4236 83.8662 29.5001 83.7889 29.5918C83.7115 29.6835 83.6497 29.7905 83.6187 29.8975C83.5723 30.0198 83.5569 30.142 83.5569 30.2643C83.5569 30.3866 83.5723 30.5242 83.6187 30.6312C83.6651 30.7534 83.7115 30.8604 83.7889 30.9369C83.8662 31.0286 83.959 31.105 84.0673 31.1508C84.1755 31.1967 84.2993 31.2273 84.4539 31.2273C84.5931 31.2273 84.7169 31.1967 84.8406 31.1508C84.9488 31.105 85.0416 31.0286 85.119 30.9369L85.4902 31.2578C85.3819 31.3954 85.2272 31.5024 85.0571 31.5635C84.887 31.64 84.6859 31.6705 84.4694 31.6705C84.2528 31.6705 84.0673 31.64 83.8817 31.5635C83.6961 31.5024 83.5414 31.3954 83.4177 31.2731C83.2939 31.1508 83.1857 30.998 83.1083 30.8299C83.031 30.6617 83.0001 30.463 83.0001 30.2337C83.0001 30.0198 83.031 29.821 83.1083 29.6529C83.1857 29.4848 83.2785 29.3319 83.4177 29.1944C83.5414 29.0721 83.7115 28.9651 83.8817 28.9039C84.0673 28.8428 84.2528 28.797 84.4694 28.797C84.655 28.797 84.856 28.8428 85.0416 28.9039C85.2272 28.9804 85.3819 29.0874 85.4902 29.2402L85.088 29.6071Z" fill="#556675"/>
<path d="M86.5573 28.1856C86.6347 28.1244 86.6656 28.048 86.6656 27.941C86.6656 27.834 86.6347 27.7576 86.5573 27.6811C86.48 27.6047 86.3872 27.5742 86.2944 27.5742C86.2016 27.5742 86.1088 27.62 86.047 27.6811C85.9696 27.7423 85.9387 27.834 85.9387 27.9257C85.9387 28.0174 85.9851 28.0939 86.047 28.1703C86.1088 28.2467 86.2016 28.2773 86.2944 28.2773C86.4027 28.2773 86.48 28.2467 86.5573 28.1856Z" fill="#556675"/>
<path d="M86.0315 31.6247H86.5728V28.9192H86.0315V31.6247Z" fill="#556675"/>
<path fill-rule="evenodd" clip-rule="evenodd" d="M90.3002 30.2643C90.3002 30.4783 90.2693 30.6617 90.192 30.8451C90.1146 31.0132 90.0064 31.1661 89.8826 31.3037C89.7434 31.4259 89.5888 31.5329 89.4186 31.5941C89.233 31.6705 89.0475 31.7011 88.8309 31.7011C88.6299 31.7011 88.4288 31.6705 88.2432 31.5941C88.0576 31.5177 87.9029 31.4259 87.7792 31.3037C87.6555 31.1814 87.5472 31.0285 87.4699 30.8451C87.3925 30.677 87.3616 30.4783 87.3616 30.2643C87.3616 30.0503 87.3925 29.8669 87.4699 29.6835C87.5472 29.5153 87.6555 29.3625 87.7792 29.2402C87.9029 29.1179 88.0731 29.0109 88.2432 28.9498C88.4288 28.8733 88.6144 28.8428 88.8309 28.8428C89.032 28.8428 89.233 28.8733 89.4186 28.9498C89.6042 29.0262 89.7589 29.1179 89.8826 29.2402C90.0218 29.3625 90.1146 29.5153 90.192 29.6835C90.2693 29.8669 90.3002 30.0503 90.3002 30.2643ZM89.7434 30.2643C89.7434 30.142 89.728 30.0044 89.6816 29.8974C89.6352 29.7752 89.5888 29.6835 89.5114 29.5918C89.4341 29.5 89.3413 29.4236 89.2176 29.3778C89.1093 29.3319 88.9701 29.3013 88.8309 29.3013C88.6763 29.3013 88.5525 29.3319 88.4443 29.3778C88.336 29.4236 88.2277 29.5 88.1504 29.5918C88.0731 29.6835 88.0112 29.7904 87.9803 29.8974C87.9339 30.0197 87.9184 30.142 87.9184 30.2643C87.9184 30.3866 87.9339 30.5241 87.9803 30.6311C88.0267 30.7534 88.0731 30.8604 88.1504 30.9521C88.2277 31.0438 88.3205 31.1202 88.4443 31.1661C88.5525 31.212 88.6917 31.2425 88.8309 31.2425C88.9856 31.2425 89.1093 31.212 89.2176 31.1661C89.3258 31.1202 89.4341 31.0438 89.5114 30.9521C89.5888 30.8604 89.6506 30.7534 89.6816 30.6311C89.7125 30.5241 89.7434 30.4018 89.7434 30.2643Z" fill="#556675"/>
<path d="M91.553 31.5483C91.6303 31.4719 91.6612 31.3955 91.6612 31.2885C91.6612 31.1815 91.6303 31.0898 91.553 31.0286C91.4756 30.9522 91.3828 30.9216 91.2746 30.9216C91.1663 30.9216 91.0735 30.9522 90.9962 31.0286C90.9188 31.0898 90.8879 31.1815 90.8879 31.2885C90.8879 31.3802 90.9188 31.4719 90.9962 31.5483C91.0735 31.6247 91.1663 31.6553 91.2746 31.6553C91.3828 31.6553 91.4756 31.6247 91.553 31.5483Z" fill="#556675"/>
</svg>
