<svg width="20" height="20" viewBox="0 0 20 20" fill="none" xmlns="http://www.w3.org/2000/svg">
<path d="M6.66504 4.79297C6.49962 4.79188 6.34128 4.72568 6.2243 4.6087C6.10733 4.49173 6.04113 4.33339 6.04004 4.16797V1.66797C6.04113 1.50255 6.10733 1.34421 6.2243 1.22723C6.34128 1.11026 6.49962 1.04406 6.66504 1.04297C6.83046 1.04406 6.9888 1.11026 7.10577 1.22723C7.22275 1.34421 7.28895 1.50255 7.29004 1.66797V4.16797C7.28895 4.33339 7.22275 4.49173 7.10577 4.6087C6.9888 4.72568 6.83046 4.79188 6.66504 4.79297Z" fill="#737680"/>
<path d="M13.335 4.79297C13.1695 4.79188 13.0112 4.72568 12.8942 4.6087C12.7773 4.49173 12.7111 4.33339 12.71 4.16797V1.66797C12.7111 1.50255 12.7773 1.34421 12.8942 1.22723C13.0112 1.11026 13.1695 1.04406 13.335 1.04297C13.5004 1.04406 13.6587 1.11026 13.7757 1.22723C13.8927 1.34421 13.9589 1.50255 13.96 1.66797V4.16797C13.9589 4.33339 13.8927 4.49173 13.7757 4.6087C13.6587 4.72568 13.5004 4.79188 13.335 4.79297Z" fill="#737680"/>
<path d="M17.0817 8.20117H2.91504C2.74962 8.20008 2.59128 8.13388 2.4743 8.01691C2.35733 7.89993 2.29113 7.74159 2.29004 7.57617C2.29113 7.41075 2.35733 7.25241 2.4743 7.13544C2.59128 7.01846 2.74962 6.95226 2.91504 6.95117H17.0817C17.2471 6.95226 17.4055 7.01846 17.5224 7.13544C17.6394 7.25241 17.7056 7.41075 17.7067 7.57617C17.7056 7.74159 17.6394 7.89993 17.5224 8.01691C17.4055 8.13388 17.2471 8.20008 17.0817 8.20117Z" fill="#737680"/>
<path d="M13.3333 18.9596H6.66667C3.625 18.9596 1.875 17.2096 1.875 14.168V7.08464C1.875 4.04297 3.625 2.29297 6.66667 2.29297H13.3333C16.375 2.29297 18.125 4.04297 18.125 7.08464V14.168C18.125 17.2096 16.375 18.9596 13.3333 18.9596ZM6.66667 3.54297C4.28333 3.54297 3.125 4.7013 3.125 7.08464V14.168C3.125 16.5513 4.28333 17.7096 6.66667 17.7096H13.3333C15.7167 17.7096 16.875 16.5513 16.875 14.168V7.08464C16.875 4.7013 15.7167 3.54297 13.3333 3.54297H6.66667Z" fill="#737680"/>
<path d="M7.08333 12.0849C6.97444 12.0836 6.86685 12.061 6.76667 12.0183C6.66572 11.976 6.57272 11.9168 6.49167 11.8433C6.41812 11.7622 6.35894 11.6692 6.31667 11.5683C6.27397 11.4681 6.25132 11.3605 6.25 11.2516C6.25323 11.031 6.33953 10.8197 6.49167 10.6599C6.57272 10.5864 6.66572 10.5272 6.76667 10.4849C6.91864 10.4184 7.08761 10.4009 7.25 10.4349C7.30222 10.444 7.35278 10.4609 7.4 10.4849C7.45312 10.5032 7.50356 10.5284 7.55 10.5599L7.675 10.6599C7.71084 10.6995 7.74424 10.7413 7.775 10.7849C7.80656 10.8314 7.83179 10.8818 7.85 10.9349C7.87407 10.9822 7.89093 11.0327 7.9 11.0849C7.90967 11.14 7.91525 11.1957 7.91667 11.2516C7.91343 11.4722 7.82714 11.6835 7.675 11.8433C7.51521 11.9954 7.30394 12.0817 7.08333 12.0849Z" fill="#737680"/>
<path d="M9.99837 12.084C9.77777 12.0807 9.56649 11.9944 9.40671 11.8423L9.30671 11.7173C9.27514 11.6709 9.24992 11.6204 9.23171 11.5673C9.20763 11.5201 9.19078 11.4695 9.18171 11.4173C9.17203 11.3622 9.16646 11.3065 9.16504 11.2506C9.16625 11.1414 9.1889 11.0336 9.23171 10.9331C9.27398 10.8322 9.33316 10.7392 9.40671 10.6581C9.52389 10.5425 9.6727 10.4642 9.83436 10.433C9.99602 10.4019 10.1633 10.4193 10.315 10.4831C10.417 10.5234 10.5104 10.5828 10.59 10.6581C10.7424 10.8181 10.8287 11.0297 10.8317 11.2506C10.8303 11.3065 10.8247 11.3622 10.815 11.4173C10.806 11.4695 10.7891 11.5201 10.765 11.5673C10.7468 11.6204 10.7216 11.6709 10.69 11.7173L10.59 11.8423C10.5104 11.9176 10.417 11.977 10.315 12.0173C10.2149 12.06 10.1073 12.0826 9.99837 12.084Z" fill="#737680"/>
<path d="M7.08333 15.0009C6.97444 14.9996 6.86685 14.977 6.76667 14.9343C6.66572 14.892 6.57272 14.8328 6.49167 14.7593C6.41634 14.6796 6.35694 14.5863 6.31667 14.4843C6.27397 14.3841 6.25132 14.2765 6.25 14.1676C6.25302 13.9467 6.33934 13.7351 6.49167 13.5751C6.57272 13.5016 6.66572 13.4424 6.76667 13.4001C6.91843 13.3363 7.08569 13.3189 7.24734 13.35C7.409 13.3812 7.55781 13.4595 7.675 13.5751C7.71084 13.6147 7.74424 13.6565 7.775 13.7001C7.80656 13.7466 7.83179 13.797 7.85 13.8501C7.87537 13.8997 7.89227 13.9533 7.9 14.0084C7.90971 14.061 7.91529 14.1142 7.91667 14.1676C7.91343 14.3882 7.82714 14.5995 7.675 14.7593C7.51521 14.9114 7.30394 14.9977 7.08333 15.0009Z" fill="#737680"/>
</svg>
