<svg xmlns="http://www.w3.org/2000/svg"
  xmlns:xlink="http://www.w3.org/1999/xlink" width="18" height="18" viewBox="0 0 18 18">
  <defs>
    <style>.a,.c{fill:#418ac9;}.a{stroke:#3aa9c8;}.b{clip-path:url(#a);}</style>
    <clipPath id="a">
      <rect class="a" width="18" height="18" transform="translate(597 677.001)"/>
    </clipPath>
  </defs>
  <g class="b" transform="translate(-597 -677.001)">
    <g transform="translate(597 677.001)">
      <path class="c" d="M15.75,2.25H15V.75A.75.75,0,0,0,14.25,0H13.5a.75.75,0,0,0-.75.75v1.5H5.25V.75A.75.75,0,0,0,4.5,0H3.75A.75.75,0,0,0,3,.75v1.5H2.25A2.253,2.253,0,0,0,0,4.5V15.75A2.253,2.253,0,0,0,2.25,18h13.5A2.253,2.253,0,0,0,18,15.75V4.5A2.253,2.253,0,0,0,15.75,2.25Zm.75,13.5a.75.75,0,0,1-.75.75H2.25a.75.75,0,0,1-.75-.75V6.78h15Z"/>
      <path class="c" d="M6.806,12.7l-.331,2.027a.563.563,0,0,0,.828.583L9,14.366l1.7.938a.563.563,0,0,0,.828-.583L11.2,12.7l1.4-1.43a.563.563,0,0,0-.318-.949l-1.906-.292L9.509,8.2a.586.586,0,0,0-1.018,0l-.858,1.827-1.906.292a.563.563,0,0,0-.318.949Z"/>
    </g>
  </g>
</svg>