<svg width="20" height="20" viewBox="0 0 20 20" fill="none" xmlns="http://www.w3.org/2000/svg">
<path d="M18.3885 6.17402L11.9435 0.258594C11.7317 0.0892578 11.4788 0 11.2122 0C10.9456 0 10.6921 0.0892578 10.4804 0.258594L4.03611 6.15637C3.53104 6.55973 3.44729 7.29645 3.85299 7.80301C4.25506 8.30652 4.99268 8.39227 5.49963 7.98613L11.2122 2.71332L16.926 8.00438C17.3976 8.38414 18.1881 8.30223 18.5715 7.82012C18.9767 7.31566 18.894 6.57781 18.3885 6.17402Z" fill="#1B2534"/>
<path d="M17.0701 0.00195312H14.7265C14.4027 0.00195312 14.1406 0.263984 14.1406 0.587852V0.680273L17.6559 3.92254V0.587852C17.656 0.263984 17.3939 0.00195312 17.0701 0.00195312Z" fill="#1B2534"/>
<path d="M1.83773 9.41504H0.587852C0.264023 9.41504 0.00195312 9.67707 0.00195312 10.0009V19.4142C0.00195312 19.738 0.263984 20.0001 0.587852 20.0001H1.83773C2.80695 20.0001 3.59539 19.2116 3.59539 18.2424V11.1727C3.59539 10.2035 2.80699 9.41504 1.83773 9.41504Z" fill="#1B2534"/>
<path d="M19.5202 10.8091C19.0398 10.4575 18.3719 10.5279 17.9735 10.9614L14.8097 14.8986C14.587 15.1329 14.1652 15.2735 13.9426 15.2735H8.86875C8.54062 15.2735 8.28285 15.0158 8.28285 14.6876C8.28285 14.3595 8.54059 14.1017 8.86875 14.1017C11.4935 14.1017 10.6381 14.1017 13.5559 14.1017C14.2004 14.1017 14.7276 13.5744 14.7276 12.93C14.7276 12.2855 14.2003 11.7582 13.5559 11.7582C10.8043 11.7582 13.4289 11.7582 10.4858 11.7582C10.1938 11.7582 10.0482 11.573 9.81789 11.3715C9.46637 11.0552 9.06797 10.8208 8.65785 10.6567C7.38809 10.1382 5.92086 10.2951 4.76758 11.0972C4.76758 13.2305 4.76758 16.4094 4.76758 18.8279H13.5559C14.6574 18.8279 15.712 18.3006 16.3682 17.4218L19.7663 12.4613C20.153 11.9457 20.0475 11.1957 19.5202 10.8091Z" fill="#1B2534"/>
<path d="M11.2103 4.30859L5.93848 9.17492V9.33391C6.32523 9.2448 6.71945 9.18449 7.12281 9.18449C7.80543 9.18449 8.47023 9.31496 9.09961 9.57184C9.22371 9.62148 9.335 9.69172 9.45375 9.75016V8.82863C9.45375 8.5048 9.71578 8.24273 10.0396 8.24273H12.3832C12.707 8.24273 12.9691 8.50477 12.9691 8.82863V10.5863H13.555C14.4951 10.5863 15.3075 11.1424 15.6806 11.9429L16.4845 10.9425V9.18887L11.2103 4.30859Z" fill="#1B2534"/>
<path d="M10.626 9.41504V10.5232L10.6964 10.5868H11.7978V9.41504H10.626Z" fill="#1B2534"/>
</svg>
