<svg width="32" height="32" viewBox="0 0 32 32" fill="none" xmlns="http://www.w3.org/2000/svg">
<rect width="32" height="32" rx="4" fill="#FFEEEF"/>
<path d="M20.8825 14.3125C20.8825 14.3125 20.5205 18.8025 20.3105 20.6938C20.2105 21.5972 19.6525 22.1265 18.7385 22.1432C16.9992 22.1745 15.2579 22.1765 13.5192 22.1398C12.6399 22.1218 12.0912 21.5858 11.9932 20.6985C11.7819 18.7905 11.4219 14.3125 11.4219 14.3125" stroke="#FF5263" stroke-width="1.5" stroke-linecap="round" stroke-linejoin="round"/>
<path d="M21.8053 12.1595H10.5" stroke="#FF5263" stroke-width="1.5" stroke-linecap="round" stroke-linejoin="round"/>
<path d="M19.6264 12.16C19.1031 12.16 18.6524 11.79 18.5497 11.2773L18.3877 10.4667C18.2877 10.0927 17.9491 9.83398 17.5631 9.83398H14.7411C14.3551 9.83398 14.0164 10.0927 13.9164 10.4667L13.7544 11.2773C13.6517 11.79 13.2011 12.16 12.6777 12.16" stroke="#FF5263" stroke-width="1.5" stroke-linecap="round" stroke-linejoin="round"/>
</svg>
