<svg width="18" height="17" viewBox="0 0 18 17" fill="none" xmlns="http://www.w3.org/2000/svg">
<path d="M10.4712 16.9999C10.3063 17.0023 10.1467 16.9414 10.0252 16.8298C9.9038 16.7181 9.82977 16.5641 9.81837 16.3996C9.80698 16.235 9.85907 16.0723 9.96395 15.945C10.0688 15.8176 10.2185 15.7353 10.3822 15.7149L10.4712 15.7089H17.3422C17.5073 15.7062 17.6671 15.7669 17.7888 15.8785C17.9104 15.9901 17.9846 16.1441 17.9962 16.3088C18.0077 16.4735 17.9557 16.6363 17.8508 16.7638C17.7458 16.8912 17.5961 16.9736 17.4322 16.9939L17.3422 16.9999H10.4712ZM0.659225 16.9999C0.570498 17.0004 0.48259 16.9829 0.400789 16.9486C0.318988 16.9142 0.244983 16.8636 0.183225 16.7999C0.123116 16.7395 0.0759042 16.6674 0.0444485 16.5882C0.0129929 16.509 -0.0020521 16.4242 0.000224711 16.3389L0.100225 12.3999C0.119473 11.6512 0.431035 10.9398 0.968225 10.4179L10.6602 0.915932C11.2649 0.328563 12.0747 0 12.9177 0C13.7607 0 14.5705 0.328563 15.1752 0.915932L16.4692 2.18493C16.7652 2.47263 17.0004 2.81675 17.1611 3.19694C17.3217 3.57714 17.4045 3.98569 17.4045 4.39843C17.4045 4.81117 17.3217 5.21972 17.1611 5.59992C17.0004 5.98012 16.7652 6.32424 16.4692 6.61193L6.74122 16.1489C6.18058 16.698 5.42597 17.0038 4.64122 16.9999H0.659225ZM1.90022 11.3279C1.60282 11.6181 1.42997 12.0126 1.41822 12.4279L1.33422 15.7059H4.64322C5.02809 15.7066 5.4014 15.5745 5.70022 15.3319L5.80722 15.2319L13.8532 7.34493L9.90722 3.47993L1.90022 11.3279ZM14.7862 6.43593L15.5382 5.69893C15.7119 5.5299 15.85 5.32777 15.9442 5.10449C16.0385 4.88121 16.0871 4.6413 16.0871 4.39893C16.0871 4.15657 16.0385 3.91666 15.9442 3.69338C15.85 3.47009 15.7119 3.26797 15.5382 3.09893L14.2382 1.82993C13.8834 1.4839 13.4074 1.29022 12.9117 1.29022C12.4161 1.29022 11.9401 1.4839 11.5852 1.82993L10.8332 2.56693L14.7862 6.43593Z" fill="#220054"/>
</svg>
