<svg width="156" height="30" viewBox="0 0 156 30" fill="none" xmlns="http://www.w3.org/2000/svg">
<path d="M14.3974 5.39328C14.5009 3.56798 14.6044 1.80352 14.7079 0.0390625H0.941406V1.96577C1.02634 1.97527 1.11099 1.98478 1.19549 1.99429L1.4808 2.02645C2.02082 2.08735 2.56079 2.14824 3.13577 2.20914V19.9348C2.47332 20.0362 1.85227 20.1376 1.18983 20.2593V22.2063H15.0185C14.9771 21.2734 14.9408 20.3506 14.9046 19.4279C14.8684 18.5051 14.8322 17.5822 14.7908 16.6493C14.3129 16.6294 13.85 16.6143 13.3899 16.5994C12.9131 16.5839 12.4392 16.5685 11.9546 16.5479C11.9123 16.9151 11.87 17.2755 11.8282 17.6314C11.7268 18.4942 11.6285 19.3311 11.5406 20.1782H7.31749V11.8021H9.11852C9.26344 12.4105 9.42905 13.019 9.59466 13.5666H11.4371V8.13123H9.55326C9.40835 8.73967 9.26344 9.30753 9.11852 9.8754H7.29679V1.98604H11.4992C11.5303 2.54377 11.5613 3.09137 11.5924 3.63896C11.6234 4.18655 11.6545 4.73414 11.6855 5.29188C12.1423 5.31176 12.5841 5.32677 13.0233 5.34169C13.4797 5.3572 13.9332 5.37261 14.3974 5.39328Z" fill="#556675"/>
<path fill-rule="evenodd" clip-rule="evenodd" d="M63.7143 29.0022V29.0025C63.7003 29.2298 63.6858 29.4638 63.6672 29.7103H70.5194C70.5394 29.4555 70.5546 29.2102 70.5696 28.9675C70.5856 28.7079 70.6015 28.4512 70.6229 28.1892C70.0433 28.0675 69.5464 27.9661 69.0496 27.8647V21.9223C69.1531 21.9426 69.2152 21.9629 69.2773 21.9832C70.2296 22.4091 71.2233 22.4902 72.2583 22.4091C74.2664 22.2468 75.7155 21.2733 76.5229 19.448C76.7713 18.8396 76.9576 18.2109 77.0818 17.5619C77.4337 15.8177 77.413 14.0532 77.2681 12.3091C77.206 11.4573 77.0197 10.5852 76.7713 9.77393C76.1916 7.94863 75.053 6.67093 72.9829 6.46812C71.3268 6.30587 69.8777 6.75204 68.7598 8.00948C68.7492 8.01985 68.7386 8.02963 68.728 8.03902C68.7234 8.04312 68.7188 8.04716 68.7141 8.05113L68.7071 8.05718C68.6936 8.06858 68.6801 8.07958 68.6666 8.09057C68.6356 8.11593 68.6045 8.1413 68.5735 8.17172C68.455 7.76555 68.3472 7.38013 68.2347 6.97836L68.2337 6.97469C68.1893 6.81592 68.1441 6.65459 68.0973 6.48839C66.524 6.71149 65.0128 6.9143 63.5016 7.11711V8.69904C64.0132 8.78545 64.5098 8.85715 64.9913 8.92666C65.0748 8.93871 65.1579 8.9507 65.2405 8.96269V27.8647C64.7437 27.9864 64.2675 28.0878 63.7707 28.1892C63.748 28.4561 63.7315 28.7229 63.7144 28.9999L63.7144 29.001L63.7143 29.0022ZM72.6517 19.9551C71.4303 20.3607 70.2503 20.3404 69.0289 19.8334V10.5243C69.0289 9.71309 69.5464 9.10466 70.3745 8.94241C70.4573 8.94241 70.5194 8.92212 70.5815 8.90185C71.9478 8.67875 72.838 9.18578 73.252 10.4635C73.4383 11.0516 73.5625 11.6804 73.6039 12.2888C73.7281 14.1141 73.7695 15.9394 73.5004 17.7444C73.4413 18.1644 73.3294 18.5845 73.2174 19.0045L73.2174 19.0048L73.1908 19.1045L73.1711 19.1788L73.1654 19.2004L73.1508 19.2562L73.1402 19.2969C73.1218 19.3676 73.1038 19.4382 73.0864 19.5089C73.0243 19.732 72.9001 19.8739 72.6517 19.9551Z" fill="#556675"/>
<path d="M114.883 20.2796C115.463 20.4013 115.98 20.5027 116.498 20.6041C116.487 20.8779 116.472 21.1415 116.456 21.4051C116.441 21.6688 116.425 21.9325 116.415 22.2063H111.136C111.136 22.1454 111.131 22.0896 111.126 22.0339C111.12 21.9781 111.115 21.9223 111.115 21.8615C111.115 20.719 111.117 19.5765 111.12 18.434C111.124 16.149 111.129 13.864 111.115 11.579C111.115 11.1125 111.012 10.646 110.867 10.1998C110.701 9.67254 110.246 9.36832 109.687 9.24664C109.149 9.12495 108.61 9.16551 108.113 9.36832C107.679 9.55086 107.327 9.89563 107.327 10.4027V20.1376C107.327 20.1598 107.333 20.176 107.342 20.1994C107.35 20.2187 107.359 20.243 107.368 20.2796C107.844 20.381 108.341 20.4824 108.921 20.5838C108.899 20.8629 108.883 21.1421 108.866 21.4272L108.866 21.4282L108.866 21.4296C108.852 21.6824 108.837 21.9398 108.817 22.2063H102.027V20.6041C102.545 20.5027 103.021 20.4013 103.538 20.2796V9.12495L103.352 9.10472L103.351 9.10461L103.351 9.10454L103.35 9.10446C102.849 9.05022 102.333 8.99419 101.799 8.92214V7.27937C103.269 7.07656 104.739 6.87375 106.271 6.65066C106.366 6.96915 106.452 7.28764 106.535 7.59477L106.535 7.5974L106.536 7.60127C106.58 7.76127 106.622 7.91817 106.664 8.07034C106.772 7.99137 106.881 7.90598 106.994 7.81834L106.994 7.81815C107.228 7.6358 107.475 7.44372 107.741 7.27937C109.211 6.36672 110.805 6.20448 112.44 6.77234C113.806 7.2591 114.531 8.3137 114.759 9.69282C114.821 10.0782 114.841 10.4635 114.841 10.8488V19.6711C114.883 19.8942 114.883 20.0768 114.883 20.2796Z" fill="#556675"/>
<path d="M22.7034 20.4824C22.363 20.4148 22.0225 20.3472 21.6637 20.2796C21.6624 20.2682 21.6612 20.257 21.6601 20.2458L21.659 20.2353L21.6572 20.2158L21.656 20.2033C21.6529 20.1691 21.6503 20.1353 21.6476 20.1015C21.6384 19.9843 21.6292 19.8672 21.6016 19.732V17.9067C21.6016 17.0827 21.6039 16.2609 21.6062 15.4399L21.6062 15.4354V15.4309C21.6108 13.7897 21.6154 12.1514 21.6016 10.5041C21.6016 10.1999 21.7051 9.97677 21.8914 9.73339C22.3883 9.14525 23.0714 9.12496 23.7339 9.18581C24.6654 9.26693 25.2037 9.81452 25.3486 10.7069C25.4107 11.0922 25.4521 11.4776 25.4521 11.8629V22.186H30.7517V21.3545C30.7517 21.0908 30.7724 20.8272 30.7931 20.5635C30.5136 20.5128 30.2497 20.4621 29.9857 20.4114C29.7218 20.3607 29.4578 20.31 29.1784 20.2593V10.788C29.1784 10.3824 29.1577 9.95649 29.0749 9.57115C28.7644 8.05007 27.8742 6.99544 26.3009 6.63039C24.4998 6.20449 22.8437 6.54927 21.4153 7.74585C21.3455 7.80442 21.2758 7.86772 21.2083 7.9289L21.208 7.92916C21.1355 7.99498 21.0656 8.05838 21.0013 8.11091C20.975 8.01911 20.9495 7.92864 20.9243 7.83915C20.8962 7.739 20.8687 7.64009 20.8413 7.54189L20.8409 7.54062C20.7578 7.2422 20.6764 6.95027 20.5872 6.65068C19.0346 6.87376 17.5648 7.07657 16.095 7.27939V8.92215C16.6746 8.983 17.2543 9.04384 17.8132 9.10468C17.9374 9.67255 17.896 19.9145 17.7925 20.2796L17.7921 20.2796C17.3161 20.381 16.8401 20.4824 16.3434 20.5838C16.3325 20.8824 16.3159 21.1642 16.2996 21.441C16.2849 21.6906 16.2704 21.936 16.2606 22.186H23.1128C23.1335 21.9122 23.1491 21.6484 23.1646 21.3847L23.1646 21.3845L23.1648 21.3814C23.1803 21.1189 23.1957 20.8564 23.2163 20.5838C23.0443 20.5501 22.8745 20.5164 22.7048 20.4827L22.7034 20.4824Z" fill="#556675"/>
<path d="M139.124 8.7193C138.82 8.68733 138.521 8.66095 138.219 8.63429L138.218 8.63421C137.945 8.61017 137.67 8.58589 137.385 8.55706V7.11709C138.147 7.03523 138.908 6.9493 139.673 6.86293L139.675 6.86275L139.678 6.86237L139.683 6.86189L139.693 6.86063C140.628 6.7552 141.567 6.64915 142.519 6.54922C142.548 6.63677 142.577 6.72315 142.606 6.80873C142.785 7.33768 142.954 7.83619 142.954 8.3948C142.94 10.9079 142.945 13.421 142.95 15.928V15.9379C142.952 17.1908 142.954 18.4422 142.954 19.6914V20.2998C143.513 20.4012 144.01 20.5026 144.548 20.6243C144.517 20.8981 144.491 21.1618 144.465 21.4255C144.439 21.6891 144.414 21.9527 144.383 22.2265H139.973C139.911 22.034 139.844 21.8365 139.774 21.6313L139.774 21.6307C139.704 21.4254 139.631 21.2124 139.559 20.9894C139.414 21.0908 139.311 21.1719 139.207 21.253C137.406 22.8552 134.984 22.693 133.452 21.9629C132.251 21.395 131.61 20.4215 131.403 19.1641C131.32 18.7584 131.299 18.3325 131.299 17.9066V8.75987C130.899 8.71933 130.518 8.6788 130.136 8.63827C129.945 8.61796 129.754 8.59764 129.56 8.57733V7.13738C130.793 7.00323 132.025 6.85813 133.282 6.71012C133.735 6.65674 134.192 6.60298 134.653 6.54922C134.697 6.72381 134.752 6.89255 134.806 7.05973L134.806 7.06021L134.807 7.06333C134.928 7.43878 135.046 7.80619 135.046 8.21227V17.136C135.046 17.5416 135.067 17.9472 135.129 18.3528C135.274 19.448 135.998 20.097 137.116 20.1173C137.51 20.1173 137.903 20.0564 138.296 19.955C138.71 19.8536 139.249 19.1438 139.249 18.7382V8.90182C139.186 8.84098 139.166 8.80042 139.124 8.7193Z" fill="#556675"/>
<path fill-rule="evenodd" clip-rule="evenodd" d="M56.0282 18.799C55.3451 17.8053 55.1381 16.6898 55.1381 15.4324C57.7672 15.3918 60.3135 15.3715 62.9218 15.3513C62.9607 15.2308 63.0096 15.1104 63.0585 14.99C63.1661 14.7251 63.2738 14.4602 63.2738 14.1952C63.2738 13.0392 63.1496 11.8832 62.8183 10.7474C62.4871 9.63199 62.011 8.61793 61.1622 7.80669C59.7131 6.44785 57.9742 6.22475 56.111 6.6101C54.1444 7.01572 52.8609 8.21231 52.0328 9.95648C51.5153 11.0314 51.2669 12.1468 51.1634 13.3231C50.9977 15.2296 51.1841 17.0954 52.0328 18.8599C52.7988 20.4621 53.9581 21.6587 55.7384 22.1657C57.8707 22.7741 59.8787 22.4294 61.7833 21.4153C61.9824 21.3243 62.156 21.1998 62.3314 21.0742C62.4295 21.0039 62.5281 20.9332 62.632 20.8677C62.4043 20.3607 62.1973 19.8942 61.9903 19.4278L61.9897 19.4279L61.9879 19.4285C61.8029 19.489 61.6792 19.5294 61.5555 19.59C60.6033 19.9754 59.6303 20.1782 58.5952 20.1579C57.498 20.1376 56.6493 19.6711 56.0282 18.799ZM59.8144 12.8831C59.8274 13.0536 59.8409 13.2322 59.858 13.4245C58.2433 13.5057 56.6907 13.5665 55.1381 13.6274C55.134 13.6037 55.1292 13.5816 55.1241 13.5606C55.1209 13.5475 55.1176 13.5348 55.1143 13.5224C55.1118 13.5133 55.1093 13.5044 55.1069 13.4956C55.0907 13.4368 55.076 13.3835 55.076 13.3231C55.1381 11.9846 55.3865 10.6866 55.904 9.42918C56.0696 9.06411 56.3181 8.84102 56.7114 8.71934C57.7051 8.41512 58.471 8.67877 58.9885 9.57114C59.4647 10.3824 59.651 11.2748 59.7545 12.1874C59.7788 12.4137 59.796 12.6401 59.8144 12.8829V12.8831Z" fill="#556675"/>
<path fill-rule="evenodd" clip-rule="evenodd" d="M125.018 15.3808L125.014 15.3808C123.698 15.3963 122.391 15.4117 121.073 15.4324C121.01 15.98 121.093 16.487 121.197 16.994C121.342 17.7647 121.632 18.4745 122.17 19.083C122.77 19.7725 123.515 20.1173 124.426 20.1376C125.42 20.1782 126.372 19.9956 127.304 19.6306C127.49 19.5495 127.676 19.4886 127.925 19.4075L127.926 19.4099L127.926 19.411C128.133 19.8763 128.339 20.3417 128.567 20.8677C128.551 20.8793 128.535 20.8901 128.519 20.9005C128.506 20.9093 128.493 20.9178 128.479 20.9262C128.467 20.9338 128.455 20.9413 128.442 20.9489C128.421 20.9622 128.399 20.9755 128.377 20.9896C128.357 21.0023 128.338 21.0156 128.318 21.03C126.662 22.1657 124.799 22.6119 122.832 22.3888C120.389 22.1251 118.754 20.7257 117.864 18.5354C116.725 15.7163 116.767 12.8567 117.947 10.0376C118.713 8.23259 120.037 6.99544 122.046 6.56953C123.619 6.24504 125.13 6.34645 126.496 7.2591C127.469 7.90809 128.07 8.8613 128.484 9.91592C129.022 11.2748 129.229 12.6944 129.188 14.1344C129.173 14.4239 129.074 14.7031 128.973 14.9867L128.973 14.9878C128.956 15.0352 128.939 15.0827 128.922 15.1303C128.913 15.1573 128.904 15.1843 128.895 15.2114C128.888 15.2306 128.882 15.2497 128.876 15.2689C128.869 15.2895 128.863 15.3102 128.856 15.331C127.558 15.3509 126.284 15.3659 125.018 15.3808ZM125.751 13.4245C125.71 12.3699 125.585 11.3762 125.275 10.4229C125.109 9.93621 124.882 9.51029 124.55 9.10467C123.929 8.33399 122.046 8.47596 121.756 9.55086C121.689 9.80176 121.614 10.0527 121.54 10.3046C121.361 10.908 121.181 11.5173 121.093 12.1468C121.083 12.2289 121.071 12.3103 121.06 12.3917C121.002 12.7931 120.945 13.1923 121.031 13.6476C121.86 13.6049 122.678 13.5678 123.502 13.5304C124.242 13.4968 124.987 13.4629 125.751 13.4245Z" fill="#556675"/>
<path fill-rule="evenodd" clip-rule="evenodd" d="M97.2979 15.3812C98.576 15.3662 99.8592 15.3511 101.158 15.3311C101.195 15.2144 101.242 15.0958 101.29 14.9765C101.399 14.7019 101.51 14.4233 101.51 14.1548C101.51 12.6134 101.303 11.1126 100.682 9.69292C100.205 8.59773 99.5222 7.66481 98.425 7.07665C96.7689 6.18429 95.03 6.2654 93.3325 6.9144C91.8833 7.48227 90.9311 8.57746 90.2893 9.93629C89.7304 11.0923 89.4819 12.3295 89.3992 13.6072C89.2542 15.4933 89.5027 17.3389 90.3928 19.0628C91.2623 20.7461 92.6079 21.9224 94.5331 22.2875C96.5826 22.6931 98.5492 22.3078 100.33 21.2126C100.423 21.1518 100.511 21.0859 100.599 21.02L100.599 21.0197C100.687 20.9539 100.775 20.888 100.868 20.8273C100.731 20.5234 100.602 20.2342 100.476 19.9508C100.392 19.7612 100.309 19.5743 100.226 19.3873C100.101 19.4429 99.989 19.4862 99.8824 19.5274L99.8819 19.5276C99.794 19.5615 99.7099 19.594 99.6257 19.6307C98.6735 20.016 97.7005 20.1782 96.6861 20.1377C95.7959 20.1174 95.0507 19.7523 94.4917 19.0831C93.6016 18.0487 93.3946 16.8116 93.3739 15.4325C94.6836 15.4119 95.988 15.3966 97.2979 15.3812ZM98.0416 13.0085C98.0514 13.1433 98.0614 13.2815 98.0731 13.4246C97.2227 13.4674 96.3895 13.5045 95.5494 13.5419L95.545 13.5421C94.7913 13.5756 94.032 13.6094 93.2496 13.6477C93.2663 13.4605 93.2795 13.2896 93.2922 13.1272L93.2923 13.1258C93.3111 12.8841 93.3284 12.6611 93.3531 12.4309C93.4981 11.356 93.7258 10.3013 94.1812 9.30757C94.3054 9.04392 94.4917 8.88167 94.7609 8.78027C95.8166 8.37464 96.6654 8.6383 97.2243 9.61179C97.6591 10.3622 97.8454 11.1937 97.9489 12.0252C97.9935 12.3455 98.0167 12.6657 98.0416 13.0085Z" fill="#556675"/>
<path d="M44.8909 6.65079C44.953 6.88411 45.01 7.11236 45.0669 7.34061C45.1238 7.56869 45.1807 7.79676 45.2428 8.0299C45.336 7.9792 45.4291 7.92342 45.5223 7.86765L45.5225 7.86751C45.6156 7.81179 45.7087 7.75606 45.8017 7.70541C46.8989 7.0767 48.0789 6.79276 49.3417 6.65079C49.9421 6.58995 50.3768 6.77248 50.7287 7.27951C50.6172 8.30945 50.4935 9.3634 50.3669 10.4414L50.3667 10.4431C50.3288 10.7655 50.2907 11.0901 50.2526 11.4168C49.819 11.3966 49.4009 11.3814 48.9829 11.3663L48.976 11.366H48.9752C48.5574 11.3509 48.1396 11.3357 47.7063 11.3154C47.6028 10.565 47.52 9.83492 47.4372 9.10481C46.8161 9.14536 46.2986 9.3279 45.8224 9.65239V20.3C46.1811 20.3843 46.5299 20.4589 46.8963 20.5373C47.0585 20.572 47.2242 20.6074 47.3958 20.6448C47.3857 20.9016 47.3707 21.1488 47.3556 21.3981C47.3396 21.6607 47.3236 21.9255 47.313 22.2064H40.5435V20.665C41.0197 20.5434 41.4958 20.4217 41.9513 20.3202V9.14536C41.7713 9.12578 41.5957 9.1062 41.4216 9.08661C41.3253 9.07577 41.2294 9.06494 41.1335 9.05411C40.9397 9.03218 40.7458 9.01026 40.548 8.98835L40.3158 8.96284V7.32006C41.4928 7.1279 42.6826 6.96102 43.9057 6.78948L43.9234 6.78699C44.2435 6.7421 44.5659 6.69687 44.8909 6.65079Z" fill="#556675"/>
<path d="M145.563 20.6447C145.521 21.1517 145.5 21.6587 145.48 22.2063C147.778 22.2063 150.013 22.2063 152.332 22.1455C152.353 21.8816 152.368 21.6229 152.384 21.3641C152.399 21.1057 152.415 20.8473 152.435 20.5838C152.227 20.5385 152.025 20.4933 151.828 20.449C151.494 20.3744 151.174 20.3027 150.862 20.239V9.51033C151.38 9.3278 151.897 9.14527 152.456 8.96274C152.494 9.26326 152.53 9.55263 152.565 9.83604L152.565 9.83813C152.624 10.319 152.681 10.7828 152.746 11.2545C153.17 11.2748 153.59 11.29 154.009 11.3052C154.428 11.3204 154.847 11.3356 155.272 11.3559C155.314 10.9878 155.357 10.6224 155.4 10.2601C155.522 9.2251 155.64 8.21528 155.748 7.23884C155.375 6.69125 154.899 6.50873 154.299 6.63041C154.095 6.67148 153.891 6.70746 153.689 6.74326L153.688 6.74337C153.191 6.83127 152.699 6.9181 152.228 7.0766C151.773 7.22525 151.336 7.43694 150.906 7.64567L150.905 7.64597C150.69 7.75038 150.476 7.85405 150.262 7.94868C150.211 7.75899 150.16 7.55456 150.106 7.34024C150.051 7.11916 149.994 6.88754 149.931 6.65069C148.399 6.87379 146.887 7.0766 145.314 7.27941V8.92217C145.82 8.9906 146.283 9.04461 146.726 9.09635C146.808 9.10595 146.889 9.11547 146.97 9.12499V20.2999C146.802 20.3411 146.64 20.3801 146.482 20.4182C146.174 20.4927 145.877 20.5642 145.563 20.6447Z" fill="#556675"/>
<path d="M84.6487 9.36195L84.6464 9.36277C84.4301 9.4409 84.2217 9.51617 84.0168 9.59145V20.2999C84.2841 20.3603 84.5463 20.4157 84.8084 20.4711L84.8192 20.4734C85.0813 20.5288 85.3435 20.5842 85.6108 20.6446C85.6001 20.7814 85.5894 20.9167 85.5786 21.0514C85.5649 21.2235 85.5512 21.3946 85.5375 21.566C85.5205 21.7779 85.5036 21.9904 85.4866 22.2063H78.7172V20.6649L80.1456 20.2999V9.12499C79.9823 9.10721 79.8208 9.08943 79.6601 9.07167C79.5456 9.05902 79.4316 9.04637 79.3176 9.03372L79.3002 9.03179C79.0317 9.00202 78.763 8.97223 78.4895 8.94245V7.29969C80.0007 7.09687 81.4912 6.89406 83.0852 6.67096C83.1473 6.89399 83.2146 7.11701 83.2818 7.34004C83.3491 7.5632 83.4164 7.78636 83.4786 8.00952C83.662 7.91964 83.8388 7.82647 84.0143 7.73398L84.0146 7.73383C84.2745 7.59681 84.5316 7.4613 84.8035 7.34025C85.6315 6.9549 86.5424 6.81293 87.4533 6.67096C88.0536 6.58985 88.5297 6.73182 88.9231 7.2794C88.8751 7.7161 88.8248 8.15949 88.7738 8.60954L88.7728 8.61816L88.7727 8.61908C88.67 9.5246 88.5642 10.4572 88.4676 11.4167C88.0505 11.4068 87.6384 11.3919 87.224 11.377C86.795 11.3615 86.3635 11.3459 85.9214 11.3356C85.8542 10.8225 85.7958 10.3436 85.7348 9.84343C85.7017 9.57257 85.6679 9.29538 85.6315 9.00329C85.2796 9.13406 84.9562 9.25086 84.6487 9.36195Z" fill="#556675"/>
<path d="M36.2169 6.85344V3.70986C35.6841 3.73414 35.1736 3.75841 34.6632 3.78269C34.3207 3.79898 33.9783 3.81527 33.6292 3.83155C33.4589 4.41536 33.2815 4.99917 33.1054 5.57889C32.9817 5.98596 32.8586 6.39101 32.739 6.7926C32.4053 6.81183 32.0855 6.8265 31.7708 6.84093C31.4219 6.85695 31.0793 6.87267 30.731 6.894C30.7199 7.26097 30.7031 7.60497 30.6866 7.94127C30.6721 8.23689 30.6578 8.52658 30.6482 8.82071C30.9177 8.86471 31.1755 8.90491 31.4301 8.94459C31.7622 8.99635 32.0887 9.04724 32.4285 9.10464C32.4492 9.28717 32.4699 9.46971 32.4699 9.65223V18.7787C32.4699 19.083 32.4699 19.3872 32.5113 19.6914C32.6769 21.1516 33.6499 22.1251 35.1197 22.3685C36.0927 22.5307 37.0449 22.4699 37.9972 22.2874C38.4319 22.2062 38.8667 22.1251 39.2807 21.8615C39.2464 21.5703 39.2184 21.2792 39.1898 20.9813C39.1666 20.7396 39.1429 20.4933 39.1151 20.239C38.917 20.239 38.7262 20.2413 38.5402 20.2437C38.1818 20.2481 37.8411 20.2523 37.5004 20.239C36.8586 20.2187 36.4032 19.8131 36.3204 19.1844C36.2997 18.9816 36.2997 18.7787 36.2997 18.5759C36.279 15.554 36.279 12.5321 36.279 9.51026C36.279 9.38424 36.2953 9.2742 36.3134 9.15176L36.3204 9.10464C36.7776 9.05001 37.2229 9.00126 37.6723 8.95207C38.0571 8.90994 38.4449 8.86749 38.846 8.82071C38.8615 8.65818 38.8771 8.49691 38.8926 8.33564C38.9392 7.85298 38.9857 7.37031 39.0323 6.85344H36.2169Z" fill="#556675"/>
</svg>
