<svg width="22" height="22" viewBox="0 0 22 22" fill="#1B2534" xmlns="http://www.w3.org/2000/svg">
<path fill-rule="evenodd" clip-rule="evenodd" d="M14.877 17.7846L17.405 20.3103C17.5581 20.4619 17.8047 20.4619 17.9577 20.3103C18.032 20.2381 18.074 20.1389 18.074 20.0353C18.074 19.9317 18.032 19.8325 17.9577 19.7603L15.4289 17.2314C15.2573 17.4278 15.0729 17.6126 14.877 17.7846Z" fill="#1B2534"/>
<path d="M11.0008 18.4643C13.8214 18.4643 16.108 16.1778 16.108 13.3572C16.108 10.5366 13.8214 8.25 11.0008 8.25C8.18016 8.25 5.89355 10.5366 5.89355 13.3572C5.89682 16.1764 8.18149 18.4611 11.0008 18.4643ZM11.0008 9.03569C11.2177 9.03569 11.3936 9.21156 11.3936 9.42856C11.3936 9.64555 11.2178 9.82142 11.0008 9.82142C10.7838 9.82142 10.6079 9.64555 10.6079 9.42856C10.6079 9.21156 10.7838 9.03569 11.0008 9.03569ZM7.07215 13.75C6.8552 13.75 6.67929 13.5742 6.67929 13.3572C6.68144 11.6503 7.68623 10.1039 9.24506 9.40853C9.37375 9.34807 9.52504 9.36187 9.64067 9.44458C9.7563 9.5273 9.81822 9.66605 9.80258 9.80733C9.78694 9.94865 9.69619 10.0705 9.56526 10.1259C8.28955 10.6949 7.46713 11.9603 7.46502 13.3572C7.46502 13.5741 7.2891 13.75 7.07215 13.75Z" fill="#1B2534"/>
<path d="M2.97066 21.9999H19.0308C19.3625 22.0058 19.6366 21.7423 19.6437 21.4106V10.9998C19.6437 10.7829 19.8195 10.607 20.0365 10.607H20.7279C20.9906 10.6056 21.2246 10.4411 21.3148 10.1945C21.4259 9.9296 21.3615 9.62357 21.153 9.42604L11.4254 0.174154C11.1903 -0.0580512 10.8123 -0.0580512 10.5772 0.174154L0.848801 9.426C0.640057 9.6234 0.575432 9.92947 0.68655 10.1944C0.776828 10.441 1.01088 10.6055 1.27346 10.6069H1.96488C2.18183 10.6069 2.35775 10.7828 2.35775 10.9998V21.4106C2.36488 21.7423 2.63889 22.0058 2.97066 21.9999ZM11.0007 7.46407C13.1702 7.46248 15.1648 8.65415 16.1915 10.5654C17.2182 12.4766 17.1106 14.7976 15.9115 16.6056L18.5099 19.204C18.8071 19.5011 18.9232 19.9342 18.8145 20.3401C18.7058 20.7461 18.3887 21.0632 17.9828 21.172C17.5769 21.2808 17.1438 21.1649 16.8465 20.8677L14.2493 18.2677C12.1466 19.6625 9.38925 19.5638 7.39166 18.0223C5.39407 16.4807 4.59957 13.8385 5.41573 11.4509C6.23188 9.06334 8.47749 7.46029 11.0007 7.46407Z" fill="#1B2534"/>
<path fill-rule="evenodd" clip-rule="evenodd" d="M17.0579 1.17871C16.75 1.17914 16.5004 1.42866 16.5 1.73658V3.91773L19.25 6.53339V1.73658C19.2496 1.42866 19.0001 1.17914 18.6921 1.17871H17.0579Z" fill="#1B2534"/>
</svg>
