<svg width="156" height="27" viewBox="0 0 156 27" fill="none" xmlns="http://www.w3.org/2000/svg">
<path fill-rule="evenodd" clip-rule="evenodd" d="M19.2064 6.27416V1.32602L19.1183 1.23766H1.06122V1.41438C1.6778 1.50274 3.2633 2.73977 3.2633 4.68369V22.0022C3.2633 25.2715 1.58972 25.6249 0.885055 25.9784C0.708888 25.9784 0.708888 26.1551 0.885055 26.1551H9.95763C10.0457 26.1551 10.0457 25.9784 9.95763 25.9784C8.46021 25.1831 7.22705 24.7414 7.22705 21.9138V13.6964H13.481C14.9784 13.6964 16.5639 15.3752 17.1805 16.7006H17.3566V8.8366H17.1805C16.9162 10.3387 15.0665 11.8408 13.481 11.8408H7.31513V3.18157H14.4499C16.5639 3.18157 18.5017 4.86041 19.0302 6.36252C19.0302 6.45088 19.2064 6.45088 19.2064 6.27416ZM64.7454 22.9742L59.7246 14.3149C60.4293 14.1382 61.2221 13.7847 62.1029 13.3429C66.5071 10.6922 65.7143 5.12549 63.4241 3.26993C61.7506 1.94454 60.7816 1.32602 57.5226 1.23766H45.1909V1.32602C47.0407 1.94454 47.7453 2.73977 47.8334 4.59533V22.0022C47.8334 25.2715 46.336 25.1831 45.279 25.9784V26.2435H54.0873V26.0667C52.2376 25.1831 51.7091 24.653 51.7091 22.0022V14.7567H55.849L61.9267 26.2435H67.9164V25.8017C66.8594 25.6249 66.2428 25.4482 64.7454 22.9742ZM56.0252 12.9011H51.621V3.00485H56.5536C62.191 3.00485 62.7195 12.9011 56.0252 12.9011ZM128.165 1.41438C129.927 2.29798 130.544 2.82813 130.544 5.47893V18.2911L116.891 1.23766H111.253V1.41438C113.015 2.29798 113.632 2.82813 113.632 5.47893H113.543V20.9419C113.543 24.2112 112.31 25.1831 111.253 25.9784V26.2435H118.3V26.0667C116.45 25.1831 115.657 24.3879 115.657 21.5604V6.6276L131.512 26.2435H132.569V5.47893C132.569 2.20962 133.891 2.20962 134.948 1.50274V1.23766H128.341V1.41438H128.165ZM103.326 1.41438C105.088 2.29798 105.704 2.82813 105.704 5.47893V19.4398C105.704 22.0906 104.031 24.5646 99.8025 24.5646C95.1341 24.5646 93.4605 21.5604 93.4605 19.3514V5.47893C93.4605 2.20962 94.6937 2.20962 95.7507 1.50274V1.23766H87.0304V1.41438C88.7921 2.29798 89.4087 2.82813 89.4087 5.47893V18.6445C89.4087 21.2953 90.818 26.4202 99.8025 26.4202C106.409 26.4202 108.082 22.0022 108.082 18.5562L107.994 5.39057C107.994 2.12126 109.315 2.12126 110.372 1.41438V1.23766H103.414V1.41438H103.326ZM155.383 19.9699C154.502 22.7974 151.684 24.3879 147.632 24.3879C143.051 24.3879 142.347 22.9742 142.171 21.9138V13.8731H147.808C151.067 13.8731 151.419 15.1985 152.212 16.2588H152.388V9.72019H152.212C151.331 11.399 150.538 12.0175 148.16 12.1059H142.259V2.91649H148.865C150.627 2.91649 153.709 4.77205 154.062 6.36252H154.15V1.23766H135.74V1.41438C137.414 2.20962 138.031 2.73977 138.119 4.59533V22.5324C138.031 24.4763 137.414 25.1831 135.74 25.9784V26.2435H154.414L155.559 19.9699H155.383ZM84.7403 1.23766H68.8853C68.3568 1.1493 67.8283 1.06094 67.7402 0.7075L66.5951 6.80432L66.6832 6.89268C68.7091 3.53501 69.2376 2.91649 74.7869 2.91649V21.8255C74.7869 25.0948 73.1133 25.1831 72.1444 26.0667V26.2435H81.5693V26.0667C80.5123 25.2715 78.9268 25.1831 78.9268 21.8255V2.91649C84.476 2.91649 84.9165 3.53501 87.1185 6.89268V6.80432L85.8854 0.79586C85.7092 1.06094 85.2688 1.1493 84.7403 1.23766ZM32.595 0.619141C25.1079 0.619141 19.1183 6.36252 19.1183 13.5197C19.1183 20.6768 25.1079 26.4202 32.595 26.4202C40.0821 26.4202 46.0717 20.6768 46.0717 13.5197C46.1598 6.36252 40.0821 0.619141 32.595 0.619141ZM32.595 24.8297C27.7504 24.8297 23.7867 19.7048 23.7867 13.5197C23.7867 7.33448 27.7504 2.38634 32.595 2.38634C37.5277 2.38634 41.4033 7.42284 41.4033 13.5197C41.4033 19.7048 37.5277 24.8297 32.595 24.8297Z" fill="#556675"/>
</svg>
