<svg width="18" height="18" viewBox="0 0 18 18" fill="none" xmlns="http://www.w3.org/2000/svg">
<path d="M13.4503 3.5513C13.2525 3.5513 13.0592 3.60995 12.8948 3.71983C12.7303 3.82971 12.6021 3.98589 12.5264 4.16862C12.4508 4.35134 12.431 4.55241 12.4695 4.74639C12.5081 4.94037 12.6034 5.11856 12.7432 5.25841C12.8831 5.39826 13.0613 5.4935 13.2552 5.53209C13.4492 5.57067 13.6503 5.55087 13.833 5.47518C14.0157 5.39949 14.1719 5.27132 14.2818 5.10687C14.3917 4.94242 14.4503 4.74908 14.4503 4.5513C14.4503 4.28609 14.345 4.03173 14.1574 3.8442C13.9699 3.65666 13.7155 3.5513 13.4503 3.5513ZM17.2837 5.56797C17.2675 4.87655 17.138 4.19247 16.9003 3.54297C16.6884 2.98725 16.3586 2.48403 15.9337 2.06797C15.521 1.64082 15.0166 1.31312 14.4587 1.10964C13.8109 0.864769 13.126 0.73231 12.4337 0.717969C11.5503 0.667969 11.267 0.667969 9.00033 0.667969C6.73366 0.667969 6.45033 0.667969 5.56699 0.717969C4.87462 0.73231 4.18978 0.864769 3.54199 1.10964C2.98506 1.31518 2.4811 1.6426 2.06699 2.06797C1.63985 2.48062 1.31214 2.985 1.10866 3.54297C0.863793 4.19075 0.731334 4.8756 0.716992 5.56797C0.666992 6.4513 0.666992 6.73464 0.666992 9.0013C0.666992 11.268 0.666992 11.5513 0.716992 12.4346C0.731334 13.127 0.863793 13.8118 1.10866 14.4596C1.31214 15.0176 1.63985 15.522 2.06699 15.9346C2.4811 16.36 2.98506 16.6874 3.54199 16.893C4.18978 17.1378 4.87462 17.2703 5.56699 17.2846C6.45033 17.3346 6.73366 17.3346 9.00033 17.3346C11.267 17.3346 11.5503 17.3346 12.4337 17.2846C13.126 17.2703 13.8109 17.1378 14.4587 16.893C15.0166 16.6895 15.521 16.3618 15.9337 15.9346C16.3605 15.5201 16.6906 15.0165 16.9003 14.4596C17.138 13.8101 17.2675 13.1261 17.2837 12.4346C17.2837 11.5513 17.3337 11.268 17.3337 9.0013C17.3337 6.73464 17.3337 6.4513 17.2837 5.56797ZM15.7837 12.3346C15.7776 12.8636 15.6818 13.3877 15.5003 13.8846C15.3673 14.2473 15.1536 14.575 14.8753 14.843C14.605 15.1184 14.278 15.3317 13.917 15.468C13.4201 15.6494 12.896 15.7452 12.367 15.7513C11.5337 15.793 11.2253 15.8013 9.03366 15.8013C6.84199 15.8013 6.53366 15.8013 5.70033 15.7513C5.15107 15.7616 4.60415 15.677 4.08366 15.5013C3.73848 15.358 3.42646 15.1453 3.16699 14.8763C2.8904 14.6086 2.67936 14.2806 2.55033 13.918C2.34687 13.4139 2.23403 12.8779 2.21699 12.3346C2.21699 11.5013 2.16699 11.193 2.16699 9.0013C2.16699 6.80964 2.16699 6.5013 2.21699 5.66797C2.22073 5.12718 2.31945 4.59126 2.50866 4.08464C2.65536 3.73289 2.88055 3.41935 3.16699 3.16797C3.42017 2.88144 3.73307 2.65388 4.08366 2.5013C4.59162 2.318 5.12699 2.2222 5.66699 2.21797C6.50033 2.21797 6.80866 2.16797 9.00033 2.16797C11.192 2.16797 11.5003 2.16797 12.3337 2.21797C12.8626 2.22404 13.3867 2.31984 13.8837 2.5013C14.2624 2.64185 14.6022 2.87034 14.8753 3.16797C15.1484 3.42395 15.3618 3.73691 15.5003 4.08464C15.6855 4.59208 15.7814 5.12779 15.7837 5.66797C15.8253 6.5013 15.8337 6.80964 15.8337 9.0013C15.8337 11.193 15.8253 11.5013 15.7837 12.3346ZM9.00033 4.7263C8.15517 4.72795 7.32946 4.98007 6.62754 5.45082C5.92561 5.92156 5.37897 6.5898 5.05669 7.3711C4.7344 8.15239 4.65093 9.01169 4.81682 9.84041C4.98271 10.6691 5.39052 11.4301 5.98872 12.0271C6.58692 12.6242 7.34867 13.0305 8.17771 13.1948C9.00675 13.359 9.86588 13.2739 10.6465 12.9501C11.4272 12.6263 12.0944 12.0783 12.5638 11.3755C13.0331 10.6727 13.2837 9.84646 13.2837 9.0013C13.2848 8.43889 13.1747 7.88181 12.9597 7.3621C12.7447 6.84239 12.4291 6.37031 12.031 5.97301C11.633 5.57571 11.1603 5.26103 10.6402 5.04708C10.12 4.83312 9.56273 4.7241 9.00033 4.7263ZM9.00033 11.7763C8.45148 11.7763 7.91496 11.6136 7.45862 11.3086C7.00227 11.0037 6.64659 10.5703 6.43656 10.0632C6.22653 9.55618 6.17157 8.99822 6.27865 8.45993C6.38572 7.92163 6.65001 7.42717 7.0381 7.03908C7.42619 6.65099 7.92065 6.3867 8.45895 6.27962C8.99725 6.17255 9.55521 6.2275 10.0623 6.43754C10.5693 6.64757 11.0027 7.00325 11.3077 7.45959C11.6126 7.91594 11.7753 8.45246 11.7753 9.0013C11.7753 9.36572 11.7035 9.72657 11.5641 10.0632C11.4246 10.3999 11.2202 10.7058 10.9625 10.9635C10.7049 11.2212 10.399 11.4256 10.0623 11.5651C9.72559 11.7045 9.36474 11.7763 9.00033 11.7763Z" fill="white"/>
</svg>
