<svg width="16" height="16" viewBox="0 0 16 16" fill="none" xmlns="http://www.w3.org/2000/svg">
<path d="M3.39193 2.1675C3.3917 2.60953 3.21589 3.03336 2.90318 3.34577C2.59046 3.65817 2.16645 3.83355 1.72443 3.83333C1.28239 3.83311 0.858561 3.6573 0.546161 3.34458C0.233752 3.03187 0.058369 2.60786 0.058594 2.16583C0.0588106 1.7238 0.234619 1.29997 0.547336 0.987567C0.860052 0.675158 1.28406 0.499775 1.72609 0.5C2.16812 0.500217 2.59195 0.676025 2.90436 0.988742C3.21676 1.30146 3.39214 1.72547 3.39193 2.1675ZM3.44193 5.0675H0.108594V15.5008H3.44193V5.0675ZM8.70858 5.0675H5.39193V15.5008H8.67525V10.0258C8.67525 6.97579 12.6503 6.69246 12.6503 10.0258V15.5008H15.9419V8.89246C15.9419 3.75083 10.0586 3.9425 8.67525 6.46746L8.70858 5.0675Z" fill="white"/>
</svg>
