<svg width="15" height="17" viewBox="0 0 15 17" fill="none" xmlns="http://www.w3.org/2000/svg">
<path fill-rule="evenodd" clip-rule="evenodd" d="M7.20833 6.08398C6.40417 6.08398 5.75 6.73815 5.75 7.54315C5.75 8.34732 6.40417 9.00065 7.20833 9.00065C8.0125 9.00065 8.66667 8.34732 8.66667 7.54315C8.66667 6.73815 8.0125 6.08398 7.20833 6.08398M7.20833 10.2507C5.715 10.2507 4.5 9.03648 4.5 7.54315C4.5 6.04898 5.715 4.83398 7.20833 4.83398C8.70167 4.83398 9.91667 6.04898 9.91667 7.54315C9.91667 9.03648 8.70167 10.2507 7.20833 10.2507" fill="#737680"/>
<mask id="mask0_197_890" style="mask-type:alpha" maskUnits="userSpaceOnUse" x="0" y="0" width="15" height="17">
<path fill-rule="evenodd" clip-rule="evenodd" d="M0.333008 0.666992H14.0826V16.917H0.333008V0.666992Z" fill="white"/>
</mask>
<g mask="url(#mask0_197_890)">
<path fill-rule="evenodd" clip-rule="evenodd" d="M7.20801 1.91699C4.10634 1.91699 1.58301 4.46449 1.58301 7.59449C1.58301 11.577 6.26967 15.457 7.20801 15.6637C8.14634 15.4562 12.833 11.5762 12.833 7.59449C12.833 4.46449 10.3097 1.91699 7.20801 1.91699V1.91699ZM7.20801 16.917C5.71301 16.917 0.333008 12.2903 0.333008 7.59449C0.333008 3.77449 3.41717 0.666992 7.20801 0.666992C10.9988 0.666992 14.083 3.77449 14.083 7.59449C14.083 12.2903 8.70301 16.917 7.20801 16.917V16.917Z" fill="#737680"/>
</g>
</svg>
