<svg width="155" height="28" viewBox="0 0 155 28" fill="none" xmlns="http://www.w3.org/2000/svg">
<path d="M23.0114 9.33061V26.9009H29.755V0.329102H20.4242L14.9954 14.9999L9.52414 0.329102H0.193359V26.9009H6.89455V9.33061L13.5109 26.9009H16.4798L23.0114 9.33061Z" fill="#556675"/>
<path fill-rule="evenodd" clip-rule="evenodd" d="M43.0725 24.9969V26.9443H49.1376V14.9135C49.1376 8.9413 44.8963 7.21024 40.3581 7.21024C37.4741 7.21024 34.2083 8.07577 31.7908 10.1963L33.9963 14.4374C35.5231 13.0958 37.3893 12.3602 39.2554 12.3602C41.6729 12.3602 43.0725 13.4853 43.0725 15.1731V17.0773C41.9274 15.6492 39.722 14.8269 37.2196 14.8269C34.3355 14.8269 30.7305 16.3849 30.7305 21.0587C30.7305 25.3431 34.3355 27.3771 37.2196 27.3771C39.6371 27.3771 41.885 26.425 43.0725 24.9969ZM43.0725 20.2365V21.9675C42.4788 22.8763 41.0367 23.3524 39.722 23.3524C38.1527 23.3524 36.7106 22.6599 36.7106 21.1453C36.7106 19.6306 38.1527 18.8949 39.722 18.8949C41.0367 18.8949 42.4364 19.3277 43.0725 20.2365Z" fill="#556675"/>
<path d="M49.5192 24.3908L52.0215 20.0199C53.4212 21.275 56.4324 22.6165 58.6379 22.6165C60.4193 22.6165 61.1827 22.0972 61.1827 21.275C61.1827 20.4276 59.796 20.1946 58.0098 19.8944C54.7786 19.3512 50.2402 18.5884 50.2402 13.5717C50.2402 10.1961 53.1243 7.25335 58.2986 7.25335C61.522 7.25335 64.1516 8.29199 66.1874 9.80667L63.8971 14.1343C62.7519 13.0091 60.6313 12.0138 58.341 12.0138C56.9414 12.0138 56.0083 12.5764 56.0083 13.3121C56.0083 14.0365 57.2853 14.2559 58.9669 14.5447C62.2076 15.1014 66.9508 15.9162 66.9508 21.1018C66.9508 24.7803 63.8123 27.3769 58.4258 27.3769C54.9904 27.3769 51.5126 26.2085 49.5192 24.3908Z" fill="#556675"/>
<path d="M80.4806 15.6923V26.9009H86.4607V13.2255C86.4607 9.67682 84.5098 7.21008 80.2261 7.21008C77.0451 7.21008 74.8397 8.68147 73.6945 10.0231V0.329102H67.6719V26.8576H73.6945V14.4372C74.4156 13.5717 75.6031 12.5764 77.342 12.5764C79.2506 12.5764 80.4806 13.3553 80.4806 15.6923Z" fill="#556675"/>
<path fill-rule="evenodd" clip-rule="evenodd" d="M99.651 24.9969C98.4634 26.425 96.2156 27.3771 93.798 27.3771C90.914 27.3771 87.3089 25.3431 87.3089 21.0587C87.3089 16.3849 90.914 14.8269 93.798 14.8269C96.3004 14.8269 98.5059 15.6492 99.651 17.0773V15.1731C99.651 13.4853 98.2514 12.3602 95.8338 12.3602C93.9677 12.3602 92.1015 13.0958 90.5747 14.4374L88.3692 10.1963C90.7868 8.07577 94.0525 7.21024 96.9366 7.21024C101.475 7.21024 105.716 8.9413 105.716 14.9135V26.9443H99.651V24.9969ZM99.651 21.9675V20.2365C99.0148 19.3277 97.6152 18.8949 96.3004 18.8949C94.7311 18.8949 93.2891 19.6306 93.2891 21.1453C93.2891 22.6599 94.7311 23.3524 96.3004 23.3524C97.6576 23.3524 99.0572 22.8763 99.651 21.9675Z" fill="#556675"/>
<path fill-rule="evenodd" clip-rule="evenodd" d="M107.752 0.329102V26.9009H113.774V24.6938C115.344 26.5547 117.252 27.4202 119.373 27.4202C124.038 27.4202 127.686 23.8283 127.686 17.2935C127.686 10.9751 124.081 7.21008 119.373 7.21008C117.295 7.21008 115.259 8.03232 113.774 9.9365V0.329102H107.752ZM121.494 17.2935C121.494 20.193 119.712 21.9674 117.337 21.9674C116.065 21.9674 114.496 21.275 113.732 20.2363V14.394C114.496 13.3553 116.065 12.6196 117.337 12.6196C119.712 12.6196 121.494 14.4372 121.494 17.2935Z" fill="#556675"/>
<path d="M134.514 0.329102H128.492V26.9009H134.514V0.329102Z" fill="#556675"/>
<path fill-rule="evenodd" clip-rule="evenodd" d="M145.372 7.16671C139.477 7.16671 135.363 11.6675 135.363 17.2501C135.363 23.5253 139.816 27.3768 145.669 27.3768C148.553 27.3768 151.691 26.5546 153.558 24.8236L150.928 20.7988C149.825 21.8375 147.62 22.4433 146.305 22.4433C143.591 22.4433 142.021 21.0152 141.597 19.2841H155V17.8993C155 11.3645 150.97 7.16671 145.372 7.16671ZM141.512 15.0863C141.724 13.7015 142.742 12.1002 145.372 12.1002C148.129 12.1002 149.104 13.7447 149.274 15.0863H141.512Z" fill="#556675"/>
</svg>
