<svg width="151" height="33" viewBox="0 0 151 33" fill="none" xmlns="http://www.w3.org/2000/svg">
<path d="M0 0.749023H15.333V16.0914H0V0.749023Z" fill="#556675"/>
<path d="M16.8986 0.749023H32.2316V16.0914H16.8986V0.749023Z" fill="#556675"/>
<path d="M143.099 6.01983C141.506 5.58672 139.683 5.66969 138.265 6.59115C137.362 7.18093 136.699 8.11157 136.404 9.12518C136.161 9.92589 136.171 10.7533 136.182 11.5796L136.184 11.7533L136.185 11.8889C136.187 12.1478 136.186 12.4064 136.174 12.6636C135.4 12.6636 134.636 12.6544 133.872 12.6728C133.878 13.2662 133.876 13.8554 133.874 14.4433V14.453C133.873 14.7476 133.872 15.0417 133.872 15.3359C134.023 15.3377 134.174 15.3384 134.325 15.3386C134.505 15.3389 134.685 15.3382 134.865 15.3376L135.174 15.3367L135.404 15.3365L135.565 15.337C135.771 15.3379 135.978 15.3401 136.183 15.3451C136.177 17.8266 136.179 20.3122 136.181 22.7991L136.182 24.0546C136.183 24.8803 136.183 25.706 136.183 26.5317H139.499V15.3359H144.352C144.352 16.1283 144.351 16.9207 144.35 17.7132C144.348 19.2981 144.346 20.8831 144.352 22.468C144.37 23.583 144.554 24.7625 145.291 25.6379C145.926 26.4118 146.93 26.7621 147.906 26.8358C148.929 26.9095 149.988 26.7897 150.936 26.375V23.6567C150.209 24.1451 149.205 24.3385 148.413 23.8963C147.934 23.6291 147.759 23.0762 147.695 22.5694C147.627 22.0043 147.633 21.431 147.639 20.8577C147.641 20.7479 147.642 20.6382 147.642 20.5286C147.643 20.4623 147.643 20.396 147.643 20.3297C147.643 20.2192 147.642 20.1088 147.639 19.9985C147.639 19.4825 147.64 18.9665 147.641 18.4504L147.643 17.7145C147.643 17.4568 147.643 17.1991 147.643 16.9414L147.643 16.5181L147.642 16.0578C147.642 15.8233 147.641 15.5888 147.639 15.3543C148.035 15.3576 148.429 15.355 148.822 15.3524C149.529 15.3477 150.232 15.3431 150.936 15.3727V12.682C150.64 12.6845 150.344 12.685 150.047 12.6847L149.535 12.6838H149.534C148.91 12.6823 148.284 12.6807 147.658 12.6913C147.647 11.896 147.649 11.1037 147.65 10.3127C147.651 9.71982 147.652 9.12761 147.649 8.53541C147.327 8.63368 147.004 8.73356 146.68 8.83372C145.912 9.07146 145.141 9.3102 144.37 9.53066C144.353 10.1871 144.354 10.8436 144.354 11.5L144.355 11.9792C144.354 12.2134 144.354 12.4478 144.352 12.682H139.499C139.504 12.5273 139.505 12.3723 139.505 12.217C139.504 12.0786 139.502 11.9402 139.5 11.8017C139.493 11.2631 139.486 10.7247 139.563 10.194C139.664 9.54902 140.033 8.89482 140.668 8.646C141.46 8.31431 142.353 8.53541 143.108 8.86719C143.102 8.17555 143.105 7.48391 143.103 6.79227C143.103 6.53482 143.102 6.27728 143.099 6.01983Z" fill="#556675"/>
<path d="M67.272 6.78462C67.9443 6.68321 68.6626 6.91358 69.1046 7.43883C69.6203 8.01016 69.7216 8.92235 69.3349 9.5951C68.9112 10.3506 67.9535 10.7009 67.1247 10.5166C66.2683 10.3599 65.5499 9.5582 65.5868 8.66436C65.5592 7.73372 66.3511 6.89513 67.272 6.78462Z" fill="#556675"/>
<path d="M46.6806 7.19928H41.8551C41.8551 13.6495 41.8551 20.0998 41.8643 26.5408H45.023V17.879C45.0263 17.1218 45.0248 16.3634 45.0233 15.6046C45.0206 14.2766 45.018 12.9476 45.0414 11.6223C45.0636 11.6594 45.0858 11.6979 45.108 11.7373C45.1411 11.796 45.1741 11.8566 45.2072 11.9172C45.7807 13.3424 46.3534 14.7684 46.9263 16.1948L46.9344 16.2151C48.3181 19.6603 49.7027 23.1075 51.1009 26.5501C51.4654 26.5417 51.8279 26.5429 52.1894 26.5439C52.6226 26.5453 53.0543 26.5466 53.4861 26.5316C54.5293 23.8641 55.5862 21.2021 56.6434 18.5397L56.6578 18.5035C57.5277 16.3126 58.3976 14.1213 59.2602 11.9264L59.2871 11.8731C59.3011 11.846 59.3151 11.8195 59.3294 11.7932C59.3627 11.7319 59.3973 11.6725 59.4351 11.6131C59.4443 11.8342 59.4536 12.0462 59.4536 12.2581C59.4489 14.6401 59.4489 17.0221 59.4489 19.4029C59.4489 21.7837 59.4489 24.1634 59.4443 26.5408C60.276 26.5546 61.1076 26.5529 61.9392 26.5511H61.9535C62.2314 26.5506 62.5093 26.5501 62.7872 26.5501V7.19928C62.3449 7.19928 61.9025 7.19775 61.4602 7.19622C60.3554 7.19245 59.2506 7.18876 58.1459 7.20846C56.9657 10.1351 55.7752 13.0549 54.5849 15.9741L53.4394 18.7847C53.0708 19.6897 52.7025 20.5949 52.335 21.5005C52.0997 20.9366 51.8775 20.3696 51.6548 19.8012C51.5025 19.4128 51.35 19.0237 51.193 18.6346L48.9349 12.9119C48.1827 11.0084 47.4305 9.10503 46.6806 7.19928Z" fill="#556675"/>
<path d="M76.3982 12.6636C78.0006 12.2028 79.7226 12.2213 81.325 12.682C81.6565 12.7742 81.9697 12.9032 82.2736 13.0782C82.263 13.6842 82.2645 14.2902 82.266 14.8945C82.2672 15.3469 82.2683 15.7983 82.2644 16.2481C81.1961 15.428 79.8424 14.912 78.4794 15.087C77.402 15.1884 76.3706 15.7413 75.7259 16.6167C74.8971 17.6948 74.7037 19.1323 74.8511 20.4592C74.9616 21.4912 75.3852 22.5325 76.1864 23.2143C77.0244 23.9608 78.194 24.2188 79.2898 24.1358C80.3673 24.0069 81.3895 23.5553 82.2644 22.9103C82.2699 23.5109 82.2688 24.1083 82.269 24.7062C82.2691 25.1082 82.2699 25.5104 82.2736 25.9142C80.9198 26.7252 79.2898 26.9278 77.7427 26.8541C76.1588 26.7713 74.5748 26.1723 73.4237 25.0481C72.1712 23.8409 71.499 22.127 71.4161 20.4039C71.3332 18.6163 71.7016 16.7456 72.7238 15.2529C73.5802 13.9905 74.9248 13.0875 76.3982 12.6636Z" fill="#556675"/>
<path d="M117.203 12.94C115.758 12.3871 114.146 12.1936 112.617 12.4609C111.319 12.6913 110.048 13.3639 109.32 14.4881C108.676 15.4464 108.593 16.6904 108.86 17.7961C109.044 18.5426 109.495 19.206 110.103 19.676C110.778 20.1911 111.56 20.529 112.339 20.8654C112.444 20.9106 112.548 20.9557 112.652 21.0012C112.758 21.0473 112.863 21.0937 112.967 21.141L113.057 21.1845C113.547 21.4195 114.057 21.6649 114.413 22.0902C114.818 22.6799 114.689 23.6474 114.017 23.9792C113.308 24.3201 112.479 24.3109 111.724 24.1912C110.628 24.0069 109.606 23.5369 108.713 22.8918C108.707 23.1982 108.705 23.5046 108.704 23.811C108.704 23.926 108.704 24.0408 108.704 24.1557C108.704 24.3452 108.705 24.5347 108.705 24.7242C108.706 25.1824 108.707 25.6405 108.703 26.0986C109.763 26.5685 110.923 26.7989 112.074 26.8726C113.695 26.9371 115.463 26.6146 116.688 25.4719C117.977 24.3385 118.281 22.3206 117.553 20.8002C117.167 19.9892 116.421 19.4272 115.656 18.994C115.212 18.7338 114.736 18.5366 114.262 18.3398L114.261 18.3393C113.694 18.1043 113.128 17.8698 112.617 17.529C112.065 17.1787 111.917 16.4139 112.138 15.8334C112.424 15.2437 113.105 14.9857 113.722 14.958C114.947 14.9212 116.19 15.2897 117.203 15.9901V12.94Z" fill="#556675"/>
<path d="M89.6776 12.8939C90.5893 12.341 91.7588 12.295 92.7534 12.6359C92.7473 13.3731 92.7493 14.1103 92.7513 14.8475C92.7524 15.216 92.7534 15.5846 92.7534 15.9532C92.0996 15.5293 91.28 15.345 90.5156 15.428C89.5763 15.5386 88.8304 16.2573 88.4436 17.0866C88.02 17.962 87.9463 18.9572 87.9739 19.9155V26.5501H84.7047V12.6912C85.7899 12.6727 86.8842 12.682 87.9695 12.6912H87.9739C87.9678 13.2195 87.9698 13.7478 87.9719 14.2761C87.9729 14.5403 87.9739 14.8044 87.9739 15.0685C88.3239 14.2024 88.8488 13.3638 89.6776 12.8939Z" fill="#556675"/>
<path d="M66.8315 12.6789H66.8305C66.6207 12.6799 66.411 12.6809 66.2016 12.6816L65.8907 12.682V26.5501H69.1783C69.1829 24.2417 69.1829 21.9312 69.1829 19.6206C69.1829 17.31 69.1829 14.9995 69.1875 12.6912C68.4046 12.6715 67.617 12.6752 66.8315 12.6789Z" fill="#556675"/>
<path fill-rule="evenodd" clip-rule="evenodd" d="M103.602 12.9953C102.128 12.3226 100.452 12.2305 98.859 12.4332C97.1922 12.6359 95.5622 13.4284 94.5031 14.7738C93.5362 15.9624 93.0665 17.4921 92.9744 19.0125C92.8455 20.8001 93.1402 22.6984 94.19 24.1911C95.0833 25.4811 96.4923 26.3658 98.021 26.6883C99.301 26.9555 100.636 26.9555 101.907 26.6883C103.39 26.3842 104.79 25.5549 105.711 24.3385C106.613 23.1959 107.064 21.7492 107.166 20.3025C107.267 18.8189 107.119 17.2893 106.503 15.9256C105.922 14.6447 104.882 13.5758 103.602 12.9953ZM102.625 15.9993C101.907 15.2806 100.848 14.9949 99.8536 15.0594C99.0616 15.1054 98.2604 15.3727 97.6526 15.9256C96.8422 16.6628 96.4738 17.7501 96.3726 18.819C96.262 19.9892 96.3449 21.224 96.8791 22.2929C97.2935 23.1222 98.0578 23.7672 98.9603 24.0069C99.8444 24.2372 100.811 24.2188 101.668 23.8871C102.404 23.6014 102.985 22.9932 103.298 22.2837C103.777 21.224 103.823 20.0353 103.767 18.8927C103.685 17.8515 103.39 16.7549 102.625 15.9993Z" fill="#556675"/>
<path fill-rule="evenodd" clip-rule="evenodd" d="M125.298 12.4239C126.956 12.2213 128.706 12.3318 130.216 13.0967C131.533 13.7509 132.555 14.9488 133.061 16.3218C133.457 17.3722 133.596 18.5149 133.577 19.6298C133.577 21.3069 133.126 23.0208 132.076 24.3569C131.091 25.647 129.59 26.4763 127.996 26.7435C126.44 26.9924 124.801 26.9278 123.327 26.3473C121.836 25.7576 120.592 24.5596 119.957 23.0761C119.303 21.5649 119.229 19.8694 119.432 18.2569C119.644 16.6443 120.381 15.0685 121.624 13.9997C122.646 13.1058 123.963 12.599 125.298 12.4239ZM126.191 15.0686C127.131 15.0041 128.125 15.216 128.844 15.8519C129.507 16.4048 129.875 17.2249 130.041 18.0634C130.234 19.0401 130.225 20.0446 130.068 21.0305C129.94 21.7584 129.691 22.4864 129.212 23.0669C128.733 23.6474 128.015 23.9977 127.278 24.1082C126.486 24.228 125.648 24.1727 124.902 23.8502C124.101 23.5092 123.484 22.8181 123.152 22.0165C122.756 21.0673 122.683 20.0077 122.756 18.994C122.83 18.0082 123.106 16.9945 123.76 16.2296C124.359 15.5109 125.271 15.1147 126.191 15.0686Z" fill="#556675"/>
<path d="M0 17.6579H15.333V33.0003H0V17.6579Z" fill="#556675"/>
<path d="M32.2316 17.6579H16.8986V33.0003H32.2316V17.6579Z" fill="#556675"/>
</svg>
