<svg width="19" height="22" viewBox="0 0 19 22" fill="none" xmlns="http://www.w3.org/2000/svg">
<mask id="mask0_195_1467" style="mask-type:alpha" maskUnits="userSpaceOnUse" x="0" y="0" width="19" height="18">
<path fill-rule="evenodd" clip-rule="evenodd" d="M0.500122 0H18.997V17.348H0.500122V0Z" fill="white"/>
</mask>
<g mask="url(#mask0_195_1467)">
<path fill-rule="evenodd" clip-rule="evenodd" d="M9.74622 1.5C6.25122 1.5 3.81522 4.238 3.81522 6.695C3.81522 8.774 3.23822 9.735 2.72822 10.583C2.31922 11.264 1.99622 11.802 1.99622 12.971C2.16322 14.857 3.40822 15.848 9.74622 15.848C16.0492 15.848 17.3332 14.813 17.4992 12.906C17.4962 11.802 17.1732 11.264 16.7642 10.583C16.2542 9.735 15.6772 8.774 15.6772 6.695C15.6772 4.238 13.2412 1.5 9.74622 1.5M9.74714 17.348C5.07114 17.348 0.845135 17.018 0.500135 13.035C0.497135 11.387 1.00014 10.549 1.44414 9.811C1.89314 9.063 2.31614 8.358 2.31614 6.695C2.31614 3.462 5.30213 0 9.74714 0C14.1921 0 17.1781 3.462 17.1781 6.695C17.1781 8.358 17.6011 9.063 18.0501 9.811C18.4941 10.549 18.9971 11.387 18.9971 12.971C18.6481 17.018 14.4231 17.348 9.74714 17.348" fill="white"/>
</g>
<path fill-rule="evenodd" clip-rule="evenodd" d="M9.69717 21.5006H9.69517C8.57417 21.4996 7.51317 21.0056 6.70817 20.1086C6.43117 19.8016 6.45617 19.3266 6.76417 19.0506C7.07217 18.7726 7.54617 18.7976 7.82317 19.1066C8.34117 19.6836 9.00617 20.0006 9.69617 20.0006H9.69717C10.3902 20.0006 11.0582 19.6836 11.5772 19.1056C11.8552 18.7986 12.3292 18.7736 12.6362 19.0506C12.9442 19.3276 12.9692 19.8026 12.6922 20.1096C11.8842 21.0066 10.8212 21.5006 9.69717 21.5006" fill="white"/>
</svg>
