<svg xmlns="http://www.w3.org/2000/svg" xmlns:xlink="http://www.w3.org/1999/xlink" width="22" height="22" viewBox="0 0 22 22">
  <defs>
    <clipPath id="clip-path">
      <rect id="Rectangle_233" data-name="Rectangle 233" width="22" height="22" transform="translate(1527 14)" fill="#fff" stroke="#f5f5f5" stroke-width="1"/>
    </clipPath>
  </defs>
  <g id="phone-icon" transform="translate(-1527 -14)" clip-path="url(#clip-path)">
    <g id="phone-call" transform="translate(1527 14)">
      <g id="Group_934" data-name="Group 934">
        <path id="Path_60520" data-name="Path 60520" d="M20.561,15.651a15.572,15.572,0,0,1-4.925-1.285,1.568,1.568,0,0,0-2.049.715L12.518,17.2A19.843,19.843,0,0,1,4.8,9.48l2.12-1.067a1.569,1.569,0,0,0,.718-2.049A15.459,15.459,0,0,1,6.349,1.439,1.565,1.565,0,0,0,4.793,0H.786A.786.786,0,0,0,0,.786,21.173,21.173,0,0,0,2.073,9.958a21.4,21.4,0,0,0,9.972,9.971A21.158,21.158,0,0,0,21.214,22,.786.786,0,0,0,22,21.214V17.207A1.564,1.564,0,0,0,20.561,15.651Z" fill="#fff"/>
      </g>
    </g>
  </g>
</svg>
