<svg width="12" height="20" viewBox="0 0 12 20" fill="none" xmlns="http://www.w3.org/2000/svg">
<path d="M11.4639 13.7074C11.4755 12.1252 10.85 10.8738 9.60242 9.99009C8.63884 9.30968 7.46947 8.95476 6.33845 8.6137C3.98237 7.89943 3.2989 7.52321 3.2989 6.3965C3.2989 5.14147 4.92991 4.69493 6.32618 4.69493C7.34304 4.69493 8.51294 5.01109 9.23948 5.47964L10.6799 3.24887C9.73033 2.6333 8.43076 2.21343 7.14747 2.0831V0H4.49039V2.22918C2.12847 2.74876 0.640583 4.29246 0.640583 6.3965C0.640583 7.87005 1.25291 9.03865 2.45708 9.86289C3.37294 10.4921 4.48992 10.83 5.5689 11.1572C7.87991 11.8557 8.81836 12.2813 8.80768 13.691L8.80762 13.7014C8.80762 14.8845 7.23968 15.3051 5.89639 15.3051C4.6275 15.3051 3.24763 14.749 2.46546 13.9222L0.535156 15.7481C1.52571 16.7957 2.96486 17.5364 4.49033 17.8267V20.0001H7.14747V17.8735C9.77204 17.4978 11.4613 15.9177 11.4639 13.7074Z" fill="#1B2534"/>
</svg>
