<svg width="22" height="22" viewBox="0 0 22 22" fill="none" xmlns="http://www.w3.org/2000/svg">
<path d="M2.97066 21.9999H19.0308C19.3625 22.0058 19.6366 21.7423 19.6437 21.4106V10.9998C19.6437 10.7829 19.8195 10.607 20.0365 10.607H20.7279C20.9906 10.6056 21.2246 10.4411 21.3148 10.1945C21.4259 9.9296 21.3615 9.62357 21.153 9.42604L11.4254 0.174154C11.1903 -0.0580512 10.8123 -0.0580512 10.5772 0.174154L0.848801 9.426C0.640057 9.6234 0.575432 9.92947 0.68655 10.1944C0.776828 10.441 1.01088 10.6055 1.27346 10.6069H1.96488C2.18183 10.6069 2.35775 10.7828 2.35775 10.9998V21.4106C2.36488 21.7423 2.63889 22.0058 2.97066 21.9999ZM4.00049 15C6.17 14.9984 3.97378 14.5888 5.00049 16.5C6.02719 18.4112 7.19958 17.692 6.00049 19.5L9.00049 20.5C9.29771 20.7971 13.7832 20.4618 13.6745 20.8677C13.5658 21.2737 16.9064 21.3912 16.5005 21.5C16.0946 21.6088 17.2977 21.7971 17.0005 21.5L14.2493 18.2677C12.1466 19.6625 9.38925 19.5638 7.39166 18.0223C5.39407 16.4807 4.59957 13.8385 5.41573 11.4509C6.23188 9.06334 1.47726 14.9962 4.00049 15Z" fill="white"/>
<path fill-rule="evenodd" clip-rule="evenodd" d="M17.0579 1.17871C16.75 1.17914 16.5004 1.42866 16.5 1.73658V3.91773L19.25 6.53339V1.73658C19.2496 1.42866 19.0001 1.17914 18.6921 1.17871H17.0579Z" fill="white"/>
<path d="M10.3367 16.0398C10.0978 16.0398 9.90465 15.8466 9.90465 15.6077C9.90465 15.0426 9.98481 14.5544 10.1443 14.144C10.2614 13.8345 10.4513 13.5227 10.7127 13.2077C10.9051 12.9784 11.2498 12.6433 11.7484 12.2041C12.247 11.764 12.5708 11.4137 12.7207 11.1523C12.8706 10.891 12.9444 10.6056 12.9444 10.2962C12.9444 9.7359 12.7255 9.24451 12.2886 8.82046C11.8518 8.39641 11.3155 8.18478 10.6806 8.18478C10.0674 8.18478 9.55515 8.37717 9.14472 8.76114C8.84492 9.0417 8.61967 9.4377 8.47057 9.94913C8.36796 10.3002 8.02567 10.5247 7.66254 10.4814C7.20242 10.4269 6.89941 9.97157 7.03087 9.52668C7.23288 8.8429 7.57116 8.2922 8.04491 7.87376C8.70303 7.29098 9.57358 7 10.6566 7C11.8029 7 12.7175 7.31183 13.4005 7.93628C14.0834 8.56074 14.4241 9.31505 14.4241 10.2C14.4241 10.7123 14.3039 11.1844 14.0642 11.6157C13.8245 12.0477 13.3548 12.5728 12.6566 13.1916C12.1876 13.6077 11.8806 13.9147 11.7363 14.1119C11.592 14.3091 11.4854 14.5359 11.4165 14.7917C11.3652 14.9816 11.3299 15.2606 11.3107 15.6269C11.2987 15.8578 11.1071 16.039 10.8762 16.039H10.3367V16.0398ZM9.82449 18.1079C9.82449 17.655 10.1916 17.2879 10.6445 17.2879C11.0974 17.2879 11.4646 17.655 11.4646 18.1079C11.4646 18.5608 11.0974 18.928 10.6445 18.928C10.1916 18.928 9.82449 18.5608 9.82449 18.1079Z" fill="#1B2534"/>
</svg>
