<svg id="Component_10_1" data-name="Component 10 – 1" xmlns="http://www.w3.org/2000/svg" width="32" height="32" viewBox="0 0 32 32">
  <circle id="Ellipse_76" data-name="Ellipse 76" cx="16" cy="16" r="16" fill="#d2d2d2"/>
  <path id="Path_69387" data-name="Path 69387" d="M224.7,0a16.158,16.158,0,0,0-2.087.135,16,16,0,0,1,0,31.729A16.16,16.16,0,0,0,224.7,32a16,16,0,0,0,0-32Z" transform="translate(-208.695)" fill="#c4c4c4"/>
  <g id="Group_1299" data-name="Group 1299" transform="translate(4.923 4.348)">
    <path id="Path_69388" data-name="Path 69388" d="M100.525,85.351a6,6,0,0,1-4.317-3.581.575.575,0,0,1,.273-.733l1.429-.707a1.439,1.439,0,0,0-1.042-2.671l-1.043.3V75.188c0-.009,0-.019,0-.028-.261-4.891-4.609-5.511-5.943-5.585H89.82c-1.33.072-5.686.689-5.948,5.585q0,.014,0,.028v2.777l-1.043-.3a1.439,1.439,0,0,0-1.042,2.672l1.429.707a.575.575,0,0,1,.273.733,6,6,0,0,1-4.317,3.581.522.522,0,0,0-.393.591c.012.076.323,1.788,2.969,1.916a4.53,4.53,0,0,0,.518,1.331.521.521,0,0,0,.582.166,5.405,5.405,0,0,1,2.424-.227,5.011,5.011,0,0,1,2.211,1.106,3.051,3.051,0,0,0,1.393.8,4.105,4.105,0,0,0,1.945,0,3.052,3.052,0,0,0,1.393-.8,5.055,5.055,0,0,1,2.206-1.105,5.458,5.458,0,0,1,2.429.226.522.522,0,0,0,.582-.166,4.528,4.528,0,0,0,.518-1.331c2.646-.128,2.957-1.839,2.969-1.916A.521.521,0,0,0,100.525,85.351Zm-2.978,1.47a.523.523,0,0,0-.515.4c-.086.368-.2.753-.289,1.014a6.128,6.128,0,0,0-2.522-.134,6.056,6.056,0,0,0-2.74,1.386,2.011,2.011,0,0,1-.912.533,3.063,3.063,0,0,1-1.442,0,2.009,2.009,0,0,1-.912-.533,5.427,5.427,0,0,0-5.261-1.252c-.092-.263-.2-.647-.289-1.014a.518.518,0,0,0-.515-.4,2.673,2.673,0,0,1-2.095-.635,6.969,6.969,0,0,0,4.4-4.019,1.622,1.622,0,0,0-.775-2.065L82.25,79.4a.4.4,0,0,1-.149-.581.4.4,0,0,1,.435-.153l1.711.5a.522.522,0,0,0,.668-.5V75.2c.215-3.88,3.5-4.5,4.933-4.584,1.436.084,4.719.7,4.933,4.584V78.66a.522.522,0,0,0,.668.5l1.711-.5a.4.4,0,0,1,.435.153.4.4,0,0,1-.149.582l-1.429.707a1.622,1.622,0,0,0-.775,2.065,6.969,6.969,0,0,0,4.4,4.02A2.686,2.686,0,0,1,97.547,86.822Z" transform="translate(-78.771 -69.574)" fill="#1a1718"/>
    <path id="Path_69389" data-name="Path 69389" d="M96.23,97.958a3.551,3.551,0,0,1-.855-.1,2.565,2.565,0,0,1-1.169-.676,5.563,5.563,0,0,0-2.462-1.238,4.19,4.19,0,0,0-.771-.068,6.306,6.306,0,0,0-1.5.2l-.274.069a.248.248,0,0,1-.294-.158l-.093-.266c-.1-.284-.214-.682-.3-1.044h-.068a3.135,3.135,0,0,1-2.413-.813l-.4-.431a.182.182,0,0,1,.077-.3l.561-.182a6.435,6.435,0,0,0,4.056-3.7,1.063,1.063,0,0,0-.507-1.354l-1.429-.707a.952.952,0,0,1,.689-1.768l.877.256a.617.617,0,0,0,.79-.592v-2.62a4.935,4.935,0,0,1,2.266-4.155,6.778,6.778,0,0,1,3.19-.953l.032,0,.032,0a6.778,6.778,0,0,1,3.19.953,4.935,4.935,0,0,1,2.267,4.155v2.62a.617.617,0,0,0,.79.592l.877-.256a.952.952,0,0,1,1.115,1.348.984.984,0,0,1-.447.43l-1.408.7a1.063,1.063,0,0,0-.507,1.354,6.435,6.435,0,0,0,4.057,3.7l.562.182a.181.181,0,0,1,.076.3l-.4.431a3.149,3.149,0,0,1-2.419.812h-.062c-.086.361-.2.758-.3,1.044l-.093.267a.248.248,0,0,1-.294.159l-.274-.069a6.309,6.309,0,0,0-1.5-.2,4.223,4.223,0,0,0-.781.069,5.556,5.556,0,0,0-2.453,1.236,2.566,2.566,0,0,1-1.169.676A3.554,3.554,0,0,1,96.23,97.958Z" transform="translate(-85.153 -76.867)" fill="#1a1718"/>
  </g>
</svg>
