<svg width="15" height="15" viewBox="0 0 15 15" fill="none" xmlns="http://www.w3.org/2000/svg">
<path d="M11.9485 1.22647H11.9985V1.17647V0.371324C11.9985 0.192731 12.1419 0.05 12.3162 0.05H14.6287C14.8069 0.05 14.95 0.193056 14.95 0.371324V2.68337C14.9466 2.85864 14.8029 3.00147 14.6287 3.00147H13.8235H13.7735V3.05147V11.9485V11.9985H13.8235H14.6287C14.8073 11.9985 14.95 12.1419 14.95 12.3162V14.6282C14.9466 14.8075 14.8026 14.95 14.6287 14.95H12.3166C12.1414 14.9466 11.9985 14.8029 11.9985 14.6287V13.8235V13.7735H11.9485H3.05147H3.00147V13.8235V14.6287C3.00147 14.8073 2.85809 14.95 2.68382 14.95H0.371753C0.192513 14.9466 0.05 14.8026 0.05 14.6287V12.3166C0.0534217 12.1414 0.19705 11.9985 0.371324 11.9985H1.17647H1.22647V11.9485V3.05147V3.00147H1.17647H0.371324C0.192731 3.00147 0.05 2.85809 0.05 2.68382V0.371785C0.0534273 0.192529 0.197354 0.05 0.371324 0.05H2.68335C2.85863 0.0534217 3.00147 0.19705 3.00147 0.371324V1.17647V1.22647H3.05147H11.9485ZM0.685294 2.31618V2.36618H0.735294H2.31618H2.36618V2.31618V0.735294V0.685294H2.31618H0.735294H0.685294V0.735294V2.31618ZM2.31618 14.3147H2.36618V14.2647V12.6838V12.6338H2.31618H0.735294H0.685294V12.6838V14.2647V14.3147H0.735294H2.31618ZM11.9485 13.1382H11.9985V13.0882V12.3162C11.9985 12.1416 12.1416 11.9985 12.3162 11.9985H13.0882H13.1382V11.9485V3.05147V3.00147H13.0882H12.3162C12.1416 3.00147 11.9985 2.85842 11.9985 2.68382V1.91176V1.86176H11.9485H3.05147H3.00147V1.91176V2.68382C3.00147 2.85842 2.85842 3.00147 2.68382 3.00147H1.91176H1.86176V3.05147V11.9485V11.9985H1.91176H2.68382C2.85842 11.9985 3.00147 12.1416 3.00147 12.3162V13.0882V13.1382H3.05147H11.9485ZM14.3147 12.6838V12.6338H14.2647H12.6838H12.6338V12.6838V14.2647V14.3147H12.6838H14.2647H14.3147V14.2647V12.6838ZM12.6338 2.31618V2.36618H12.6838H14.2647H14.3147V2.31618V0.735294V0.685294H14.2647H12.6838H12.6338V0.735294V2.31618Z" fill="#47566D" stroke="white" stroke-width="0.1"/>
</svg>
