<svg width="18" height="14" viewBox="0 0 18 14" fill="none" xmlns="http://www.w3.org/2000/svg">
<path d="M17.4927 1.73329C16.8565 2.0147 16.1818 2.19952 15.491 2.28162C16.2192 1.84615 16.7641 1.1608 17.0243 0.353292C16.341 0.759958 15.5918 1.04496 14.811 1.19912C14.2865 0.637941 13.5913 0.265761 12.8335 0.140446C12.0756 0.0151303 11.2976 0.143701 10.6204 0.506169C9.94317 0.868638 9.40467 1.44469 9.08859 2.14478C8.77254 2.84488 8.69663 3.62977 8.87267 4.37746C7.48693 4.308 6.13128 3.94789 4.89374 3.32051C3.6562 2.69312 2.56444 1.8125 1.68934 0.735792C1.37958 1.26783 1.2168 1.87265 1.21767 2.48829C1.21767 3.69662 1.83267 4.76412 2.76767 5.38912C2.21434 5.37171 1.67319 5.22227 1.18934 4.95329V4.99662C1.1895 5.80137 1.46798 6.58131 1.97754 7.20417C2.48711 7.82704 3.1964 8.25453 3.98517 8.41413C3.47151 8.55333 2.93293 8.57383 2.41017 8.47408C2.63256 9.16683 3.06601 9.77258 3.64983 10.2067C4.23365 10.6408 4.93861 10.8814 5.666 10.8949C4.94307 11.4627 4.11532 11.8824 3.23007 12.1301C2.34482 12.3777 1.41944 12.4485 0.506836 12.3383C2.09992 13.3628 3.95442 13.9067 5.8485 13.9049C12.2593 13.9049 15.7652 8.59417 15.7652 3.98829C15.7652 3.83829 15.761 3.68663 15.7543 3.53829C16.4368 3.0451 17.0257 2.43414 17.4935 1.73412L17.4927 1.73329Z" fill="white"/>
</svg>
