<svg width="14" height="12" viewBox="0 0 14 12" fill="none" xmlns="http://www.w3.org/2000/svg">
<path d="M0.152726 3.89389C0.00758663 4.05117 0.0174381 4.2963 0.174716 4.44145L0.152726 3.89389ZM0.152726 3.89389L0.152727 3.89389C1.01654 2.95778 2.04139 2.22049 3.19899 1.70234M0.152726 3.89389L3.19899 1.70234M3.19899 1.70234C4.39772 1.16581 5.67645 0.89375 7.00002 0.89375M3.19899 1.70234L7.00002 0.89375M7.00002 0.89375C8.32358 0.89375 9.60232 1.16581 10.801 1.70234M7.00002 0.89375L10.801 1.70234M10.801 1.70234C11.9586 2.22049 12.9835 2.95778 13.8473 3.89389M10.801 1.70234L13.8473 3.89389M13.8473 3.89389C13.9924 4.05117 13.9826 4.29634 13.8253 4.44145M13.8473 3.89389L13.8253 4.44145M13.8253 4.44145C13.7508 4.5102 13.6566 4.54416 13.5626 4.54416M13.8253 4.44145L13.5626 4.54416M13.5626 4.54416C13.4581 4.54416 13.3541 4.50224 13.2777 4.41946M13.5626 4.54416L13.2777 4.41946M13.2777 4.41946C11.6646 2.67132 9.37654 1.66875 7.00002 1.66875M13.2777 4.41946L7.00002 1.66875M7.00002 1.66875C4.62349 1.66875 2.33542 2.67133 0.722307 4.41946L7.00002 1.66875ZM7.1225 10.2092V10.2091C7.12246 10.1423 7.06697 10.0867 7.00002 10.0867C6.93311 10.0867 6.87753 10.1423 6.87753 10.2092C6.87753 10.2761 6.93313 10.3316 7.00002 10.3316C7.06691 10.3316 7.1225 10.2761 7.1225 10.2092ZM11.8336 6.43266C11.6737 6.57488 11.4288 6.56051 11.2865 6.40057C10.1982 5.17667 8.63591 4.47474 7.00002 4.47477C5.36412 4.47477 3.80178 5.1767 2.71351 6.4006C2.63697 6.48669 2.53068 6.53061 2.42377 6.53061C2.33213 6.53061 2.24031 6.49835 2.16644 6.43269C2.0065 6.29048 1.99213 6.04555 2.13435 5.88561C3.36956 4.49646 5.14304 3.69974 7.00002 3.69974C8.85696 3.69974 10.6305 4.49643 11.8657 5.88561L11.9031 5.85239L11.8657 5.88561C12.0079 6.04553 11.9935 6.29045 11.8336 6.43266ZM9.58602 8.52096C9.47253 8.52096 9.36029 8.47144 9.28375 8.3762C8.72423 7.68008 7.89173 7.2807 7.00002 7.28073C6.10833 7.28073 5.27583 7.68008 4.71629 8.3762C4.58221 8.543 4.3383 8.56956 4.17149 8.43546C4.00466 8.30136 3.97815 8.05745 4.11222 7.89066C4.81978 7.01041 5.87219 6.5057 7.00002 6.5057C8.12784 6.5057 9.18028 7.01041 9.88778 7.89066C10.0219 8.05748 9.99531 8.30139 9.82852 8.43546C9.75691 8.49301 9.67124 8.52096 9.58602 8.52096ZM7.00002 9.31169C7.49483 9.31169 7.8975 9.71433 7.8975 10.2092C7.8975 10.704 7.49486 11.1066 7.00002 11.1066C6.50517 11.1066 6.10253 10.704 6.10253 10.2092C6.10253 9.71436 6.50517 9.31169 7.00002 9.31169Z" fill="#47566D" stroke="white" stroke-width="0.1"/>
</svg>
