<svg id="Component_8_1" data-name="Component 8 – 1" xmlns="http://www.w3.org/2000/svg" width="32" height="32" viewBox="0 0 32 32">
  <circle id="Ellipse_74" data-name="Ellipse 74" cx="16" cy="16" r="16" fill="#d2d2d2"/>
  <path id="Path_69380" data-name="Path 69380" d="M224.7,0a16.158,16.158,0,0,0-2.087.135,16,16,0,0,1,0,31.729A16.159,16.159,0,0,0,224.7,32a16,16,0,0,0,0-32Z" transform="translate(-208.695)" fill="#c4c4c4"/>
  <path id="Path_69381" data-name="Path 69381" d="M78.124,128.941a89.988,89.988,0,0,1-10.092-.569,1.406,1.406,0,0,1-1.235-1.191,50.617,50.617,0,0,1,0-14.632,1.406,1.406,0,0,1,1.235-1.191,89.776,89.776,0,0,1,20.184,0,1.406,1.406,0,0,1,1.235,1.191,50.618,50.618,0,0,1,0,14.632,1.406,1.406,0,0,1-1.235,1.191A90,90,0,0,1,78.124,128.941Z" transform="translate(-62.124 -103.866)" fill="#1a1718"/>
  <path id="Path_69382" data-name="Path 69382" d="M200.256,182.428l8.155,4.283a.317.317,0,0,1,0,.561l-8.155,4.283a.317.317,0,0,1-.464-.281v-8.566A.317.317,0,0,1,200.256,182.428Z" transform="translate(-187.305 -170.992)" fill="#d2d2d2"/>
</svg>
