<svg width="976" height="170" viewBox="0 0 976 170" fill="none" xmlns="http://www.w3.org/2000/svg">
<path d="M856.914 127.431C856.899 128.269 856.556 129.067 855.959 129.654C855.361 130.241 854.557 130.57 853.719 130.57C852.882 130.57 852.078 130.241 851.48 129.654C850.883 129.067 850.54 128.269 850.525 127.431C850.517 127.007 850.595 126.585 850.752 126.191C850.909 125.797 851.143 125.438 851.44 125.136C851.738 124.833 852.093 124.592 852.484 124.428C852.875 124.264 853.295 124.18 853.719 124.18C854.144 124.18 854.564 124.264 854.955 124.428C855.347 124.592 855.701 124.833 855.999 125.136C856.296 125.438 856.53 125.797 856.687 126.191C856.844 126.585 856.922 127.007 856.914 127.431Z" fill="white"/>
<path d="M890.732 119.743C889.332 127.172 882.992 130.808 876.653 130.86C869.329 130.96 861.953 126.133 861.953 116.366C861.953 106.652 869.227 101.873 876.553 101.873C882.943 101.873 889.332 105.561 890.735 113.042H885.487C884.971 111.096 883.813 109.38 882.202 108.174C880.59 106.967 878.618 106.339 876.605 106.392C871.878 106.392 867.046 109.665 867.046 116.366C867.046 123.12 871.826 126.393 876.656 126.393C878.663 126.445 880.628 125.815 882.231 124.608C883.835 123.4 884.982 121.686 885.487 119.743H890.732Z" fill="white"/>
<path d="M910.261 130.964C902.728 130.964 895.195 126.081 895.195 116.419C895.195 106.704 902.78 101.873 910.416 101.873C918.001 101.873 925.482 106.756 925.482 116.419C925.482 126.133 917.9 130.964 910.261 130.964ZM910.261 126.393C915.351 126.445 920.442 123.068 920.442 116.419C920.442 109.77 915.403 106.392 910.416 106.392C905.326 106.392 900.287 109.717 900.287 116.419C900.287 123.016 905.274 126.341 910.261 126.393Z" fill="white"/>
<path d="M938.2 101.872V105.82C939.062 104.534 940.243 103.493 941.628 102.801C943.013 102.109 944.554 101.789 946.1 101.872C950.047 101.872 953.581 102.807 955.658 106.755C957.373 103.638 960.541 101.924 964.646 101.872C972.386 101.872 975.763 107.327 975.763 114.443V130.443H970.671V114.499C970.671 110.551 969.685 106.599 964.801 106.599C959.814 106.599 957.32 110.028 957.32 114.599V130.444H952.229V114.651C952.229 110.703 950.723 106.599 946.048 106.599C941.58 106.599 938.203 109.664 938.203 115.171V130.444H933.113V101.872H938.2Z" fill="white"/>
<path d="M0.236328 125.491C6.36966 116.696 12.5029 107.9 18.6362 99.1044C36.0909 73.9464 53.544 48.7871 70.9954 23.6264C72.8724 20.9264 75.0543 18.4424 77.0063 15.9694H18.4001V37.5864H1.46826V0.191406H101.091C101.091 3.03941 100.953 5.87141 101.13 8.68341C101.29 11.3306 100.491 13.9468 98.8801 16.0534C76.0068 48.9574 53.1826 81.8947 30.4072 114.865C28.7942 117.192 26.8484 119.287 25.0583 121.491C24.7853 121.827 24.5173 122.166 24.2583 122.484H85.9053V100.119H102.872V138.373H0.236328V125.491Z" fill="#C8A45D"/>
<path d="M547.758 88.6696C547.621 76.7152 551.707 65.0958 559.296 55.8579C566.885 46.6201 577.49 40.3563 589.243 38.1697C607.475 34.5977 624.137 38.2337 638.193 50.8027C649.818 61.2027 655.201 74.6026 654.623 90.0696C653.844 110.885 643.954 126.237 625.197 135.404C603.397 146.056 576.307 140.686 560.388 122.781C551.776 113.1 547.858 101.564 547.758 88.6696ZM599.727 124.241C609.685 124.171 617.221 121.515 623.485 115.825C637.557 103.042 639.336 81.0616 627.65 65.9916C614.45 48.9666 587.088 49.2557 574.321 66.5747C568.03 75.1087 566.172 84.6627 567.693 95.0637C570.15 111.877 584.311 124.26 599.727 124.241Z" fill="white"/>
<path d="M379.986 77.5248C380.119 71.9798 380.054 66.5448 377.271 61.5898C373.96 55.6978 368.471 53.4218 362.098 52.9208C351.131 52.0588 341.308 55.4988 332.138 61.2139C331.606 61.5459 331.082 61.8898 330.438 62.3038C327.896 57.8088 325.393 53.3808 322.685 48.5908C325.941 46.7818 329.009 44.7908 332.3 43.2988C346.09 37.0298 360.443 35.1378 375.2 38.9988C387.962 42.3388 395.377 51.0198 397.843 63.8368C398.584 67.9416 398.955 72.1047 398.95 76.2758C399.082 90.3148 398.999 104.355 399.002 118.395C399.002 122.742 400.13 123.875 404.448 123.881C407.333 123.886 410.218 123.881 413.198 123.881V138.447C412.746 138.479 412.252 138.547 411.758 138.547C405.667 138.553 399.575 138.594 393.484 138.521C391.805 138.509 390.134 138.298 388.505 137.894C386.398 137.483 384.508 136.33 383.178 134.645C381.848 132.96 381.165 130.855 381.254 128.71C381.207 125.888 381.481 123.062 381.618 120.086C381.307 120.632 381.008 121.138 380.726 121.653C368.968 143.148 344.874 144.923 329.492 135.739C320.029 130.089 315.87 121.378 316.003 110.504C316.163 97.4708 323.351 89.3728 334.64 84.2488C342.421 80.8723 350.733 78.8836 359.2 78.3728C365.61 77.8658 372.058 77.8538 378.488 77.6198C378.939 77.6008 379.389 77.5628 379.986 77.5248ZM380.186 90.1098C379.91 90.0349 379.627 89.986 379.341 89.9638C372.748 90.2848 366.129 90.3638 359.568 91.0198C353.65 91.4906 347.92 93.3168 342.82 96.3569C337.153 99.8679 334.431 104.945 335.329 111.611C336.206 118.123 339.754 122.816 346.021 124.971C349.586 126.282 353.434 126.627 357.175 125.969C360.916 125.312 364.417 123.677 367.321 121.23C377.286 113.352 380.631 102.562 380.185 90.1098H380.186Z" fill="white"/>
<path d="M296.453 90.5986H224.101C224.236 95.8822 225.502 101.075 227.815 105.828C234.306 118.6 245.092 124.259 259.09 124.182C269.19 124.126 278.069 120.369 286.144 114.505C286.697 114.105 287.244 113.692 287.938 113.177C290.438 117.606 292.908 121.915 295.258 126.288C295.442 126.632 294.938 127.635 294.486 127.988C287.435 133.523 279.207 137.365 270.436 139.215C256.594 142.182 243.151 141.091 230.587 134.225C216.179 126.352 207.932 113.925 205.398 97.8506C203.257 84.2636 205.169 71.1886 212.451 59.3146C220.358 46.4206 232.168 39.3546 247.057 37.3926C256.007 36.2136 264.798 36.9176 273.117 40.7026C284.872 46.0496 291.717 55.5136 295.084 67.6826C297.194 75.1319 297.662 82.9508 296.453 90.5986ZM224.81 78.3376H277.53C277.353 76.6056 277.265 74.9936 277.011 73.4066C276.082 67.6066 274.011 62.2746 269.621 58.2176C261.733 50.9306 252.535 50.4036 243.03 54.0776C232.131 58.2906 227.016 67.1746 224.81 78.3376Z" fill="white"/>
<path d="M827.051 68.7401H810.458C810.458 66.9401 810.378 65.1601 810.475 63.3901C810.667 59.8781 809.04 57.3791 806.224 55.5531C802.075 52.8631 797.396 52.1601 792.579 52.1921C789.029 52.1328 785.508 52.8549 782.267 54.3071C774.159 58.1291 772.833 67.4351 779.93 72.8931C783.254 75.3012 786.878 77.2648 790.71 78.7341C797.769 81.6481 805.055 84.0081 812.133 86.8791C817.081 88.7948 821.515 91.8345 825.086 95.7581C834.207 106.028 832.638 122.712 821.818 131.47C815.031 136.964 807.084 139.391 798.599 140.314C788.417 141.56 778.086 140.198 768.574 136.356C764.732 134.848 761.213 132.62 758.206 129.792C756.471 128.241 755.071 126.35 754.094 124.238C753.116 122.125 752.581 119.834 752.522 117.507C752.46 113.869 752.51 110.229 752.51 106.501H769.1C769.1 108.13 769.18 109.729 769.085 111.318C768.799 116.128 771.102 119.378 775.155 121.597C778.867 123.537 782.938 124.69 787.115 124.987C792.882 125.529 798.597 125.342 804.027 122.987C809.327 120.687 812.091 116.687 811.808 111.787C811.778 110.09 811.324 108.427 810.488 106.949C809.651 105.472 808.459 104.227 807.019 103.327C803.463 101.172 799.749 99.2885 795.908 97.6931C788.708 94.6581 781.324 92.0681 774.16 88.9591C769.107 86.8296 764.661 83.4816 761.218 79.2141C752.883 68.7551 755.112 52.6141 765.956 44.7271C772.052 40.4236 779.199 37.8494 786.639 37.2771C797.166 36.2211 807.385 37.4391 816.884 42.3881C819.156 43.6603 821.249 45.2279 823.109 47.0501C824.276 48.1112 825.221 49.3928 825.891 50.8209C826.56 52.249 826.94 53.7954 827.009 55.3711C827.2 59.7571 827.051 64.1591 827.051 68.7401Z" fill="white"/>
<path d="M508.562 53.8917C508.493 54.4847 508.43 54.7667 508.431 55.0497C508.471 71.1787 508.355 87.3107 508.636 103.436C508.757 110.336 511.299 116.387 517.581 120.168C521.293 122.258 525.518 123.263 529.774 123.068C531.106 123.058 532.438 123.068 533.91 123.068V139.087C530.847 139.087 527.793 139.166 524.745 139.07C518.401 138.988 512.157 137.488 506.468 134.681C496.8 129.744 491.81 121.481 490.158 111.036C489.678 107.825 489.441 104.582 489.451 101.336C489.38 86.3087 489.419 71.2807 489.419 56.2527V53.9877H472.885V39.2467H489.747V12.1367H508.42V39.1907H532.014V53.8907L508.562 53.8917Z" fill="white"/>
<path d="M121.844 53.9277V39.4707C122.021 39.3707 122.118 39.2707 122.216 39.2707C130.393 39.3107 138.584 39.0957 146.744 39.4897C153.544 39.8177 156.691 43.4827 156.827 50.3307C156.901 54.0967 156.71 57.8677 156.632 61.6367C156.585 62.3114 156.606 62.9892 156.695 63.6597C160.495 53.3597 166.395 44.9227 176.77 40.4077C181.879 38.1909 187.527 37.5236 193.013 38.4887V57.2157C188.072 56.2293 182.956 56.605 178.213 58.3027C170.744 61.0627 165.913 66.5917 162.532 73.5427C158.858 81.0927 157.486 89.1677 157.432 97.4927C157.379 105.732 157.416 113.972 157.422 122.212C157.422 122.662 157.504 123.112 157.56 123.687H172.011V138.26H123.617V123.76H138.441V121.654C138.441 100.88 138.441 80.1074 138.441 59.3347C138.441 55.0767 137.327 53.9457 133.103 53.9277C129.401 53.9157 125.691 53.9277 121.844 53.9277Z" fill="white"/>
<path d="M720.052 138.287H671.645V123.812H686.381C686.418 123.031 686.471 122.424 686.471 121.812C686.475 100.923 686.475 80.0339 686.471 59.1439C686.471 55.1309 685.305 53.9539 681.292 53.9299C677.53 53.9069 673.768 53.9249 669.792 53.9249V39.5059C670.064 39.3629 670.163 39.2639 670.261 39.2649C678.381 39.3009 686.515 39.0649 694.617 39.4739C701.645 39.8289 704.745 43.4869 704.873 50.5179C704.952 54.8619 704.888 59.2089 704.888 63.3449C711.169 47.1279 721.872 36.7509 741.045 38.2869V57.2109C735.405 56.0572 729.544 56.7225 724.306 59.111C716.648 62.722 712.184 69.1439 709.165 76.7419C706.606 83.4829 705.348 90.6475 705.455 97.8569C705.426 105.923 705.445 113.988 705.455 122.057C705.455 122.564 705.524 123.071 705.571 123.699H720.053L720.052 138.287Z" fill="white"/>
<path d="M429.5 14.7295H413.155V0.1875H448.455V2.5195C448.455 37.5615 448.468 72.6028 448.492 107.643C448.464 110.539 448.757 113.429 449.367 116.26C450.374 120.653 453.378 122.86 457.894 123.033C459.971 123.112 462.052 123.046 464.259 123.046C464.259 126.146 464.271 129.201 464.259 132.257C464.249 133.997 464.259 135.743 464.107 137.473C464.045 137.736 463.918 137.98 463.737 138.182C463.556 138.383 463.328 138.536 463.072 138.627C457.921 139.012 452.772 139.261 447.652 138.184C437.376 136.02 432.029 129.253 430.318 119.312C429.769 115.879 429.508 112.406 429.539 108.93C429.481 78.3555 429.47 47.7812 429.505 17.2065L429.5 14.7295Z" fill="white"/>
<path d="M102.873 154.035H0.236328V169.811H102.873V154.035Z" fill="#C8A45D"/>
</svg>
