<svg width="94" height="20" viewBox="0 0 94 20" fill="none" xmlns="http://www.w3.org/2000/svg">
<path d="M29.1186 15V4.81818H35.4325V6.14062H30.6548V9.2429H34.9801V10.5604H30.6548V15H29.1186ZM39.3974 15.169C38.9135 15.169 38.476 15.0795 38.0849 14.9006C37.6938 14.7183 37.3839 14.4548 37.1552 14.1101C36.9298 13.7654 36.8171 13.3428 36.8171 12.8423C36.8171 12.4115 36.9 12.0568 37.0657 11.7784C37.2314 11.5 37.4551 11.2796 37.7369 11.1172C38.0186 10.9548 38.3335 10.8321 38.6815 10.7493C39.0295 10.6664 39.3841 10.6035 39.7454 10.5604C40.2028 10.5073 40.574 10.4643 40.859 10.4311C41.1441 10.3946 41.3512 10.3366 41.4805 10.2571C41.6097 10.1776 41.6744 10.0483 41.6744 9.86932V9.83452C41.6744 9.40033 41.5517 9.06392 41.3065 8.82528C41.0645 8.58665 40.7032 8.46733 40.2227 8.46733C39.7222 8.46733 39.3278 8.57836 39.0394 8.80043C38.7544 9.01918 38.5572 9.26278 38.4478 9.53125L37.0508 9.21307C37.2165 8.74905 37.4585 8.37453 37.7766 8.08949C38.0981 7.80114 38.4677 7.59233 38.8853 7.46307C39.3029 7.33049 39.7421 7.2642 40.2028 7.2642C40.5077 7.2642 40.8308 7.30066 41.1722 7.37358C41.5169 7.44318 41.8384 7.57244 42.1367 7.76136C42.4383 7.95028 42.6853 8.22041 42.8775 8.57173C43.0697 8.91974 43.1658 9.37216 43.1658 9.92898V15H41.7141V13.956H41.6545C41.5584 14.1482 41.4142 14.3371 41.2219 14.5227C41.0297 14.7083 40.7828 14.8625 40.4812 14.9851C40.1796 15.1077 39.8183 15.169 39.3974 15.169ZM39.7205 13.9759C40.1315 13.9759 40.4828 13.8946 40.7745 13.7322C41.0695 13.5698 41.2932 13.3577 41.4457 13.0959C41.6014 12.8307 41.6793 12.5473 41.6793 12.2457V11.2614C41.6263 11.3144 41.5236 11.3641 41.3711 11.4105C41.2219 11.4536 41.0513 11.4917 40.859 11.5249C40.6668 11.5547 40.4795 11.5829 40.2972 11.6094C40.1149 11.6326 39.9625 11.6525 39.8398 11.669C39.5515 11.7055 39.288 11.7668 39.0494 11.853C38.814 11.9392 38.6251 12.0634 38.4826 12.2259C38.3434 12.3849 38.2738 12.5971 38.2738 12.8622C38.2738 13.2301 38.4097 13.5085 38.6815 13.6974C38.9532 13.883 39.2996 13.9759 39.7205 13.9759ZM48.3624 15.1541C47.6233 15.1541 46.9869 14.9867 46.4533 14.652C45.923 14.3139 45.5153 13.8482 45.2303 13.255C44.9453 12.6617 44.8027 11.9822 44.8027 11.2166C44.8027 10.4411 44.9486 9.75663 45.2402 9.16335C45.5319 8.56676 45.9429 8.10109 46.4732 7.76633C47.0035 7.43158 47.6283 7.2642 48.3475 7.2642C48.9275 7.2642 49.4445 7.37192 49.8986 7.58736C50.3527 7.79948 50.7189 8.09777 50.9973 8.48224C51.2791 8.86671 51.4464 9.31581 51.4995 9.82955H50.0527C49.9732 9.47159 49.7909 9.16335 49.5059 8.90483C49.2241 8.64631 48.8463 8.51705 48.3723 8.51705C47.958 8.51705 47.5951 8.62642 47.2836 8.84517C46.9753 9.06061 46.735 9.36884 46.5627 9.76989C46.3903 10.1676 46.3042 10.6383 46.3042 11.1818C46.3042 11.7386 46.3887 12.2192 46.5577 12.6236C46.7267 13.0279 46.9654 13.3411 47.2736 13.5632C47.5852 13.7853 47.9514 13.8963 48.3723 13.8963C48.6541 13.8963 48.9093 13.8449 49.138 13.7422C49.37 13.6361 49.5639 13.4853 49.7196 13.2898C49.8787 13.0942 49.9898 12.8589 50.0527 12.5838H51.4995C51.4464 13.0777 51.2857 13.5185 51.0172 13.9062C50.7488 14.294 50.3891 14.599 49.9384 14.821C49.4909 15.0431 48.9656 15.1541 48.3624 15.1541ZM56.3803 15.1541C55.628 15.1541 54.98 14.9934 54.4364 14.6719C53.8962 14.3471 53.4786 13.8913 53.1836 13.3047C52.8919 12.7147 52.7461 12.0237 52.7461 11.2315C52.7461 10.4493 52.8919 9.75994 53.1836 9.16335C53.4786 8.56676 53.8896 8.10109 54.4165 7.76633C54.9469 7.43158 55.5666 7.2642 56.2759 7.2642C56.7068 7.2642 57.1244 7.33546 57.5288 7.47798C57.9331 7.6205 58.296 7.84422 58.6175 8.14915C58.939 8.45407 59.1926 8.85014 59.3782 9.33736C59.5638 9.82126 59.6566 10.4096 59.6566 11.1023V11.6293H53.5863V10.5156H58.1999C58.1999 10.1245 58.1204 9.77817 57.9613 9.47656C57.8022 9.17164 57.5785 8.93134 57.2901 8.75568C57.0051 8.58002 56.6703 8.49219 56.2859 8.49219C55.8683 8.49219 55.5037 8.59493 55.1921 8.80043C54.8839 9.0026 54.6452 9.26776 54.4762 9.59588C54.3105 9.92069 54.2276 10.2737 54.2276 10.6548V11.5249C54.2276 12.0353 54.3171 12.4695 54.4961 12.8274C54.6784 13.1854 54.9319 13.4588 55.2567 13.6477C55.5816 13.8333 55.9611 13.9261 56.3952 13.9261C56.677 13.9261 56.9338 13.8864 57.1658 13.8068C57.3978 13.724 57.5984 13.6013 57.7674 13.4389C57.9364 13.2765 58.0657 13.076 58.1552 12.8374L59.5621 13.0909C59.4495 13.5052 59.2473 13.8681 58.9556 14.1797C58.6673 14.4879 58.3043 14.7282 57.8668 14.9006C57.4326 15.0696 56.9371 15.1541 56.3803 15.1541ZM61.4252 15V4.81818H62.9118V8.60156H63.0012C63.0874 8.44247 63.2117 8.25852 63.3741 8.04972C63.5365 7.84091 63.7619 7.65862 64.0502 7.50284C64.3386 7.34375 64.7198 7.2642 65.1937 7.2642C65.8102 7.2642 66.3604 7.41998 66.8443 7.73153C67.3282 8.04309 67.7077 8.49219 67.9828 9.07884C68.2612 9.66548 68.4004 10.3714 68.4004 11.1967C68.4004 12.022 68.2628 12.7296 67.9877 13.3196C67.7127 13.9062 67.3348 14.3587 66.8542 14.6768C66.3736 14.9917 65.8251 15.1491 65.2086 15.1491C64.7446 15.1491 64.3651 15.0713 64.0701 14.9155C63.7785 14.7597 63.5498 14.5774 63.3841 14.3686C63.2183 14.1598 63.0907 13.9742 63.0012 13.8118H62.877V15H61.4252ZM62.8819 11.1818C62.8819 11.7187 62.9598 12.1894 63.1156 12.5938C63.2714 12.9981 63.4967 13.3146 63.7917 13.5433C64.0867 13.7687 64.448 13.8814 64.8755 13.8814C65.3197 13.8814 65.6909 13.7637 65.9892 13.5284C66.2875 13.2898 66.5128 12.9666 66.6653 12.5589C66.8211 12.1513 66.899 11.6922 66.899 11.1818C66.899 10.678 66.8227 10.2256 66.6703 9.82457C66.5211 9.42353 66.2958 9.10701 65.9941 8.875C65.6958 8.64299 65.323 8.52699 64.8755 8.52699C64.4447 8.52699 64.0801 8.63802 63.7818 8.86009C63.4868 9.08215 63.2631 9.39205 63.1106 9.78977C62.9582 10.1875 62.8819 10.6515 62.8819 11.1818ZM73.2862 15.1541C72.5703 15.1541 71.9455 14.9901 71.4119 14.6619C70.8783 14.3338 70.464 13.8748 70.169 13.2848C69.8741 12.6948 69.7266 12.0054 69.7266 11.2166C69.7266 10.4245 69.8741 9.73177 70.169 9.13849C70.464 8.54522 70.8783 8.08452 71.4119 7.75639C71.9455 7.42827 72.5703 7.2642 73.2862 7.2642C74.0021 7.2642 74.6269 7.42827 75.1605 7.75639C75.6941 8.08452 76.1084 8.54522 76.4034 9.13849C76.6984 9.73177 76.8459 10.4245 76.8459 11.2166C76.8459 12.0054 76.6984 12.6948 76.4034 13.2848C76.1084 13.8748 75.6941 14.3338 75.1605 14.6619C74.6269 14.9901 74.0021 15.1541 73.2862 15.1541ZM73.2912 13.9062C73.7552 13.9062 74.1397 13.7836 74.4446 13.5384C74.7495 13.2931 74.9749 12.9666 75.1207 12.5589C75.2699 12.1513 75.3445 11.7022 75.3445 11.2116C75.3445 10.7244 75.2699 10.277 75.1207 9.86932C74.9749 9.45833 74.7495 9.12855 74.4446 8.87997C74.1397 8.63139 73.7552 8.5071 73.2912 8.5071C72.8239 8.5071 72.4361 8.63139 72.1278 8.87997C71.8229 9.12855 71.5959 9.45833 71.4467 9.86932C71.3009 10.277 71.228 10.7244 71.228 11.2116C71.228 11.7022 71.3009 12.1513 71.4467 12.5589C71.5959 12.9666 71.8229 13.2931 72.1278 13.5384C72.4361 13.7836 72.8239 13.9062 73.2912 13.9062ZM81.7218 15.1541C81.0059 15.1541 80.3811 14.9901 79.8475 14.6619C79.3139 14.3338 78.8996 13.8748 78.6046 13.2848C78.3096 12.6948 78.1621 12.0054 78.1621 11.2166C78.1621 10.4245 78.3096 9.73177 78.6046 9.13849C78.8996 8.54522 79.3139 8.08452 79.8475 7.75639C80.3811 7.42827 81.0059 7.2642 81.7218 7.2642C82.4377 7.2642 83.0624 7.42827 83.5961 7.75639C84.1297 8.08452 84.544 8.54522 84.839 9.13849C85.1339 9.73177 85.2814 10.4245 85.2814 11.2166C85.2814 12.0054 85.1339 12.6948 84.839 13.2848C84.544 13.8748 84.1297 14.3338 83.5961 14.6619C83.0624 14.9901 82.4377 15.1541 81.7218 15.1541ZM81.7267 13.9062C82.1908 13.9062 82.5752 13.7836 82.8801 13.5384C83.1851 13.2931 83.4105 12.9666 83.5563 12.5589C83.7054 12.1513 83.78 11.7022 83.78 11.2116C83.78 10.7244 83.7054 10.277 83.5563 9.86932C83.4105 9.45833 83.1851 9.12855 82.8801 8.87997C82.5752 8.63139 82.1908 8.5071 81.7267 8.5071C81.2594 8.5071 80.8716 8.63139 80.5634 8.87997C80.2585 9.12855 80.0314 9.45833 79.8823 9.86932C79.7364 10.277 79.6635 10.7244 79.6635 11.2116C79.6635 11.7022 79.7364 12.1513 79.8823 12.5589C80.0314 12.9666 80.2585 13.2931 80.5634 13.5384C80.8716 13.7836 81.2594 13.9062 81.7267 13.9062ZM88.3079 12.4098L88.2979 10.5952H88.5565L91.5991 7.36364H93.3789L89.9087 11.0426H89.6751L88.3079 12.4098ZM86.9407 15V4.81818H88.4272V15H86.9407ZM91.7631 15L89.0288 11.3707L90.0529 10.3317L93.5877 15H91.7631Z" fill="#152C5B"/>
<path d="M19.5 10C19.5 14.7418 16.0258 18.6721 11.4844 19.3846V12.7461H13.6979L14.1191 10H11.4844V8.21801C11.4844 7.46654 11.8525 6.73438 13.0326 6.73438H14.2305V4.39648C14.2305 4.39648 13.1432 4.21094 12.1037 4.21094C9.93395 4.21094 8.51562 5.52609 8.51562 7.90703V10H6.10352V12.7461H8.51562V19.3846C3.97418 18.6721 0.5 14.7418 0.5 10C0.5 4.75348 4.75348 0.5 10 0.5C15.2465 0.5 19.5 4.75348 19.5 10Z" fill="#1877F2"/>
<path d="M13.6979 12.7461L14.1191 10H11.4844V8.21797C11.4844 7.46669 11.8524 6.73438 13.0325 6.73438H14.2305V4.39648C14.2305 4.39648 13.1433 4.21094 12.1039 4.21094C9.93391 4.21094 8.51562 5.52609 8.51562 7.90703V10H6.10352V12.7461H8.51562V19.3846C8.99931 19.4604 9.49502 19.5 10 19.5C10.505 19.5 11.0007 19.4604 11.4844 19.3846V12.7461H13.6979Z" fill="white"/>
</svg>
