<svg xmlns="http://www.w3.org/2000/svg" width="439.804" height="389.883" viewBox="0 0 439.804 389.883">
  <g id="Group_20456" data-name="Group 20456" transform="translate(-215.165 -206.214)">
    <g id="Background_Simple" data-name="Background Simple" transform="translate(176.5 154.5)">
      <g id="Group_1" data-name="Group 1">
        <path id="Path_1" data-name="Path 1" d="M38.888,267.6s3.638,74.584,66.629,122.456S254.71,438.873,324.525,441.48s122.726-38.6,129.808-98.669S407.837,266.8,377.8,199.574,349.96,109.887,288.092,69.861s-157.14-11.4-206.127,61.883S38.888,267.6,38.888,267.6Z" fill="#220054"/>
        <path id="Path_2" data-name="Path 2" d="M38.888,267.6s3.638,74.584,66.629,122.456S254.71,438.873,324.525,441.48s122.726-38.6,129.808-98.669S407.837,266.8,377.8,199.574,349.96,109.887,288.092,69.861s-157.14-11.4-206.127,61.883S38.888,267.6,38.888,267.6Z" fill="#fff" opacity="0.7"/>
      </g>
    </g>
    <g id="Plants" transform="translate(176.5 154.5)">
      <g id="Group_2" data-name="Group 2">
        <path id="Path_3" data-name="Path 3" d="M420.729,372.863s-3.4-14.458-.851-27.215,8.505-4.252,15.309-12.757,3.4-24.664,11.056-31.468,18.71-5.953,21.262-18.71,4.252-22.963,9.355-21.262-4.252,17.01-4.252,26.365,5.1,15.308,1.7,24.664-17.86,5.953-17.86,17.009,5.953,22.112.85,29.767-18.71,9.355-20.411,13.607-5.954,11.907-10.206,11.907S420.729,372.863,420.729,372.863Z" fill="#bfbfbf"/>
        <path id="Path_4" data-name="Path 4" d="M417.962,373.014c.851-2.552-.85-24.664-8.505-28.917s-16.159-2.551-20.411-10.2-4.252-11.056-8.505-11.907-24.663-4.252-22.112,0,17.86-2.551,17.86,5.953-1.7,22.113,3.4,25.515,18.71,2.551,17.86,10.2-3.4,10.206.85,12.757,16.159,13.608,17.86,5.1Z" fill="#bfbfbf"/>
        <path id="Path_5" data-name="Path 5" d="M427.427,391.766s-3.962-12.381,6.933-35.162,18.819-40.115,23.772-49.029" fill="none" stroke="#263238" stroke-miterlimit="10" stroke-width="1.257"/>
        <path id="Path_6" data-name="Path 6" d="M418.512,393.747s-1.485-5.943-6.438-22.286-10.9-20.8-19.314-26.248-8.915-14.362-10.4-16.838" fill="none" stroke="#263238" stroke-miterlimit="10" stroke-width="1.257"/>
        <path id="Path_7" data-name="Path 7" d="M439.312,384.833s.991-8.915,8.915-11.391,15.352-1.486,16.838-6.934,1.486-10.895,4.953-13.866,7.923-4.458,8.419-2.972-4.953,2.477-4.953,7.429,7.429,17.333-3.466,22.286-19.81.495-23.772,3.962-6.438,5.943-6.438,5.943Z" fill="#bfbfbf"/>
        <path id="Path_8" data-name="Path 8" d="M438.322,393.747s3.467-12.876,11.886-15.848,17.829,3.467,21.79-2.476.991-11.886.5-15.848" fill="none" stroke="#263238" stroke-miterlimit="10" stroke-width="1.257"/>
        <path id="Path_9" data-name="Path 9" d="M443.893,391.766H413.188a2.476,2.476,0,0,0-2.476,2.476h0a2.476,2.476,0,0,0,2.476,2.476h.248l2.391,6.271a2.568,2.568,0,0,0,2.4,1.653h20.628a2.568,2.568,0,0,0,2.4-1.653l2.391-6.271h.247a2.476,2.476,0,0,0,2.477-2.476h0A2.476,2.476,0,0,0,443.893,391.766Z" fill="#263238"/>
      </g>
    </g>
    <g id="Text" transform="translate(176.5 154.5)">
      <g id="Group_6" data-name="Group 6">
        <g id="Group_4" data-name="Group 4">
          <rect id="Rectangle_1" data-name="Rectangle 1" width="156.345" height="28.04" rx="4.734" transform="translate(302.599 250.736)" fill="#220054"/>
          <g id="Group_3" data-name="Group 3">
            <path id="Path_10" data-name="Path 10" d="M314.675,268.614a.649.649,0,0,1-.217-.519v-9.1a.65.65,0,0,1,.224-.523.784.784,0,0,1,.526-.191.769.769,0,0,1,.52.187.663.663,0,0,1,.217.527v9.1a.644.644,0,0,1-.221.523.8.8,0,0,1-.53.184A.765.765,0,0,1,314.675,268.614Z" fill="#263238"/>
            <path id="Path_11" data-name="Path 11" d="M318.735,268.643a.585.585,0,0,1-.191-.467v-6.052a.563.563,0,0,1,.2-.46.708.708,0,0,1,.471-.166.721.721,0,0,1,.467.158.542.542,0,0,1,.2.446v.64a2.079,2.079,0,0,1,.917-1.031,2.965,2.965,0,0,1,1.484-.36,2.645,2.645,0,0,1,1.936.707,2.875,2.875,0,0,1,.721,2.142v3.976a.579.579,0,0,1-.195.467.741.741,0,0,1-.935,0,.579.579,0,0,1-.195-.467v-3.991a2.1,2.1,0,0,0-.438-1.435,1.563,1.563,0,0,0-1.233-.494,1.905,1.905,0,0,0-1.428.6,2.456,2.456,0,0,0-.634,1.642v3.674a.573.573,0,0,1-.2.464.716.716,0,0,1-.475.169A.683.683,0,0,1,318.735,268.643Z" fill="#263238"/>
            <path id="Path_12" data-name="Path 12" d="M328.122,268.363a2.444,2.444,0,0,1-.5-1.689v-4.241h-.9a.531.531,0,0,1-.372-.118.406.406,0,0,1-.129-.316.418.418,0,0,1,.125-.313.507.507,0,0,1,.368-.122h.906l.176-2.091a.571.571,0,0,1,.21-.4.642.642,0,0,1,.431-.169.52.52,0,0,1,.368.136.511.511,0,0,1,.147.394v2.135h1.355a.489.489,0,0,1,.365.125.447.447,0,0,1,.121.324q0,.42-.486.42h-1.355v4.013a2.115,2.115,0,0,0,.214,1.093.744.744,0,0,0,.677.335h.081l.5-.022h.044a.488.488,0,0,1,.383.155.521.521,0,0,1,.14.36.5.5,0,0,1-.081.3.449.449,0,0,1-.247.166,1.553,1.553,0,0,1-.331.066c-.111.01-.254.015-.431.015h-.434A1.735,1.735,0,0,1,328.122,268.363Z" fill="#263238"/>
            <path id="Path_13" data-name="Path 13" d="M333.865,268.485a3.267,3.267,0,0,1-1.3-1.321,4.139,4.139,0,0,1-.483-2.036,4.273,4.273,0,0,1,.4-1.87,3.328,3.328,0,0,1,1.223-1.377,3.425,3.425,0,0,1,1.906-.53,3.7,3.7,0,0,1,1.51.287,2.573,2.573,0,0,1,1.031.791,3.616,3.616,0,0,1,.574,1.127,5.15,5.15,0,0,1,.213,1.366.531.531,0,0,1-.117.353.439.439,0,0,1-.354.14h-5.051a2.621,2.621,0,0,0,.678,1.918,2.376,2.376,0,0,0,1.7.666,2.842,2.842,0,0,0,1.178-.235,5.448,5.448,0,0,0,1.052-.641.449.449,0,0,1,.28-.1.383.383,0,0,1,.3.136.467.467,0,0,1,.122.32.553.553,0,0,1-.206.42,4.061,4.061,0,0,1-2.813,1.046A3.838,3.838,0,0,1,333.865,268.485Zm3.917-3.887a2.958,2.958,0,0,0-.582-1.686,1.8,1.8,0,0,0-1.509-.656,2.167,2.167,0,0,0-.935.2,1.925,1.925,0,0,0-.688.534,2.744,2.744,0,0,0-.427.744,3.02,3.02,0,0,0-.195.865Z" fill="#263238"/>
            <path id="Path_14" data-name="Path 14" d="M340.985,268.647a.564.564,0,0,1-.192-.456v-6.074a.546.546,0,0,1,.2-.453.733.733,0,0,1,.471-.159.717.717,0,0,1,.468.159.532.532,0,0,1,.2.438l-.007.883a2.191,2.191,0,0,1,.74-1.145,2.03,2.03,0,0,1,1.336-.46.444.444,0,0,1,.372.177.66.66,0,0,1,.136.412.592.592,0,0,1-.125.379.433.433,0,0,1-.361.159,2.169,2.169,0,0,0-1.543.515,1.8,1.8,0,0,0-.548,1.377v3.792a.55.55,0,0,1-.2.456.741.741,0,0,1-.475.162A.693.693,0,0,1,340.985,268.647Z" fill="#263238"/>
            <path id="Path_15" data-name="Path 15" d="M346.33,268.643a.582.582,0,0,1-.191-.467v-6.052a.565.565,0,0,1,.2-.46.712.712,0,0,1,.472-.166.721.721,0,0,1,.467.158.542.542,0,0,1,.2.446v.64a2.079,2.079,0,0,1,.917-1.031,2.961,2.961,0,0,1,1.483-.36,2.646,2.646,0,0,1,1.937.707,2.875,2.875,0,0,1,.721,2.142v3.976a.579.579,0,0,1-.195.467.741.741,0,0,1-.935,0,.579.579,0,0,1-.195-.467v-3.991a2.1,2.1,0,0,0-.438-1.435,1.563,1.563,0,0,0-1.233-.494,1.909,1.909,0,0,0-1.429.6,2.46,2.46,0,0,0-.633,1.642v3.674a.573.573,0,0,1-.2.464.718.718,0,0,1-.475.169A.683.683,0,0,1,346.33,268.643Z" fill="#263238"/>
            <path id="Path_16" data-name="Path 16" d="M354.79,268.389a1.859,1.859,0,0,1-.722-1.568,2.744,2.744,0,0,1,.088-.736,1.9,1.9,0,0,1,.251-.556,1.33,1.33,0,0,1,.456-.4,3.234,3.234,0,0,1,.648-.272,4.92,4.92,0,0,1,.9-.162q.546-.055,1.123-.078c.385-.014.851-.022,1.395-.022v-.8a1.49,1.49,0,0,0-.419-1.164,1.7,1.7,0,0,0-1.171-.375,4.284,4.284,0,0,0-.9.1,5.123,5.123,0,0,0-.707.191q-.258.1-.633.265a.386.386,0,0,1-.177.037.429.429,0,0,1-.331-.158.518.518,0,0,1-.14-.35.373.373,0,0,1,.206-.339,5.465,5.465,0,0,1,2.717-.64,3.226,3.226,0,0,1,2.109.626,2.351,2.351,0,0,1,.762,1.929V268.2a.555.555,0,0,1-.2.453.719.719,0,0,1-.468.165.68.68,0,0,1-.453-.158.551.551,0,0,1-.187-.445v-.707a2.34,2.34,0,0,1-2.268,1.436A3,3,0,0,1,354.79,268.389Zm3.5-1.03a2.546,2.546,0,0,0,.637-1.782v-.221q-.912,0-1.487.033a7.918,7.918,0,0,0-1.016.118,1.635,1.635,0,0,0-.663.25,1.034,1.034,0,0,0-.327.4,1.47,1.47,0,0,0-.107.6,1.173,1.173,0,0,0,.4.983,1.7,1.7,0,0,0,1.082.313A1.95,1.95,0,0,0,358.29,267.359Z" fill="#263238"/>
            <path id="Path_17" data-name="Path 17" d="M362.69,268.636a.634.634,0,0,1-.192-.5v-9.181a.612.612,0,0,1,.2-.486.7.7,0,0,1,.474-.177.664.664,0,0,1,.461.177.623.623,0,0,1,.2.486v9.181a.625.625,0,0,1-.2.49.692.692,0,0,1-.475.18A.667.667,0,0,1,362.69,268.636Z" fill="#263238"/>
            <path id="Path_18" data-name="Path 18" d="M370.3,267.7a.288.288,0,0,1-.088-.221.743.743,0,0,1,.225-.486.625.625,0,0,1,.453-.251.3.3,0,0,1,.183.059,4.6,4.6,0,0,0,2.9.972,3.256,3.256,0,0,0,1.756-.427,1.373,1.373,0,0,0,.681-1.237,1.98,1.98,0,0,0-.1-.666,1.168,1.168,0,0,0-.331-.482,2.195,2.195,0,0,0-.527-.346,7.364,7.364,0,0,0-.765-.3l-2.113-.707a4.265,4.265,0,0,1-1.745-1,2.316,2.316,0,0,1-.575-1.664,2.4,2.4,0,0,1,.5-1.5,3.047,3.047,0,0,1,1.34-.979,5.167,5.167,0,0,1,1.9-.332,5.911,5.911,0,0,1,1.985.335,4.322,4.322,0,0,1,1.446.785.467.467,0,0,1,.17.368.594.594,0,0,1-.17.412.531.531,0,0,1-.4.184.577.577,0,0,1-.324-.1,5.449,5.449,0,0,0-1.13-.541,4.221,4.221,0,0,0-1.454-.247,3.365,3.365,0,0,0-1.767.4,1.3,1.3,0,0,0-.662,1.171,1.237,1.237,0,0,0,.342.916,2.789,2.789,0,0,0,1.093.593l2.121.685a7.3,7.3,0,0,1,1.086.434,3.8,3.8,0,0,1,.81.556,2.051,2.051,0,0,1,.544.784,2.834,2.834,0,0,1,.181,1.053,2.651,2.651,0,0,1-1.064,2.245,4.686,4.686,0,0,1-2.89.8A5.09,5.09,0,0,1,370.3,267.7Z" fill="#263238"/>
            <path id="Path_19" data-name="Path 19" d="M381.14,268.485a3.267,3.267,0,0,1-1.3-1.321,4.139,4.139,0,0,1-.483-2.036,4.274,4.274,0,0,1,.4-1.87,3.329,3.329,0,0,1,1.223-1.377,3.425,3.425,0,0,1,1.906-.53,3.7,3.7,0,0,1,1.51.287,2.563,2.563,0,0,1,1.03.791,3.6,3.6,0,0,1,.575,1.127,5.15,5.15,0,0,1,.213,1.366.526.526,0,0,1-.118.353.435.435,0,0,1-.353.14H380.7a2.621,2.621,0,0,0,.678,1.918,2.375,2.375,0,0,0,1.7.666,2.835,2.835,0,0,0,1.178-.235,5.423,5.423,0,0,0,1.053-.641.449.449,0,0,1,.28-.1.383.383,0,0,1,.3.136.467.467,0,0,1,.122.32.553.553,0,0,1-.206.42,4.061,4.061,0,0,1-2.813,1.046A3.838,3.838,0,0,1,381.14,268.485Zm3.917-3.887a2.958,2.958,0,0,0-.582-1.686,1.8,1.8,0,0,0-1.509-.656,2.164,2.164,0,0,0-.935.2,1.925,1.925,0,0,0-.688.534,2.744,2.744,0,0,0-.427.744,3.055,3.055,0,0,0-.2.865Z" fill="#263238"/>
            <path id="Path_20" data-name="Path 20" d="M388.26,268.647a.564.564,0,0,1-.192-.456v-6.074a.546.546,0,0,1,.2-.453.733.733,0,0,1,.471-.159.717.717,0,0,1,.468.159.532.532,0,0,1,.2.438l-.007.883a2.195,2.195,0,0,1,.739-1.145,2.035,2.035,0,0,1,1.337-.46.444.444,0,0,1,.372.177.66.66,0,0,1,.136.412.592.592,0,0,1-.125.379.433.433,0,0,1-.361.159,2.169,2.169,0,0,0-1.543.515,1.8,1.8,0,0,0-.548,1.377v3.792a.551.551,0,0,1-.2.456.736.736,0,0,1-.474.162A.692.692,0,0,1,388.26,268.647Z" fill="#263238"/>
            <path id="Path_21" data-name="Path 21" d="M395.486,268.592a2.3,2.3,0,0,1-.468-.769l-2.3-5.5a.494.494,0,0,1-.044-.206.575.575,0,0,1,.21-.439.685.685,0,0,1,.468-.187.562.562,0,0,1,.544.419l2.253,5.544,2.246-5.544a.563.563,0,0,1,.545-.419.683.683,0,0,1,.467.187.575.575,0,0,1,.21.439.494.494,0,0,1-.044.206l-2.3,5.5a2.27,2.27,0,0,1-.468.769.922.922,0,0,1-.659.224A.935.935,0,0,1,395.486,268.592Z" fill="#263238"/>
            <path id="Path_22" data-name="Path 22" d="M402.388,268.485a3.273,3.273,0,0,1-1.3-1.321,4.139,4.139,0,0,1-.482-2.036,4.274,4.274,0,0,1,.4-1.87,3.326,3.326,0,0,1,1.222-1.377,3.428,3.428,0,0,1,1.907-.53,3.7,3.7,0,0,1,1.509.287,2.566,2.566,0,0,1,1.031.791,3.6,3.6,0,0,1,.574,1.127,5.149,5.149,0,0,1,.214,1.366.532.532,0,0,1-.118.353.439.439,0,0,1-.354.14h-5.05a2.617,2.617,0,0,0,.677,1.918,2.378,2.378,0,0,0,1.7.666,2.839,2.839,0,0,0,1.178-.235,5.482,5.482,0,0,0,1.053-.641.445.445,0,0,1,.279-.1.385.385,0,0,1,.3.136.466.466,0,0,1,.121.32.553.553,0,0,1-.206.42,4.061,4.061,0,0,1-2.813,1.046A3.838,3.838,0,0,1,402.388,268.485ZM406.3,264.6a2.965,2.965,0,0,0-.581-1.686,1.806,1.806,0,0,0-1.51-.656,2.167,2.167,0,0,0-.935.2,1.934,1.934,0,0,0-.688.534,2.77,2.77,0,0,0-.427.744,3.021,3.021,0,0,0-.2.865Z" fill="#263238"/>
            <path id="Path_23" data-name="Path 23" d="M409.508,268.647a.563.563,0,0,1-.191-.456v-6.074a.545.545,0,0,1,.2-.453.734.734,0,0,1,.472-.159.716.716,0,0,1,.467.159.532.532,0,0,1,.195.438l-.007.883a2.2,2.2,0,0,1,.74-1.145,2.031,2.031,0,0,1,1.336-.46.444.444,0,0,1,.372.177.654.654,0,0,1,.136.412.592.592,0,0,1-.125.379.432.432,0,0,1-.361.159,2.167,2.167,0,0,0-1.542.515,1.8,1.8,0,0,0-.549,1.377v3.792a.55.55,0,0,1-.2.456.737.737,0,0,1-.475.162A.694.694,0,0,1,409.508,268.647Z" fill="#263238"/>
            <path id="Path_24" data-name="Path 24" d="M419.348,268.592a.682.682,0,0,1-.225-.505V259.01a.718.718,0,0,1,.2-.505.653.653,0,0,1,.5-.217h5.456a.553.553,0,0,1,.434.173.6.6,0,0,1,.155.416.618.618,0,0,1-.155.42.545.545,0,0,1-.434.176h-4.668v3.35h4.417a.567.567,0,0,1,.442.17.6.6,0,0,1,0,.813.56.56,0,0,1-.438.173h-4.417v3.645h4.859a.549.549,0,0,1,.434.176.618.618,0,0,1,.155.42.6.6,0,0,1-.155.416.553.553,0,0,1-.434.173h-5.61A.715.715,0,0,1,419.348,268.592Z" fill="#263238"/>
            <path id="Path_25" data-name="Path 25" d="M428.283,268.647a.564.564,0,0,1-.192-.456v-6.074a.543.543,0,0,1,.2-.453.729.729,0,0,1,.471-.159.717.717,0,0,1,.468.159.532.532,0,0,1,.2.438l-.008.883a2.2,2.2,0,0,1,.74-1.145,2.033,2.033,0,0,1,1.337-.46.441.441,0,0,1,.371.177.655.655,0,0,1,.137.412.587.587,0,0,1-.126.379.43.43,0,0,1-.36.159,2.169,2.169,0,0,0-1.543.515,1.8,1.8,0,0,0-.548,1.377v3.792a.551.551,0,0,1-.2.456.737.737,0,0,1-.475.162A.692.692,0,0,1,428.283,268.647Z" fill="#263238"/>
            <path id="Path_26" data-name="Path 26" d="M433.642,268.647a.566.566,0,0,1-.191-.456v-6.074a.543.543,0,0,1,.2-.453.729.729,0,0,1,.471-.159.714.714,0,0,1,.467.159.53.53,0,0,1,.2.438l-.008.883a2.2,2.2,0,0,1,.74-1.145,2.033,2.033,0,0,1,1.337-.46.443.443,0,0,1,.371.177.655.655,0,0,1,.137.412.587.587,0,0,1-.126.379.43.43,0,0,1-.36.159,2.169,2.169,0,0,0-1.543.515,1.8,1.8,0,0,0-.548,1.377v3.792a.551.551,0,0,1-.2.456.737.737,0,0,1-.475.162A.7.7,0,0,1,433.642,268.647Z" fill="#263238"/>
            <path id="Path_27" data-name="Path 27" d="M439.293,267.874a4.231,4.231,0,0,1,0-5.456,3.931,3.931,0,0,1,5.382,0,4.238,4.238,0,0,1,0,5.459,3.929,3.929,0,0,1-5.386,0Zm4.432-.615a3.87,3.87,0,0,0-.007-4.222,2.323,2.323,0,0,0-3.471,0,3.878,3.878,0,0,0,0,4.219,2.089,2.089,0,0,0,1.727.777A2.128,2.128,0,0,0,443.725,267.259Z" fill="#263238"/>
            <path id="Path_28" data-name="Path 28" d="M447.528,268.647a.566.566,0,0,1-.191-.456v-6.074a.543.543,0,0,1,.2-.453.729.729,0,0,1,.471-.159.716.716,0,0,1,.467.159.532.532,0,0,1,.2.438l-.007.883a2.2,2.2,0,0,1,.74-1.145,2.032,2.032,0,0,1,1.336-.46.444.444,0,0,1,.372.177.654.654,0,0,1,.136.412.586.586,0,0,1-.125.379.432.432,0,0,1-.361.159,2.168,2.168,0,0,0-1.542.515,1.8,1.8,0,0,0-.549,1.377v3.792a.55.55,0,0,1-.2.456.737.737,0,0,1-.475.162A.694.694,0,0,1,447.528,268.647Z" fill="#263238"/>
          </g>
        </g>
        <g id="Group_5" data-name="Group 5">
          <path id="Path_29" data-name="Path 29" d="M316.8,235.121a3.563,3.563,0,0,1-1.213-2.754,4.731,4.731,0,0,1,1.267-3.176,3.726,3.726,0,0,1,2.845-1.45,3.03,3.03,0,0,1,1.029.184,3.669,3.669,0,0,1,.991.551,16.924,16.924,0,0,0,10.574,3.854,9.073,9.073,0,0,0,6.609-2.257q2.314-2.258,2.313-6.664a8.332,8.332,0,0,0-8.7-8.959,13.635,13.635,0,0,0-8.3,3.012,3.083,3.083,0,0,1-2.056.623,5.932,5.932,0,0,1-3.745-1.358,4.428,4.428,0,0,1-1.726-3.672V192.2q0-3.12,1.506-4.259t5.03-1.139h22.1a3.865,3.865,0,0,1,2.883,1.1,4.115,4.115,0,0,1,1.082,3.011,3.93,3.93,0,0,1-1.138,2.992,4.448,4.448,0,0,1-3.194,1.083H326.048l-.184,13.989,1.1-.661A14.871,14.871,0,0,1,330.6,207a21.145,21.145,0,0,1,5.361-.661,15.907,15.907,0,0,1,11.73,4.517q4.534,4.515,4.535,12.372a16.878,16.878,0,0,1-2.607,9.363,16.674,16.674,0,0,1-7.049,6.132,23.162,23.162,0,0,1-9.986,2.092A23.746,23.746,0,0,1,316.8,235.121Z" fill="#263238"/>
          <path id="Path_30" data-name="Path 30" d="M371.079,239.564a16.09,16.09,0,0,1-5.838-3.984,21.1,21.1,0,0,1-3.8-6.076A32,32,0,0,1,359.312,222a54.628,54.628,0,0,1-.625-8.537,53.043,53.043,0,0,1,.625-8.407,32.637,32.637,0,0,1,2.111-7.454,20.747,20.747,0,0,1,3.763-6.058,16.211,16.211,0,0,1,5.837-3.984,22.614,22.614,0,0,1,16.027-.037,16.236,16.236,0,0,1,5.8,3.929,20.952,20.952,0,0,1,3.819,6.021,31.944,31.944,0,0,1,2.165,7.472,52.791,52.791,0,0,1,.643,8.518,54.5,54.5,0,0,1-.624,8.5,32.166,32.166,0,0,1-2.129,7.509,21.146,21.146,0,0,1-3.8,6.075,16.363,16.363,0,0,1-5.819,4,20.435,20.435,0,0,1-8,1.487A20.8,20.8,0,0,1,371.079,239.564Zm12.575-8.537a8.575,8.575,0,0,0,2.735-4.241,30.021,30.021,0,0,0,1.248-5.911,67.747,67.747,0,0,0,.35-7.416q0-3.378-.184-5.929a34.946,34.946,0,0,0-.753-5.1,14.7,14.7,0,0,0-1.524-4.186,7.6,7.6,0,0,0-2.57-2.643,7.129,7.129,0,0,0-3.855-1.01,7.817,7.817,0,0,0-3.3.661,6.083,6.083,0,0,0-2.387,1.965,12.912,12.912,0,0,0-1.6,2.937,18.224,18.224,0,0,0-.992,3.873q-.35,2.241-.477,4.443t-.129,4.993q0,2.79.129,5.011t.477,4.48a18.6,18.6,0,0,0,.992,3.91,12.779,12.779,0,0,0,1.6,2.956A6.233,6.233,0,0,0,375.8,231.8a7.624,7.624,0,0,0,3.3.679A7.117,7.117,0,0,0,383.654,231.027Z" fill="#263238"/>
          <path id="Path_31" data-name="Path 31" d="M417.561,239.564a16.1,16.1,0,0,1-5.837-3.984,21.075,21.075,0,0,1-3.8-6.076A32,32,0,0,1,405.794,222a54.637,54.637,0,0,1-.624-8.537,53.051,53.051,0,0,1,.624-8.407A32.639,32.639,0,0,1,407.9,197.6a20.747,20.747,0,0,1,3.763-6.058,16.207,16.207,0,0,1,5.838-3.984,22.614,22.614,0,0,1,16.027-.037,16.241,16.241,0,0,1,5.8,3.929,20.952,20.952,0,0,1,3.819,6.021,31.946,31.946,0,0,1,2.166,7.472,52.906,52.906,0,0,1,.643,8.518,54.487,54.487,0,0,1-.625,8.5,32.116,32.116,0,0,1-2.129,7.509,21.124,21.124,0,0,1-3.8,6.075,16.345,16.345,0,0,1-5.819,4,20.433,20.433,0,0,1-8,1.487A20.8,20.8,0,0,1,417.561,239.564Zm12.575-8.537a8.575,8.575,0,0,0,2.735-4.241,30.021,30.021,0,0,0,1.248-5.911,67.747,67.747,0,0,0,.35-7.416q0-3.378-.184-5.929a35.08,35.08,0,0,0-.752-5.1,14.76,14.76,0,0,0-1.524-4.186,7.607,7.607,0,0,0-2.571-2.643,7.128,7.128,0,0,0-3.854-1.01,7.822,7.822,0,0,0-3.305.661,6.083,6.083,0,0,0-2.387,1.965,12.912,12.912,0,0,0-1.6,2.937,18.226,18.226,0,0,0-.992,3.873q-.349,2.241-.477,4.443t-.129,4.993q0,2.79.129,5.011t.477,4.48a18.6,18.6,0,0,0,.992,3.91,12.779,12.779,0,0,0,1.6,2.956,6.233,6.233,0,0,0,2.387,1.983,7.629,7.629,0,0,0,3.305.679A7.116,7.116,0,0,0,430.136,231.027Z" fill="#263238"/>
        </g>
      </g>
    </g>
    <g id="Server" transform="translate(176.5 154.5)">
      <g id="Group_18" data-name="Group 18">
        <g id="Group_13" data-name="Group 13">
          <path id="Path_35" data-name="Path 35" d="M153.006,338.543a23.811,23.811,0,0,1,17.683,4.4c8.167,6.282,14.383,22.253,17.591,44.607s5.026,32.042,23.875,35.183,64.083,1.885,91.1,1.256,25.759-25.759,3.141-28.272-38.267,3.523-61.856-1.694,21.019-12.128,54.945-7.1,49.005,6.282,67.225,4.4" fill="none" stroke="#263238" stroke-linecap="round" stroke-linejoin="round" stroke-width="2.513"/>
          <path id="Path_36" data-name="Path 36" d="M153.006,305.1s18.311.148,23.337,19,6.911,45.236,7.539,65.969,1.257,38.324,25.131,43.351,88.586,3.141,106.178-.629,37.068-20.733,22.618-24.5-34.555,0-27.016,5.026,27.644,3.769,51.518.628" fill="none" stroke="#263238" stroke-linecap="round" stroke-linejoin="round" stroke-width="2.513"/>
          <g id="Group_12" data-name="Group 12">
            <path id="Path_37" data-name="Path 37" d="M156.761,370.686s11.186-.973,15.564,11.672-.973,15.564,1.459,21.886,17.775.42,17.705,5.657c-.064,4.78-6.126,6.126-41.05,4.07-45.662-2.687-75.871,4.378-73.44,8.755s38.909.972,30.154,7.781-30.154-.972-46.69-1.459-19.454,3.4-19.454,3.4" fill="none" stroke="#263238" stroke-linecap="round" stroke-linejoin="round" stroke-width="2.513"/>
          </g>
        </g>
        <g id="Group_17" data-name="Group 17">
          <rect id="Rectangle_2" data-name="Rectangle 2" width="117.065" height="215.4" rx="3.56" transform="translate(44.611 192.045)" fill="#263238" stroke="#263238" stroke-linecap="round" stroke-linejoin="round" stroke-width="1.257"/>
          <rect id="Rectangle_3" data-name="Rectangle 3" width="111.413" height="82.513" transform="translate(47.409 224.314)" fill="#616161"/>
          <rect id="Rectangle_4" data-name="Rectangle 4" width="111.413" height="82.513" transform="translate(47.409 320.23)" fill="#616161"/>
          <rect id="Rectangle_5" data-name="Rectangle 5" width="63.246" height="64.502" transform="translate(81.754 330.283)" fill="#220054" stroke="#263238" stroke-linecap="round" stroke-linejoin="round" stroke-width="1.257"/>
          <rect id="Rectangle_6" data-name="Rectangle 6" width="63.246" height="15.916" transform="translate(81.754 233.529)" fill="#220054" stroke="#263238" stroke-linecap="round" stroke-linejoin="round" stroke-width="1.257"/>
          <rect id="Rectangle_7" data-name="Rectangle 7" width="63.246" height="15.916" transform="translate(81.754 264.105)" fill="#220054" stroke="#263238" stroke-linecap="round" stroke-linejoin="round" stroke-width="1.257"/>
          <path id="Path_38" data-name="Path 38" d="M142.884,226.161l-1.222,3.345H85.631l-1.222-3.345H72.539v14.717h11.87l1.222-3.345h56.031l1.222,3.345h13.44V226.161Z" fill="#263238" stroke="#263238" stroke-linecap="round" stroke-linejoin="round" stroke-width="1.257"/>
          <path id="Path_39" data-name="Path 39" d="M142.884,242.216l-1.222,3.345H85.631l-1.222-3.345H72.539v14.717h11.87l1.222-3.345h56.031l1.222,3.345h13.44V242.216Z" fill="#263238" stroke="#263238" stroke-linecap="round" stroke-linejoin="round" stroke-width="1.257"/>
          <path id="Path_40" data-name="Path 40" d="M142.884,258.27l-1.222,3.345H85.631l-1.222-3.345H72.539v14.717h11.87l1.222-3.345h56.031l1.222,3.345h13.44V258.27Z" fill="#263238" stroke="#263238" stroke-linecap="round" stroke-linejoin="round" stroke-width="1.257"/>
          <path id="Path_41" data-name="Path 41" d="M142.884,274.325l-1.222,3.345H85.631l-1.222-3.345H72.539v14.717h11.87l1.222-3.345h56.031l1.222,3.345h13.44V274.325Z" fill="#263238" stroke="#263238" stroke-linecap="round" stroke-linejoin="round" stroke-width="1.257"/>
          <path id="Path_42" data-name="Path 42" d="M142.884,290.379l-1.222,3.345H85.631l-1.222-3.345H72.539V305.1h11.87l1.222-3.345h56.031l1.222,3.345h13.44V290.379Z" fill="#263238" stroke="#263238" stroke-linecap="round" stroke-linejoin="round" stroke-width="1.257"/>
          <path id="Path_43" data-name="Path 43" d="M142.884,322.489l-1.222,3.345H85.631l-1.222-3.345H72.539v14.717h11.87l1.222-3.345h56.031l1.222,3.345h13.44V322.489Z" fill="#263238" stroke="#263238" stroke-linecap="round" stroke-linejoin="round" stroke-width="1.257"/>
          <path id="Path_44" data-name="Path 44" d="M142.884,338.543l-1.222,3.345H85.631l-1.222-3.345H72.539V353.26h11.87l1.222-3.345h56.031l1.222,3.345h13.44V338.543Z" fill="#263238" stroke="#263238" stroke-linecap="round" stroke-linejoin="round" stroke-width="1.257"/>
          <path id="Path_45" data-name="Path 45" d="M142.884,354.6l-1.222,3.345H85.631L84.409,354.6H72.539v14.717h11.87l1.222-3.345h56.031l1.222,3.345h13.44V354.6Z" fill="#263238" stroke="#263238" stroke-linecap="round" stroke-linejoin="round" stroke-width="1.257"/>
          <path id="Path_46" data-name="Path 46" d="M142.884,370.653,141.662,374H85.631l-1.222-3.345H72.539v14.717h11.87l1.222-3.345h56.031l1.222,3.345h13.44V370.653Z" fill="#263238" stroke="#263238" stroke-linecap="round" stroke-linejoin="round" stroke-width="1.257"/>
          <path id="Path_47" data-name="Path 47" d="M142.884,386.707l-1.222,3.345H85.631l-1.222-3.345H72.539v14.717h11.87l1.222-3.345h56.031l1.222,3.345h13.44V386.707Z" fill="#263238" stroke="#263238" stroke-linecap="round" stroke-linejoin="round" stroke-width="1.257"/>
          <rect id="Rectangle_8" data-name="Rectangle 8" width="106.646" height="10.053" transform="translate(49.652 309.39)" fill="#fff"/>
          <g id="Group_14" data-name="Group 14">
            <path id="Path_48" data-name="Path 48" d="M58.648,314.309a2.81,2.81,0,1,0-2.811,2.811A2.811,2.811,0,0,0,58.648,314.309Z" fill="#263238" stroke="#263238" stroke-linecap="round" stroke-linejoin="round" stroke-width="1.257"/>
            <circle id="Ellipse_1" data-name="Ellipse 1" cx="2.81" cy="2.81" r="2.81" transform="translate(62.39 311.499)" fill="#220054" stroke="#263238" stroke-linecap="round" stroke-linejoin="round" stroke-width="1.257"/>
            <path id="Path_49" data-name="Path 49" d="M77.374,314.309a2.811,2.811,0,1,0-2.81,2.811A2.811,2.811,0,0,0,77.374,314.309Z" fill="#263238" stroke="#263238" stroke-linecap="round" stroke-linejoin="round" stroke-width="1.257"/>
          </g>
          <rect id="Rectangle_9" data-name="Rectangle 9" width="106.646" height="10.053" transform="translate(49.652 213.055)" fill="#fff"/>
          <g id="Group_15" data-name="Group 15">
            <path id="Path_50" data-name="Path 50" d="M58.648,217.974a2.81,2.81,0,1,0-2.811,2.811A2.81,2.81,0,0,0,58.648,217.974Z" fill="#fff" stroke="#263238" stroke-linecap="round" stroke-linejoin="round" stroke-width="1.257"/>
            <path id="Path_51" data-name="Path 51" d="M68.011,217.974a2.811,2.811,0,1,0-2.81,2.811A2.81,2.81,0,0,0,68.011,217.974Z" fill="#220054" stroke="#263238" stroke-linecap="round" stroke-linejoin="round" stroke-width="1.257"/>
            <path id="Path_52" data-name="Path 52" d="M77.374,217.974a2.811,2.811,0,1,0-2.81,2.811A2.81,2.81,0,0,0,77.374,217.974Z" fill="#fff" stroke="#263238" stroke-linecap="round" stroke-linejoin="round" stroke-width="1.257"/>
          </g>
          <rect id="Rectangle_10" data-name="Rectangle 10" width="106.646" height="10.053" transform="translate(49.652 200.129)" fill="#fff"/>
          <g id="Group_16" data-name="Group 16">
            <path id="Path_53" data-name="Path 53" d="M58.648,205.047a2.81,2.81,0,1,0-2.811,2.811A2.81,2.81,0,0,0,58.648,205.047Z" fill="#220054" stroke="#263238" stroke-linecap="round" stroke-linejoin="round" stroke-width="1.257"/>
            <path id="Path_54" data-name="Path 54" d="M68.011,205.047a2.811,2.811,0,1,0-2.81,2.811A2.81,2.81,0,0,0,68.011,205.047Z" fill="#263238" stroke="#263238" stroke-linecap="round" stroke-linejoin="round" stroke-width="1.257"/>
            <path id="Path_55" data-name="Path 55" d="M77.374,205.047a2.811,2.811,0,1,0-2.81,2.811A2.81,2.81,0,0,0,77.374,205.047Z" fill="#263238" stroke="#263238" stroke-linecap="round" stroke-linejoin="round" stroke-width="1.257"/>
          </g>
          <rect id="Rectangle_11" data-name="Rectangle 11" width="17.592" height="7.539" transform="translate(49.922 226.409)" fill="#263238" stroke="#263238" stroke-linecap="round" stroke-linejoin="round" stroke-width="1.257"/>
          <rect id="Rectangle_12" data-name="Rectangle 12" width="17.592" height="7.539" transform="translate(49.922 242.744)" fill="#263238" stroke="#263238" stroke-linecap="round" stroke-linejoin="round" stroke-width="1.257"/>
          <rect id="Rectangle_13" data-name="Rectangle 13" width="17.592" height="7.539" transform="translate(49.922 259.079)" fill="#220054" stroke="#263238" stroke-linecap="round" stroke-linejoin="round" stroke-width="1.257"/>
          <rect id="Rectangle_14" data-name="Rectangle 14" width="17.592" height="7.539" transform="translate(49.922 275.414)" fill="#220054" stroke="#263238" stroke-linecap="round" stroke-linejoin="round" stroke-width="1.257"/>
          <rect id="Rectangle_15" data-name="Rectangle 15" width="17.592" height="7.539" transform="translate(49.922 291.749)" fill="#220054" stroke="#263238" stroke-linecap="round" stroke-linejoin="round" stroke-width="1.257"/>
          <rect id="Rectangle_16" data-name="Rectangle 16" width="17.592" height="7.539" transform="translate(49.922 322.325)" fill="#220054" stroke="#263238" stroke-linecap="round" stroke-linejoin="round" stroke-width="1.257"/>
          <rect id="Rectangle_17" data-name="Rectangle 17" width="17.592" height="7.539" transform="translate(49.922 338.66)" fill="#263238" stroke="#263238" stroke-linecap="round" stroke-linejoin="round" stroke-width="1.257"/>
          <rect id="Rectangle_18" data-name="Rectangle 18" width="17.592" height="7.539" transform="translate(49.922 354.995)" fill="#220054" stroke="#263238" stroke-linecap="round" stroke-linejoin="round" stroke-width="1.257"/>
          <rect id="Rectangle_19" data-name="Rectangle 19" width="17.592" height="7.539" transform="translate(49.922 371.33)" fill="#263238" stroke="#263238" stroke-linecap="round" stroke-linejoin="round" stroke-width="1.257"/>
          <rect id="Rectangle_20" data-name="Rectangle 20" width="17.592" height="7.539" transform="translate(49.922 387.665)" fill="#220054" stroke="#263238" stroke-linecap="round" stroke-linejoin="round" stroke-width="1.257"/>
        </g>
      </g>
    </g>
    <g id="Character" transform="translate(176.5 154.5)">
      <g id="Group_30" data-name="Group 30">
        <path id="Path_56" data-name="Path 56" d="M214.836,146.358s-16.855,4.295-21.535,10.7-23.647,50-23.647,50-6.157,6.9.493,13.548,19.952,9.114,24.878,3.2,12.07-33.746,13.055-36.948,8.375-30.3,9.114-31.775S218.636,147.236,214.836,146.358Z" fill="#bdbdbd" stroke="#263238" stroke-linecap="round" stroke-linejoin="round" stroke-width="1.257"/>
        <path id="Path_57" data-name="Path 57" d="M214.836,146.358s-16.855,4.295-21.535,10.7c-2.832,3.875-10.895,21.37-16.821,34.582,2.877-.583,14.877-2.36,28.926,4.721,1.358-4.724,2.35-8.446,2.674-9.5.985-3.2,8.375-30.3,9.114-31.775S218.636,147.236,214.836,146.358Z" fill="#263238" stroke="#263238" stroke-linecap="round" stroke-linejoin="round" stroke-width="1.257"/>
        <path id="Path_58" data-name="Path 58" d="M264.241,89.566a16.16,16.16,0,0,1,6.65,7.143c1.971,4.68,1.971,11.823,1.971,11.823s31.528-.985,43.6-1.231,20.2,2.709,20.444,8.621-2.463,17.488-9.113,21.922-27.342-2.709-37.933-5.665-14.287-1.971-21.923-2.956-9.852-3.941-11.084-8.621,1.232-13.548,1.232-20.691S257.1,88.088,264.241,89.566Z" fill="#bdbdbd" stroke="#263238" stroke-linecap="round" stroke-linejoin="round" stroke-width="1.257"/>
        <path id="Path_59" data-name="Path 59" d="M310.3,119.863s-4.434,11.33-12.562,17.488c-5.834,4.42-13.7,6.936-17.672,8.005-14.2-3.978-34.267-5.879-46-3.273,0,0-16.385,3.919-19.235,4.275s-9.617,23.153-11.042,38.826S207,239.682,207,242.532s1.781,50.224,4.63,63.4,6.056,30.99,6.412,33.483,2.85,21.016,2.85,27.071-2.85,20.66-2.85,20.66-12.823,8.549-17.81,13.536,3.669,10.233,9.974,11.4c10.745,1.986,23.509-8.549,23.509-8.549l14.246-5.7c3.794-1.518,4.913-5.591,5.005-9.241q.334-13.187.667-26.373,3.36,14.016,5.512,28.287c.588,3.9,1.18,7.989,3.536,11.149a15.045,15.045,0,0,0,4.944,4.39c1.418.662,2.926.522,4.351,1.343,2.63,1.517,3.715,4.8,6.268,6.446a33.469,33.469,0,0,0,18.162,4.658s14.248.712,14.96-7.124-18.522-20.66-18.522-20.66-2.85-52.005-4.987-69.1-7.836-44.881-7.836-56.992,5.7-69.1,5.7-69.1.581-1.5,1.472-3.948c.312-.165.625-.335.941-.517,8.129-4.68,30.79-22.908,38.18-34.485,7.074-11.083,9.633-31.875,9.839-37.95" fill="#bdbdbd" stroke="#263238" stroke-linecap="round" stroke-linejoin="round" stroke-width="1.257"/>
        <g id="Group_19" data-name="Group 19">
          <path id="Path_60" data-name="Path 60" d="M311.366,411.371c.713-7.837-18.522-20.66-18.522-20.66s-.22-4.005-.582-10.147a143.891,143.891,0,0,1-34.082,3.977c.336,1.987.665,3.975.965,5.968.588,3.9,1.18,7.989,3.536,11.149a15.045,15.045,0,0,0,4.944,4.39c1.418.662,2.926.522,4.351,1.343,2.63,1.517,3.715,4.8,6.268,6.446a33.469,33.469,0,0,0,18.162,4.658S310.654,419.207,311.366,411.371Z" fill="#263238" stroke="#263238" stroke-linecap="round" stroke-linejoin="round" stroke-width="1.257"/>
          <path id="Path_61" data-name="Path 61" d="M247.961,397.836c3.794-1.518,4.913-5.591,5.006-9.241q.051-2.067.1-4.135a157.109,157.109,0,0,1-33.694-4.821c-.681,4.157-1.335,7.51-1.335,7.51s-12.823,8.549-17.81,13.536,3.669,10.233,9.974,11.4c10.745,1.986,23.509-8.549,23.509-8.549Z" fill="#263238" stroke="#263238" stroke-linecap="round" stroke-linejoin="round" stroke-width="1.257"/>
        </g>
        <path id="Path_62" data-name="Path 62" d="M311.366,411.371c.011-.115,0-.234.005-.35a24.462,24.462,0,0,1-10.615,4.3c-11.258,2-21.515-3.752-24.267-6.254s-4.5-4.5-8.756-7.255-8.113-9.517-8.113-9.517l-.157.245c.53,3.253,1.269,6.505,3.218,9.12a15.045,15.045,0,0,0,4.944,4.39c1.418.662,2.926.522,4.351,1.343,2.63,1.517,3.715,4.8,6.268,6.446a33.469,33.469,0,0,0,18.162,4.658S310.654,419.207,311.366,411.371Z" fill="#fff" stroke="#263238" stroke-linecap="round" stroke-linejoin="round" stroke-width="1.257"/>
        <path id="Path_63" data-name="Path 63" d="M247.961,397.836c3.307-1.323,4.58-4.587,4.914-7.821-3.271,1.952-10.86,6.372-15.663,8.293-6.254,2.5-10.507,10.007-22.766,10.007-8.741,0-13.523-3.427-15.557-5.4-1.084,4.227,5.952,8.175,11.317,9.166,10.745,1.986,23.509-8.549,23.509-8.549Z" fill="#fff" stroke="#263238" stroke-linecap="round" stroke-linejoin="round" stroke-width="1.257"/>
        <path id="Path_64" data-name="Path 64" d="M294.235,139.667a61.022,61.022,0,0,1-14.167,5.689c-14.2-3.978-34.267-5.879-46-3.273,0,0-16.385,3.919-19.235,4.275s-9.617,23.153-11.042,38.826c-.879,9.673.548,28.159,1.769,41.569,29.683,10.88,61.342,7.149,76.824,4.184,1.566-17.753,3.333-35.424,3.333-35.424s.581-1.5,1.472-3.947c.312-.165.625-.335.941-.517,5.523-3.18,17.75-12.612,27.342-21.964C296.224,163.5,293.89,148.319,294.235,139.667Z" fill="#263238" stroke="#263238" stroke-linecap="round" stroke-linejoin="round" stroke-width="1.257"/>
        <path id="Path_65" data-name="Path 65" d="M266.629,156.663c0-6.075-3.147-11.508-8.1-15.2-9.1-.879-18.03-.811-24.458.617,0,0-4.528,1.083-9.237,2.162a18.324,18.324,0,0,0-5.016,12.418c0,11.11,10.479,20.117,23.406,20.117S266.629,167.773,266.629,156.663Z" fill="#616161" stroke="#263238" stroke-linecap="round" stroke-linejoin="round" stroke-width="1.257"/>
        <g id="Group_20" data-name="Group 20">
          <path id="Path_66" data-name="Path 66" d="M259.62,392.293a42.521,42.521,0,0,0,16.661,2.336c12.289-.534,16.563-3.918,16.563-3.918s-2.85-52.005-4.987-69.1-7.836-44.881-7.836-56.992c0-7.138,1.979-29.864,3.605-47.326-.254.032-.509.062-.764.092a14.355,14.355,0,0,1-16-14.681l.338-11.373a148.246,148.246,0,0,1-27.784-.8c-16.563-1.87-33.661-7.48-33.661-7.48l-1.8.553c-.059.535-.113,1.064-.16,1.584-1.425,15.672,3.206,54.5,3.206,57.348s1.781,50.224,4.63,63.4,6.056,30.989,6.412,33.482,2.85,21.016,2.85,27.072c0,5.946-2.746,20.124-2.845,20.635,2.138.664,6.62,2.019,14.688,4.3,12.289,3.473,20.215-.713,20.215-.713,0-4.274.712-28.5.712-28.5S258.16,382.71,259.62,392.293Z" fill="#fff" stroke="#263238" stroke-linecap="round" stroke-linejoin="round" stroke-width="1.257"/>
          <path id="Path_67" data-name="Path 67" d="M218.927,198.052l32,5.26v19.724l-17.971,17.971-14.464-17.532Z" fill="none" stroke="#263238" stroke-linecap="round" stroke-linejoin="round" stroke-width="1.257"/>
          <path id="Path_68" data-name="Path 68" d="M242.02,308.945c-2.306-13.024-4.031-25.85-4.031-35.067l-12.823-8.549" fill="none" stroke="#263238" stroke-linecap="round" stroke-linejoin="round" stroke-width="1.257"/>
          <path id="Path_69" data-name="Path 69" d="M253.662,362.215s-5.4-20.867-9.862-43.723" fill="none" stroke="#263238" stroke-linecap="round" stroke-linejoin="round" stroke-width="1.257"/>
          <path id="Path_70" data-name="Path 70" d="M263.186,251.734a13.509,13.509,0,0,0,1.326,3.3c3.944,7.013,9.642,7.89,9.642,7.89l.877-18.41" fill="none" stroke="#263238" stroke-linecap="round" stroke-linejoin="round" stroke-width="1.257"/>
          <path id="Path_71" data-name="Path 71" d="M264.512,241.006a15.554,15.554,0,0,0-1.447,4.215" fill="none" stroke="#263238" stroke-linecap="round" stroke-linejoin="round" stroke-width="1.257"/>
          <path id="Path_72" data-name="Path 72" d="M280.222,297.023c.463,2.427.927,4.815,1.384,7.1" fill="none" stroke="#263238" stroke-linecap="round" stroke-linejoin="round" stroke-width="1.257"/>
          <path id="Path_73" data-name="Path 73" d="M274.154,262.922s2.251,13.505,4.864,27.67" fill="none" stroke="#263238" stroke-linecap="round" stroke-linejoin="round" stroke-width="1.257"/>
        </g>
        <path id="Path_74" data-name="Path 74" d="M231.984,134.5,231.8,145s-3.621,2.9-4.345,10.5,6.517,14.664,14.664,14.664,15.206-6.336,16.474-12.129-.363-14.121-.363-14.121l-.543-12.672s-7.965,5.069-15.568,3.62-9.776-4.163-9.776-4.163Z" fill="#bdbdbd" stroke="#263238" stroke-linecap="round" stroke-linejoin="round" stroke-width="1.257"/>
        <g id="Group_22" data-name="Group 22">
          <path id="Path_75" data-name="Path 75" d="M226.312,107.1s-.488,6.011.812,7.473,3.087,2.6,3.412,1.3.487-8.123.812-9.585S226.474,103.037,226.312,107.1Z" fill="#bdbdbd" stroke="#263238" stroke-linecap="round" stroke-linejoin="round" stroke-width="1.257"/>
          <path id="Path_76" data-name="Path 76" d="M229.487,107.01s-1.5,12.031-1.5,17.8-2.256,8.02,5.012,11.78,13.535,4.26,18.548,2.506,7.77-6.015,8.02-9.524.251-9.023.251-9.023,7.018-6.266,5.514-11.028-4.762,1.253-4.762,1.253a38.6,38.6,0,0,0,2.005-12.783c-.251-6.516-5.264-7.268-7.269-7.268s-14.286-3.76-20.051,0S229.487,107.01,229.487,107.01Z" fill="#bdbdbd" stroke="#263238" stroke-linecap="round" stroke-linejoin="round" stroke-width="1.257"/>
          <path id="Path_77" data-name="Path 77" d="M260.567,110.77a38.6,38.6,0,0,0,2.005-12.783c-.251-6.516-5.264-7.268-7.269-7.268-.034,0-.1-.01-.136-.012-1.06,1.784-2.37,4.523-2.37,4.523l1,.5s-1,5.514,1,6.266,1,2.507,1,5.514,1.755,5.264,2.758,5.264c.788,0,2.039-2.012,2.538-2.872C260.771,110.393,260.567,110.77,260.567,110.77Z" fill="#263238" stroke="#263238" stroke-linecap="round" stroke-linejoin="round" stroke-width="1.257"/>
          <path id="Path_78" data-name="Path 78" d="M240.771,111.485s-2.112,1.95-1.137,3.412,4.548,2.274,5.523.487a3.027,3.027,0,0,0-.65-3.736" fill="none" stroke="#263238" stroke-linecap="round" stroke-linejoin="round" stroke-width="1.257"/>
          <path id="Path_79" data-name="Path 79" d="M238.5,109.536c0,.987-.4,1.787-.893,1.787s-.894-.8-.894-1.787.4-1.787.894-1.787S238.5,108.549,238.5,109.536Z" fill="#263238"/>
          <path id="Path_80" data-name="Path 80" d="M249.3,110.023c0,.987-.4,1.787-.894,1.787s-.893-.8-.893-1.787.4-1.787.893-1.787S249.3,109.036,249.3,110.023Z" fill="#263238"/>
          <path id="Path_81" data-name="Path 81" d="M246.619,105.149s3.412-2.274,6.661,1.3" fill="none" stroke="#263238" stroke-linecap="round" stroke-linejoin="round" stroke-width="1.257"/>
          <g id="Group_21" data-name="Group 21">
            <path id="Path_82" data-name="Path 82" d="M241.442,121.142a3.375,3.375,0,0,0-2.782-.122,2.878,2.878,0,0,0-1.617,1.738s-2.082,1.676.111,2.407,6.972.678,8.2.621a1.865,1.865,0,0,0,1.6-2.07,1.092,1.092,0,0,0-.507-.974A3.989,3.989,0,0,0,241.442,121.142Z" fill="#666" stroke="#263238" stroke-linecap="round" stroke-linejoin="round" stroke-width="0.923"/>
            <path id="Path_83" data-name="Path 83" d="M236.569,123.386a23.56,23.56,0,0,1,10.093.6" fill="none" stroke="#263238" stroke-linecap="round" stroke-linejoin="round" stroke-width="1.073"/>
          </g>
        </g>
        <g id="Group_23" data-name="Group 23">
          <path id="Path_84" data-name="Path 84" d="M225.227,93.225l26.818,3.76s11.279-3.008,12.281-5.264-2.757-13.534-4.762-16.291-21.3,2-27.32,3.007-10.526,2.507-10.276,5.514S225.227,93.225,225.227,93.225Z" fill="#220054" stroke="#263238" stroke-linecap="round" stroke-linejoin="round" stroke-width="1.257"/>
          <path id="Path_85" data-name="Path 85" d="M225.227,93.225s-15.289,12.532-15.54,13.785,22.307,1.755,29.325.251,13.033-10.276,13.033-10.276Z" fill="#fff" stroke="#263238" stroke-linecap="round" stroke-linejoin="round" stroke-width="1.257"/>
        </g>
        <path id="Path_86" data-name="Path 86" d="M208.522,259.36l42.049-24.629a8.278,8.278,0,0,0,12.91-8.955l-8.771,5.137-2.026-3.457,8.771-5.138a8.277,8.277,0,0,0-14.124,6.88l-42.049,24.629a8.277,8.277,0,0,0-12.91,8.955l8.541-5,2.025,3.458-8.54,5a8.276,8.276,0,0,0,14.124-6.879Z" fill="#220054" stroke="#263238" stroke-linecap="round" stroke-linejoin="round" stroke-width="1.257"/>
        <g id="Group_25" data-name="Group 25">
          <path id="Path_87" data-name="Path 87" d="M244.289,241.051s5.172,3.7,5.172,7.143-6.157,7.144-10.345,7.39-4.926-4.434-4.187-6.9S244.289,241.051,244.289,241.051Z" fill="#bdbdbd" stroke="#263238" stroke-linecap="round" stroke-linejoin="round" stroke-width="1.257"/>
          <g id="Group_24" data-name="Group 24">
            <path id="Path_88" data-name="Path 88" d="M190.1,210.261s28.573,16.011,32.514,15.518,9.36-3.941,12.316-2.955,11.084,13.547,11.823,15.764-5.912,10.1-7.389,11.33-6.158,6.159-7.144,6.651-7.389,6.158-10.591,6.158-8.622-2.463-9.114-3.695.739-2.955.739-2.955l-15.026-6.9s-28.573-15.518-33.5-23.4,7.39-21.922,7.39-21.922" fill="#bdbdbd" stroke="#263238" stroke-linecap="round" stroke-linejoin="round" stroke-width="1.257"/>
            <path id="Path_89" data-name="Path 89" d="M223.106,248.933a3.954,3.954,0,0,1,3.448,3.449c.493,3.2-.739,8.867-.739,8.867" fill="none" stroke="#263238" stroke-linecap="round" stroke-linejoin="round" stroke-width="1.257"/>
            <path id="Path_90" data-name="Path 90" d="M228.771,244.253s3.448.247,3.448,3.449v8.867" fill="none" stroke="#263238" stroke-linecap="round" stroke-linejoin="round" stroke-width="1.257"/>
            <path id="Path_91" data-name="Path 91" d="M232.466,235.386s6.4,4.68,6.9,7.389a31.878,31.878,0,0,1,0,7.143" fill="none" stroke="#263238" stroke-linecap="round" stroke-linejoin="round" stroke-width="1.257"/>
          </g>
        </g>
        <g id="Group_27" data-name="Group 27">
          <path id="Path_92" data-name="Path 92" d="M261.025,218.5c1.431,0,5.247-9.541,5.247-13.119s1.67-29.816,5.486-41.981c2.739-8.729,5.1-15.473,6.222-18.6-2.912-.746-6.017-1.408-9.224-1.964-1.907,5.788-7.739,23.856-10.117,35.35-2.862,13.835-2.147,30.293-1.908,31.724S259.593,218.5,261.025,218.5Z" fill="#fff" stroke="#263238" stroke-linecap="round" stroke-linejoin="round" stroke-width="1.257"/>
          <g id="Group_26" data-name="Group 26">
            <rect id="Rectangle_21" data-name="Rectangle 21" width="10.734" height="9.064" rx="1.228" transform="translate(256.897 188.973) rotate(7.559)" fill="#fff" stroke="#263238" stroke-linecap="round" stroke-linejoin="round" stroke-width="1.257"/>
            <rect id="Rectangle_22" data-name="Rectangle 22" width="6.734" height="5.687" rx="1.228" transform="translate(258.657 190.91) rotate(7.56)" fill="#fff" stroke="#263238" stroke-linecap="round" stroke-linejoin="round" stroke-width="1.257"/>
          </g>
        </g>
        <g id="Group_29" data-name="Group 29">
          <path id="Path_93" data-name="Path 93" d="M207.6,214.923c1.431,0,5.247-9.541,5.247-13.119s1.67-29.816,5.486-41.98c2.424-7.727,4.075-12.653,4.96-15.227-3.724.845-7.264,1.612-8.452,1.761-.875.109-2.12,2.34-3.465,5.825-1.581,4.9-3.516,11.271-5.036,17.477a127.532,127.532,0,0,0-2.541,15.524,129.474,129.474,0,0,0-.075,15.722c.023.181.043.326.059.421C204.017,202.758,206.163,214.923,207.6,214.923Z" fill="#fff" stroke="#263238" stroke-linecap="round" stroke-linejoin="round" stroke-width="1.257"/>
          <g id="Group_28" data-name="Group 28">
            <rect id="Rectangle_23" data-name="Rectangle 23" width="10.734" height="9.064" rx="1.228" transform="matrix(0.994, 0.106, -0.106, 0.994, 203.574, 181.701)" fill="#fff" stroke="#263238" stroke-linecap="round" stroke-linejoin="round" stroke-width="1.257"/>
            <rect id="Rectangle_24" data-name="Rectangle 24" width="6.734" height="5.686" rx="1.228" transform="translate(205.383 183.593) rotate(6.091)" fill="#fff" stroke="#263238" stroke-linecap="round" stroke-linejoin="round" stroke-width="1.257"/>
          </g>
        </g>
      </g>
    </g>
  </g>
</svg>
